<?xml version="1.0" standalone="no"?>
<!DOCTYPE svg PUBLIC "-//W3C//DTD SVG 1.1//EN" "http://www.w3.org/Graphics/SVG/1.1/DTD/svg11.dtd" >
<svg xmlns="http://www.w3.org/2000/svg" xmlns:xlink="http://www.w3.org/1999/xlink" version="1.1" viewBox="0 0 256 256">
  <g transform="matrix(1 0 0 -1 0 204)">
   <path fill="currentColor"
d="M154 161q1 -2 7 -5q4 -2 7 -3q3 -3 3 -6t-3 -3q-2 -1 -1 -1q-5 0 -7 -4q-6 -9 -18 -19q11 0 18 -4q2 -2 1 -5q-1 -2 -4 -2q-3 -1 -7 0q-5 1 -10 4q-7 2 -14 -1q-2 -1 -3 -1q-5 -3 -7 -2q8 -4 4 -8t-11 1q-22 14 -19 24q-2 8 -4 15l-1 1q0 2 1 4q0 3 1 -1q2 -6 5 -9
q2 -3 5 -9q0 -2 2 -3q2 -9 13 -12q31 5 42 41q0 8 -10 6l-6 -2q-30 -12 -45 -13q-2 0 -2 1t2 2q28 7 45 15q7 4 16 -1zM104 79q4 3 8 0q9 -7 12 -9q3 -5 -3 -7q-5 -1 -7 -5q-5 -8 -14 -18q10 2 14 -2q2 -5 -1 -6q-4 -2 -11 0q-9 1 -27 -3q7 -7 1 -9q-7 -2 -17 9q-7 3 -4 12
q0 2 -1 5q-1 1 -3 4q-3 4 -4 9q-1 3 2 1q3 -4 7 -11q2 -3 4 -4q4 -9 11 -13q12 4 26 8q-2 4 3 9q6 8 12 22q0 3 -3 3q-32 -13 -52 -16q-4 -1 0 2q19 9 38 14q5 1 9 5zM169 34q5 -2 4 -7q-2 -4 -6 -1q-17 9 -17 18q-1 2 -5 7q-1 1 -2 3q-8 7 -2 22q0 1 1 0q1 0 2 -2
q-3 -14 10 -29q7 -10 15 -11zM162 72q29 10 36 15q7 4 12 -1q3 -5 10 -10q3 -2 2 -4q0 -2 -3 -2q-5 -2 -8 -6q-7 -12 -15 -20q12 0 18 -4q1 -1 1 -2t-1 -1q-5 -6 -10 -2q-17 6 -29 1q-3 -2 -4 -1q-2 0 -1 4q0 5 5 6q8 0 13 -1q16 16 18 35q0 5 -4 4q-21 -12 -39 -14
q-3 0 -4 1q0 1 3 2z" />
  </g>

</svg>
