<?xml version="1.0" standalone="no"?>
<!DOCTYPE svg PUBLIC "-//W3C//DTD SVG 1.1//EN" "http://www.w3.org/Graphics/SVG/1.1/DTD/svg11.dtd" >
<svg xmlns="http://www.w3.org/2000/svg" xmlns:xlink="http://www.w3.org/1999/xlink" version="1.1" viewBox="0 0 256 256">
  <g transform="matrix(1 0 0 -1 0 204)">
   <path fill="currentColor"
d="M182 198q1 4 8 1q3 -1 9 -4q1 -1 3 -1q2 -4 -2 -5q-7 0 -11 -6l-6 -8q-7 -10 -20 -26q9 -11 30 -31q4 -4 13 -5h24q6 -1 20 -5q1 -3 -1 -3h-11q-14 2 -29 2q-7 -1 -15 7q-19 16 -35 32q-22 -25 -42 -38q-5 -4 -1 1q21 15 40 41q-14 14 -19 15q-2 0 -8 -4q-1 -2 -2 -2
q-6 -4 -2 2q11 8 17 8q3 0 14 -14q1 -1 3 -2q15 19 22 33q1 2 0 2q0 1 -2 1q-16 -5 -25 -8q-7 -4 -22 -5q-5 0 -1 2q8 1 25 6q11 4 18 6q4 1 8 8zM93 197q2 1 6 0q6 -4 12 -7q3 -4 -1 -5q-7 -2 -10 -6q-5 -5 -14 -13t-13 -12q12 3 16 7h1q3 2 8 0q4 -3 7 -4q2 -2 2 -3t-2 -2
q-4 -2 -15 -16q8 1 16 -3q2 -2 0 -4v-1q-6 -3 -10 -13q12 2 14 1q2 -4 -1 -5q-15 -1 -42 -12q-2 0 -4 -1q0 -3 3 -6q1 -2 2 -2q1 -2 0 -3q-2 -1 -3 0q-7 2 -14 10q-3 3 0 7q4 2 4 7q-3 29 -2 59q0 9 -2 18q-2 3 2 0q0 -2 1 -4q2 -3 3 -4q11 8 28 14h1q5 0 7 3zM88 157
q-20 -9 -31 -18q-2 -33 5 -38q11 3 21 9q7 7 11 18q-1 6 -7 4q-13 -8 -21 -8q-4 0 0 2q6 1 16 8q9 8 10 20q0 3 -4 3zM58 179q1 -3 1 -6v-1q-2 -11 -1 -23q2 1 11 4q16 19 26 34q2 6 -2 7q-20 -7 -35 -15zM156 98q2 -3 2 -4q-1 -2 -3 -2q-5 -3 -4 -9q-2 -19 -1 -64
q0 -4 -5 -1q-1 0 -2 1q-7 4 -10 8q-4 2 2 2q12 -2 12 3q1 3 1 16q-15 -6 -18 -11q-32 -47 -68 -58q-8 -1 -1 2q43 19 66 59q-16 -4 -33 -13q-8 -5 -18 -3q-3 0 -1 3q5 -1 10 0l1 1q2 1 7 3q4 1 7 3q-2 4 -3 5q-3 2 -4 8q-2 2 2 4q-1 22 1 27q1 4 0 8q-2 7 5 11q24 12 37 12
q3 1 18 -11zM101 96q-4 -2 -2 -12q1 -7 1 -11q2 0 5 2q2 1 3 2q9 8 18 8q3 -1 0 -4t-6 -4q-3 0 -5 -3t-1 0q-1 2 -3 2q-6 -3 -11 -4q0 -2 -1 -4q0 -7 1 -12q10 -1 18 6h1q3 3 6 3q1 0 5 -1q1 -1 0 -2q-9 -3 -13 -7q-2 -2 -3 -2v2q0 1 -3 0q-6 -3 -11 -3q1 -10 4 -16
q10 4 21 8q4 1 6 4q0 1 17 3l-3 48q-3 6 -8 9q-1 -1 -15 -6q-2 -2 -7 -3h-3q-7 0 -11 -3zM136 9q-5 4 2 2q44 -23 50 -34q1 -4 -3 -6q-10 0 -16 9q-13 18 -33 29z" />
  </g>

</svg>
