<?xml version="1.0" encoding="UTF-8" standalone="no"?>
<!-- Created with Inkscape (http://www.inkscape.org/) -->

<svg
   xmlns:dc="http://purl.org/dc/elements/1.1/"
   xmlns:cc="http://creativecommons.org/ns#"
   xmlns:rdf="http://www.w3.org/1999/02/22-rdf-syntax-ns#"
   xmlns:svg="http://www.w3.org/2000/svg"
   xmlns="http://www.w3.org/2000/svg"
   xmlns:sodipodi="http://sodipodi.sourceforge.net/DTD/sodipodi-0.dtd"
   xmlns:inkscape="http://www.inkscape.org/namespaces/inkscape"
   width="512"
   height="512"
   viewBox="0 0 135.46666 135.46666"
   version="1.1"
   id="svg8"
   inkscape:version="0.92.4 (5da689c313, 2019-01-14)"
   sodipodi:docname="U+5712.svg">
  <defs
     id="defs2">
    <inkscape:path-effect
       effect="bspline"
       id="path-effect1049"
       is_visible="true"
       weight="33.333333"
       steps="2"
       helper_size="0"
       apply_no_weight="true"
       apply_with_weight="true"
       only_selected="false" />
    <inkscape:path-effect
       effect="bspline"
       id="path-effect1045"
       is_visible="true"
       weight="33.333333"
       steps="2"
       helper_size="0"
       apply_no_weight="true"
       apply_with_weight="true"
       only_selected="false" />
    <inkscape:path-effect
       effect="bspline"
       id="path-effect1041"
       is_visible="true"
       weight="33.333333"
       steps="2"
       helper_size="0"
       apply_no_weight="true"
       apply_with_weight="true"
       only_selected="false" />
    <inkscape:path-effect
       effect="bspline"
       id="path-effect1037"
       is_visible="true"
       weight="33.333333"
       steps="2"
       helper_size="0"
       apply_no_weight="true"
       apply_with_weight="true"
       only_selected="false" />
    <inkscape:path-effect
       effect="bspline"
       id="path-effect1033"
       is_visible="true"
       weight="33.333333"
       steps="2"
       helper_size="0"
       apply_no_weight="true"
       apply_with_weight="true"
       only_selected="false" />
    <inkscape:path-effect
       effect="bspline"
       id="path-effect1029"
       is_visible="true"
       weight="33.333333"
       steps="2"
       helper_size="0"
       apply_no_weight="true"
       apply_with_weight="true"
       only_selected="false" />
    <inkscape:path-effect
       effect="bspline"
       id="path-effect1025"
       is_visible="true"
       weight="33.333333"
       steps="2"
       helper_size="0"
       apply_no_weight="true"
       apply_with_weight="true"
       only_selected="false" />
    <inkscape:path-effect
       effect="bspline"
       id="path-effect1021"
       is_visible="true"
       weight="33.333333"
       steps="2"
       helper_size="0"
       apply_no_weight="true"
       apply_with_weight="true"
       only_selected="false" />
    <inkscape:path-effect
       effect="bspline"
       id="path-effect1017"
       is_visible="true"
       weight="33.333333"
       steps="2"
       helper_size="0"
       apply_no_weight="true"
       apply_with_weight="true"
       only_selected="false" />
    <inkscape:path-effect
       effect="bspline"
       id="path-effect1009"
       is_visible="true"
       weight="33.333333"
       steps="2"
       helper_size="0"
       apply_no_weight="true"
       apply_with_weight="true"
       only_selected="false" />
    <inkscape:path-effect
       effect="bspline"
       id="path-effect1005"
       is_visible="true"
       weight="33.333333"
       steps="2"
       helper_size="0"
       apply_no_weight="true"
       apply_with_weight="true"
       only_selected="false" />
    <inkscape:path-effect
       effect="bspline"
       id="path-effect990"
       is_visible="true"
       weight="33.333333"
       steps="2"
       helper_size="0"
       apply_no_weight="true"
       apply_with_weight="true"
       only_selected="false" />
    <inkscape:path-effect
       effect="bspline"
       id="path-effect986"
       is_visible="true"
       weight="33.333333"
       steps="2"
       helper_size="0"
       apply_no_weight="true"
       apply_with_weight="true"
       only_selected="false" />
    <inkscape:path-effect
       effect="bspline"
       id="path-effect982"
       is_visible="true"
       weight="33.333333"
       steps="2"
       helper_size="0"
       apply_no_weight="true"
       apply_with_weight="true"
       only_selected="false" />
    <inkscape:path-effect
       effect="bspline"
       id="path-effect978"
       is_visible="true"
       weight="33.333333"
       steps="2"
       helper_size="0"
       apply_no_weight="true"
       apply_with_weight="true"
       only_selected="false" />
    <inkscape:path-effect
       effect="bspline"
       id="path-effect972"
       is_visible="true"
       weight="33.333333"
       steps="2"
       helper_size="0"
       apply_no_weight="true"
       apply_with_weight="true"
       only_selected="false" />
    <inkscape:path-effect
       effect="bspline"
       id="path-effect968"
       is_visible="true"
       weight="33.333333"
       steps="2"
       helper_size="0"
       apply_no_weight="true"
       apply_with_weight="true"
       only_selected="false" />
    <inkscape:path-effect
       effect="bspline"
       id="path-effect964"
       is_visible="true"
       weight="33.333333"
       steps="2"
       helper_size="0"
       apply_no_weight="true"
       apply_with_weight="true"
       only_selected="false" />
    <inkscape:path-effect
       effect="bspline"
       id="path-effect960"
       is_visible="true"
       weight="33.333333"
       steps="2"
       helper_size="0"
       apply_no_weight="true"
       apply_with_weight="true"
       only_selected="false" />
    <inkscape:path-effect
       effect="bspline"
       id="path-effect956"
       is_visible="true"
       weight="33.333333"
       steps="2"
       helper_size="0"
       apply_no_weight="true"
       apply_with_weight="true"
       only_selected="false" />
    <inkscape:path-effect
       effect="bspline"
       id="path-effect952"
       is_visible="true"
       weight="33.333333"
       steps="2"
       helper_size="0"
       apply_no_weight="true"
       apply_with_weight="true"
       only_selected="false" />
    <inkscape:path-effect
       effect="bspline"
       id="path-effect948"
       is_visible="true"
       weight="33.333333"
       steps="2"
       helper_size="0"
       apply_no_weight="true"
       apply_with_weight="true"
       only_selected="false" />
    <inkscape:path-effect
       effect="bspline"
       id="path-effect944"
       is_visible="true"
       weight="33.333333"
       steps="2"
       helper_size="0"
       apply_no_weight="true"
       apply_with_weight="true"
       only_selected="false" />
    <inkscape:path-effect
       effect="bspline"
       id="path-effect929"
       is_visible="true"
       weight="33.333333"
       steps="2"
       helper_size="0"
       apply_no_weight="true"
       apply_with_weight="true"
       only_selected="false" />
    <inkscape:path-effect
       effect="bspline"
       id="path-effect925"
       is_visible="true"
       weight="33.333333"
       steps="2"
       helper_size="0"
       apply_no_weight="true"
       apply_with_weight="true"
       only_selected="false" />
    <inkscape:path-effect
       effect="bspline"
       id="path-effect921"
       is_visible="true"
       weight="33.333333"
       steps="2"
       helper_size="0"
       apply_no_weight="true"
       apply_with_weight="true"
       only_selected="false" />
    <inkscape:path-effect
       effect="bspline"
       id="path-effect917"
       is_visible="true"
       weight="33.333333"
       steps="2"
       helper_size="0"
       apply_no_weight="true"
       apply_with_weight="true"
       only_selected="false" />
    <inkscape:path-effect
       effect="bspline"
       id="path-effect913"
       is_visible="true"
       weight="33.333333"
       steps="2"
       helper_size="0"
       apply_no_weight="true"
       apply_with_weight="true"
       only_selected="false" />
    <inkscape:path-effect
       effect="bspline"
       id="path-effect909"
       is_visible="true"
       weight="33.333333"
       steps="2"
       helper_size="0"
       apply_no_weight="true"
       apply_with_weight="true"
       only_selected="false" />
    <inkscape:path-effect
       effect="bspline"
       id="path-effect905"
       is_visible="true"
       weight="33.333333"
       steps="2"
       helper_size="0"
       apply_no_weight="true"
       apply_with_weight="true"
       only_selected="false" />
    <inkscape:path-effect
       effect="bspline"
       id="path-effect901"
       is_visible="true"
       weight="33.333333"
       steps="2"
       helper_size="0"
       apply_no_weight="true"
       apply_with_weight="true"
       only_selected="false" />
    <inkscape:path-effect
       effect="bspline"
       id="path-effect897"
       is_visible="true"
       weight="33.333333"
       steps="2"
       helper_size="0"
       apply_no_weight="true"
       apply_with_weight="true"
       only_selected="false" />
    <inkscape:path-effect
       effect="bspline"
       id="path-effect893"
       is_visible="true"
       weight="33.333333"
       steps="2"
       helper_size="0"
       apply_no_weight="true"
       apply_with_weight="true"
       only_selected="false" />
    <inkscape:path-effect
       effect="bspline"
       id="path-effect889"
       is_visible="true"
       weight="33.333333"
       steps="2"
       helper_size="0"
       apply_no_weight="true"
       apply_with_weight="true"
       only_selected="false" />
    <inkscape:path-effect
       effect="bspline"
       id="path-effect885"
       is_visible="true"
       weight="33.333333"
       steps="2"
       helper_size="0"
       apply_no_weight="true"
       apply_with_weight="true"
       only_selected="false" />
    <inkscape:path-effect
       effect="bspline"
       id="path-effect881"
       is_visible="true"
       weight="33.333333"
       steps="2"
       helper_size="0"
       apply_no_weight="true"
       apply_with_weight="true"
       only_selected="false" />
    <inkscape:path-effect
       effect="bspline"
       id="path-effect877"
       is_visible="true"
       weight="33.333333"
       steps="2"
       helper_size="0"
       apply_no_weight="true"
       apply_with_weight="true"
       only_selected="false" />
    <inkscape:path-effect
       effect="bspline"
       id="path-effect873"
       is_visible="true"
       weight="33.333333"
       steps="2"
       helper_size="0"
       apply_no_weight="true"
       apply_with_weight="true"
       only_selected="false" />
    <inkscape:path-effect
       effect="bspline"
       id="path-effect858"
       is_visible="true"
       weight="33.333333"
       steps="2"
       helper_size="0"
       apply_no_weight="true"
       apply_with_weight="true"
       only_selected="false" />
    <inkscape:path-effect
       effect="bspline"
       id="path-effect854"
       is_visible="true"
       weight="33.333333"
       steps="2"
       helper_size="0"
       apply_no_weight="true"
       apply_with_weight="true"
       only_selected="false" />
    <inkscape:path-effect
       effect="bspline"
       id="path-effect850"
       is_visible="true"
       weight="33.333333"
       steps="2"
       helper_size="0"
       apply_no_weight="true"
       apply_with_weight="true"
       only_selected="false" />
    <inkscape:path-effect
       effect="bspline"
       id="path-effect846"
       is_visible="true"
       weight="33.333333"
       steps="2"
       helper_size="0"
       apply_no_weight="true"
       apply_with_weight="true"
       only_selected="false" />
    <inkscape:path-effect
       effect="bspline"
       id="path-effect842"
       is_visible="true"
       weight="33.333333"
       steps="2"
       helper_size="0"
       apply_no_weight="true"
       apply_with_weight="true"
       only_selected="false" />
    <inkscape:path-effect
       effect="bspline"
       id="path-effect838"
       is_visible="true"
       weight="33.333333"
       steps="2"
       helper_size="0"
       apply_no_weight="true"
       apply_with_weight="true"
       only_selected="false" />
    <inkscape:path-effect
       effect="bspline"
       id="path-effect834"
       is_visible="true"
       weight="33.333333"
       steps="2"
       helper_size="0"
       apply_no_weight="true"
       apply_with_weight="true"
       only_selected="false" />
    <inkscape:path-effect
       effect="bspline"
       id="path-effect830"
       is_visible="true"
       weight="33.333333"
       steps="2"
       helper_size="0"
       apply_no_weight="true"
       apply_with_weight="true"
       only_selected="false" />
  </defs>
  <sodipodi:namedview
     id="base"
     pagecolor="#ffffff"
     bordercolor="#666666"
     borderopacity="1.0"
     inkscape:pageopacity="0.0"
     inkscape:pageshadow="2"
     inkscape:zoom="2.8"
     inkscape:cx="230.95006"
     inkscape:cy="249.88807"
     inkscape:document-units="px"
     inkscape:current-layer="layer1"
     showgrid="false"
     units="px"
     inkscape:window-width="1920"
     inkscape:window-height="1001"
     inkscape:window-x="-9"
     inkscape:window-y="-9"
     inkscape:window-maximized="1">
    <inkscape:grid
       type="xygrid"
       id="grid826" />
  </sodipodi:namedview>
  <metadata
     id="metadata5">
    <rdf:RDF>
      <cc:Work
         rdf:about="">
        <dc:format>image/svg+xml</dc:format>
        <dc:type
           rdf:resource="http://purl.org/dc/dcmitype/StillImage" />
        <dc:title></dc:title>
      </cc:Work>
    </rdf:RDF>
  </metadata>
  <g
     inkscape:label="圖層 1"
     inkscape:groupmode="layer"
     id="layer1"
     transform="translate(0,-161.53336)">
    <path
       style="fill:#000000;stroke:#000000;stroke-width:0.26458332px;stroke-linecap:butt;stroke-linejoin:miter;stroke-opacity:1;fill-opacity:1"
       d="M 35.939471,191.74927 C 37.010411,191.57618 38.7743,191.70217 41.183716,191.49744 43.593132,191.2927 46.64886,190.75716 50.286667,190.26898 53.924473,189.78079 58.145624,189.33977 62.192979,189.04056 66.240333,188.74134 70.114854,188.58385 74.303929,188.44211 78.493004,188.30038 82.99754,188.17438 86.729963,188.09563 90.462387,188.01689 93.423378,187.98539 95.140014,187.79631 96.85665,187.60723 97.329163,187.26072 97.628231,186.72544 97.9273,186.19016 98.053371,185.46525 98.305406,185.05591 98.557441,184.64656 98.935574,184.55203 99.580812,184.70942 100.22605,184.8668 101.14025,185.27662 102.0221,185.78054 102.90395,186.28446 103.75451,186.883 104.49465,187.65462 105.23479,188.42624 105.86479,189.37124 106.24277,190.34763 106.62076,191.32402 106.74674,192.33189 106.63659,193.05636 106.52644,193.78083 106.18004,194.22171 105.90432,194.82254 105.62861,195.42337 105.39244,196.30055 105.21915,197.19844 105.04587,198.09633 104.91992,199.0724 104.88841,200.25381 104.85689,201.43521 104.91987,202.8207 104.96713,206.72704 105.01438,210.63337 105.04588,217.05779 104.90414,222.61728 104.76241,228.17677 104.44744,232.86978 104.1797,236.72838 103.91196,240.58697 103.69149,243.6106 103.45525,246.33529 103.219,249.05998 102.96704,251.4851 102.77804,254.0681 102.58903,256.65111 102.46306,259.39112 102.33814,261.65914 102.21323,263.92715 102.08508,265.7852 101.84974,267.40381 101.61439,269.02243 101.26619,270.44688 100.76217,272.06923 100.25815,273.69158 99.596836,275.51806 98.888161,276.66784 98.179486,277.81762 97.42367,278.29 96.856448,278.17967 96.289226,278.06934 95.911402,277.37666 95.454716,276.29005 94.99803,275.20344 94.462491,273.72284 94.147528,272.60466 93.832566,271.48648 93.738062,270.73045 93.911407,270.24229 94.084752,269.75414 94.525856,269.53359 95.108223,269.56509 95.690589,269.5966 96.41556,269.88028 96.887984,270.085 97.360408,270.28973 97.580932,270.41574 97.832847,269.70716 98.084762,268.99858 98.368354,267.45458 98.746272,264.65166 99.124191,261.84874 99.596754,257.7847 99.95897,254.55624 100.32119,251.32779 100.57319,248.93376 100.68342,245.62673 100.79365,242.31971 100.76214,238.09847 100.79364,233.76763 100.82514,229.43678 100.91964,224.99528 100.88814,220.31799 100.85664,215.64069 100.69914,210.7267 100.5889,207.10449 100.47866,203.48228 100.41566,201.15131 100.25817,199.29302 100.10068,197.43474 99.848666,196.04868 99.470735,195.04087 99.092803,194.03307 98.588762,193.40302 98.116305,192.83607 97.643848,192.26913 97.202855,191.76514 96.635958,191.32421 96.069062,190.88328 95.376079,190.50529 94.541414,190.36351 93.706749,190.22174 92.730442,190.31622 90.777128,190.42649 88.823814,190.53676 85.895361,190.66271 82.32014,190.85171 78.744919,191.04071 74.524582,191.29267 70.807718,191.63915 67.090854,191.98563 63.878267,192.42657 61.074834,192.82031 58.271402,193.21405 55.877774,193.5605 53.767305,194.04872 51.656836,194.53695 49.830174,195.16683 48.129142,195.6866 46.42811,196.20636 44.853485,196.61577 43.687969,196.85204 42.522454,197.08831 41.766651,197.15129 41.010441,196.91498 40.25423,196.67868 39.498559,196.14341 38.711103,195.65518 37.923646,195.16696 37.104757,194.72602 36.332998,194.26926 35.561239,193.81251 34.836871,193.34009 34.66373,192.86744 34.490588,192.39478 34.868532,191.92235 35.939471,191.74927 Z"
       id="path1003"
       inkscape:connector-curvature="0"
       inkscape:path-effect="#path-effect1005"
       inkscape:original-d="M 35.246279,191.45017 C 37.010431,191.5759 38.77432,191.70189 40.537946,191.82815 43.593094,191.29249 46.648823,190.75695 49.703866,190.22175 53.924449,189.78056 58.1456,189.33954 62.366069,188.89883 66.240323,188.74109 70.114844,188.58359 73.988836,188.42637 78.492997,188.30012 82.997533,188.17412 87.501485,188.04839 90.462384,188.01663 93.423375,187.98513 96.383923,187.95389 96.856617,187.60718 97.329128,187.26067 97.801335,186.91446 97.927512,186.1902 98.053584,185.46529 98.179311,184.7411 98.557395,184.64638 98.935527,184.55184 99.313238,184.45761 100.22619,184.86649 101.14039,185.2763 102.05357,185.68604 102.90416,186.28416 103.75472,186.8827 104.6049,187.48142 105.23509,188.42604 105.86509,189.37104 106.49479,190.31624 106.62105,191.32398 106.74703,192.33185 106.87276,193.34006 106.52647,193.78086 106.18007,194.22173 105.83333,194.66297 105.61296,195.41916 105.39262,196.3006 105.17187,197.11982 105.04609,198.09636 104.92015,199.07243 104.79389,200.04913 104.85717,201.4352 104.92015,202.82069 104.98288,204.20687 105.01465,210.63337 105.04614,217.05779 105.07738,223.48366 104.76265,228.17679 104.44768,232.8698 104.13244,237.56327 103.9122,240.58699 103.69173,243.61062 103.47098,246.6347 103.21923,249.06 102.96727,251.48512 102.71503,253.91074 102.58928,256.65112 102.46331,259.39113 102.33705,262.13172 102.21131,263.92702 102.08533,265.78522 101.95907,267.61237 101.64431,269.02974 101.26638,270.44693 100.91964,271.8646 100.2583,273.69163 99.596985,275.51811 98.935262,277.34526 98.179443,277.81755 97.423624,278.28993 96.667405,278.76267 96.28954,278.06917 95.911718,277.37649 95.533478,276.6838 94.998347,275.20333 94.46281,273.72272 93.927079,272.24258 93.832858,271.48644 93.738354,270.73041 93.643596,269.97472 94.084701,269.75404 94.525807,269.53349 94.966513,269.31326 95.690712,269.59628 96.415686,269.87996 97.139877,270.16371 97.360584,270.28942 97.581112,270.41543 97.801335,270.54169 98.084971,268.99862 98.368562,267.45462 98.65178,265.91148 99.124424,261.84877 99.596985,257.78473 100.06919,253.72175 100.32142,251.32781 100.57342,248.93378 100.82514,246.5402 100.79392,242.31971 100.76241,238.09847 100.73065,233.878 100.8254,229.43679 100.9199,224.99529 101.01413,220.55434 100.85692,215.64068 100.69942,210.72669 100.54166,205.81327 100.47893,203.48227 100.41593,201.1513 100.35267,198.82071 100.10098,197.43468 99.848969,196.04862 99.596721,194.66297 99.093094,194.03284 98.58905,193.40279 98.084818,192.77309 97.64413,192.26888 97.203136,191.76489 96.761901,191.26119 96.069235,190.88296 95.376252,190.50497 94.68303,190.12726 93.706726,190.2215 92.730419,190.31598 91.753714,190.41074 88.823803,190.5365 85.89535,190.66246 82.96577,190.78872 78.744904,191.04046 74.524567,191.29242 70.303569,191.54467 67.090824,191.98541 63.878237,192.42635 60.665174,192.86758 58.27137,193.21383 55.877743,193.56028 53.483629,193.90702 51.656782,194.53679 49.830122,195.16668 48.002973,195.7969 46.428062,196.20618 44.853437,196.61558 43.278272,197.02532 42.522434,197.08807 41.766631,197.15105 41.010415,197.21431 40.254442,196.67838 39.498773,196.14311 38.742557,195.60791 37.923817,195.16664 37.104927,194.7257 36.285713,194.28499 35.56144,193.8122 34.837069,193.33979 34.112349,192.86758 34.490624,192.39481 34.868565,191.92238 35.246279,191.45017 Z" />
    <path
       style="fill:#000000;stroke:#000000;stroke-width:0.26458332px;stroke-linecap:butt;stroke-linejoin:miter;stroke-opacity:1;fill-opacity:1"
       d="M 52.271076,208.22279 C 53.074449,207.73461 55.027324,207.48263 57.783142,206.91571 60.538961,206.34879 64.098771,205.46672 66.933501,204.75803 69.76823,204.04935 71.878782,203.51384 73.343355,203.24614 74.807928,202.97845 75.626996,202.97845 76.382732,203.21463 77.138469,203.45081 77.831649,203.92343 78.048561,204.23161 78.265473,204.53979 77.957903,204.71066 77.217034,204.94712 76.476164,205.18358 75.280568,205.49821 73.721168,205.955 72.161767,206.41179 70.240888,207.0101 67.657785,207.86063 65.074682,208.71116 61.830923,209.81341 59.626,210.5064 57.421078,211.19938 56.255764,211.48283 55.184593,211.35683 54.113423,211.23083 53.137245,210.69551 52.475697,210.06543 51.81415,209.43536 51.467703,208.71097 52.271076,208.22279 Z"
       id="path1007"
       inkscape:connector-curvature="0"
       inkscape:path-effect="#path-effect1009"
       inkscape:original-d="M 51.121278,207.98663 C 53.074419,207.73438 55.027295,207.4824 56.979907,207.23068 60.538913,206.3486 64.098725,205.46653 67.657736,204.58485 69.768182,204.04916 71.878734,203.51365 73.988836,202.97845 74.807928,202.97818 75.626996,202.97818 76.44568,202.97845 77.138677,203.4505 77.831859,203.92312 78.524548,204.39586 78.27285,204.55307 77.957851,204.71057 77.674104,204.86833 76.476115,205.18339 75.280519,205.49802 74.08333,205.81327 72.161714,206.41162 70.240836,207.00993 68.319194,207.60866 65.074627,208.711 61.830868,209.81325 58.586306,210.91595 57.421031,211.19919 56.255719,211.48265 55.090028,211.76639 54.113594,211.23052 53.137414,210.6952 52.160712,210.15999 51.814465,209.43521 51.46802,208.71082 51.121278,207.98663 Z" />
    <path
       style="fill:#000000;stroke:#000000;stroke-width:0.26458332px;stroke-linecap:butt;stroke-linejoin:miter;stroke-opacity:1;fill-opacity:1"
       d="M 59.562975,196.59996 C 60.381937,196.36388 61.610358,196.45838 62.74411,196.78906 63.877862,197.11975 64.917503,197.68683 65.657619,198.30096 66.397735,198.91508 66.838747,199.5766 66.964788,200.28522 67.09083,200.99383 66.901861,201.74971 66.760069,202.96274 66.618278,204.17578 66.523823,205.84449 66.413573,207.48251 66.303322,209.12054 66.177352,210.72667 66.051353,212.09693 65.925355,213.46719 65.799385,214.60092 65.594699,215.37267 65.390013,216.14442 65.106605,216.55379 64.665451,216.79019 64.224297,217.02658 63.626278,217.08953 63.216584,216.67976 62.806889,216.27 62.586509,215.38848 62.271578,213.6406 61.956648,211.89273 61.547086,209.27784 61.421122,207.29348 61.295157,205.30912 61.452659,203.95459 61.405395,202.9468 61.358131,201.93901 61.106092,201.27741 60.610101,200.59215 60.114109,199.90688 59.342263,199.16719 58.854067,198.72623 58.365871,198.28528 58.145387,198.12779 58.24001,197.76533 58.334633,197.40287 58.744012,196.83603 59.562975,196.59996 Z"
       id="path1015"
       inkscape:connector-curvature="0"
       inkscape:path-effect="#path-effect1017"
       inkscape:original-d="M 59.153271,196.26937 C 60.381959,196.3636 61.61038,196.45809 62.838539,196.55285 63.878033,197.11944 64.917671,197.68652 65.956841,198.25374 66.398039,198.91488 66.839052,199.5764 67.279757,200.23812 67.091017,200.99388 66.902046,201.74976 66.712795,202.50598 66.618527,204.17579 66.52407,205.8445 66.429313,207.51416 66.303564,209.12056 66.177593,210.72669 66.051337,212.33336 65.925586,213.46722 65.799617,214.60095 65.673361,215.73514 65.390069,216.14446 65.10666,216.55383 64.822913,216.96357 64.224272,217.02634 63.626253,217.08929 63.027528,217.15255 62.807199,216.26992 62.586819,215.3884 62.366069,214.50672 61.956944,211.89268 61.547385,209.27779 61.137646,206.66372 61.295388,205.30915 61.452892,203.95462 61.610115,202.60047 61.358451,201.93889 61.106412,201.27729 60.854164,200.6161 60.098641,199.92302 59.342522,199.16692 58.586306,198.44273 58.366083,198.28498 58.1456,198.12749 57.924848,197.97026 58.33468,197.4029 58.744061,196.83607 59.153271,196.26937 Z" />
    <path
       style="fill:#000000;stroke:#000000;stroke-width:0.26458332px;stroke-linecap:butt;stroke-linejoin:miter;stroke-opacity:1;fill-opacity:1"
       d="M 43.372891,220.01874 C 44.034475,219.7669 45.357392,219.8299 47.163709,219.57514 48.970026,219.32039 51.216082,218.75888 53.685044,218.22111 56.154006,217.68335 58.775599,217.18399 60.980356,216.79029 63.185113,216.39658 64.949206,216.11307 66.88615,215.84537 68.823095,215.57766 70.933821,215.32563 72.965315,214.96342 74.99681,214.6012 76.949958,214.12867 78.28857,213.76644 79.627182,213.40422 80.351753,213.15219 81.186216,213.02626 82.020678,212.90032 82.966035,212.90032 83.832044,213.08928 84.698052,213.27824 85.485724,213.65633 85.910872,214.09712 86.336019,214.53792 86.399024,215.04196 86.178577,215.53027 85.95813,216.01858 85.454388,216.49084 84.58784,216.66419 83.721292,216.83753 82.493534,216.71161 81.516994,216.53836 80.540454,216.36511 79.816137,216.14467 78.839619,216.11314 77.863101,216.08162 76.634962,216.23907 74.445476,216.56986 72.25599,216.90064 69.106944,217.40449 66.90202,217.73523 64.697096,218.06598 63.437296,218.22345 61.751918,218.64872 60.06654,219.07399 57.956666,219.76679 55.735879,220.4913 53.515092,221.21581 51.184592,221.97165 49.672631,222.60158 48.16067,223.23152 47.467809,223.73542 46.680706,223.97178 45.893604,224.20815 45.010918,224.17662 44.339918,223.71639 43.668917,223.25616 43.183726,222.31812 42.947516,221.57787 42.711307,220.83762 42.711307,220.27059 43.372891,220.01874 Z"
       id="path1019"
       inkscape:connector-curvature="0"
       inkscape:path-effect="#path-effect1021"
       inkscape:original-d="M 42.711307,219.70389 C 44.034488,219.76662 45.357405,219.82962 46.680057,219.89288 48.979241,219.35725 51.216036,218.75869 53.483629,218.19199 56.160858,217.71932 58.77556,217.18379 61.421129,216.68008 63.185079,216.39637 64.94917,216.11285 66.712795,215.82964 68.823067,215.57743 70.933793,215.3254 73.043896,215.07368 74.996766,214.60102 76.949913,214.12848 78.902527,213.65627 79.627131,213.40407 80.3517,213.15204 81.075888,212.90032 82.020678,212.90006 82.966035,212.90006 83.910711,212.90032 84.698203,213.27793 85.485876,213.65601 86.273062,214.03425 86.336313,214.53788 86.399318,215.04192 86.462048,215.54616 85.958117,216.01857 85.454377,216.49083 84.950145,216.96357 83.721322,216.83724 82.493563,216.71132 81.264878,216.58559 80.540549,216.3648 79.816234,216.14435 79.091513,215.92413 77.863072,216.08139 76.634934,216.23885 75.406246,216.3966 72.255956,216.90043 69.106909,217.40427 65.956841,217.90851 64.697067,218.06575 63.437267,218.22322 62.17708,218.38098 60.066486,219.07383 57.956611,219.76662 55.84598,220.45985 53.51504,221.21565 51.184538,221.97148 48.853421,222.7277 48.160633,223.23147 47.467772,223.73537 46.77455,224.23961 45.89249,224.23934 45.010928,224.17634 44.128717,224.14511 43.656375,223.26265 43.184043,222.31796 42.711307,221.40478 42.711572,220.83762 42.711572,220.27059 42.711307,219.70389 Z" />
    <path
       style="fill:#000000;stroke:#000000;stroke-width:0.26458332px;stroke-linecap:butt;stroke-linejoin:miter;stroke-opacity:1;fill-opacity:1"
       d="M 59.358118,221.34165 C 58.649434,221.56196 58.239959,222.5699 57.704444,223.46773 57.168929,224.36556 56.507681,225.15276 55.751595,225.90887 54.99551,226.66497 54.145372,227.38916 53.258437,228.05922 52.371502,228.72929 51.405062,229.37358 50.459968,230.01939 49.514874,230.6652 48.570243,231.32645 47.656648,231.68878 46.743054,232.05112 45.861391,232.11409 45.121076,232.12985 44.38076,232.14561 43.782489,232.11412 43.278443,232.30306 42.774397,232.49199 42.365095,232.90129 42.255946,233.44118 42.146796,233.98107 42.333283,234.63378 42.749548,235.24038 43.165813,235.84697 43.845258,236.42935 44.679996,236.91758 45.514733,237.40581 46.522704,237.8153 47.656637,237.81525 48.790571,237.8152 50.050662,237.40567 51.420639,236.91751 52.790617,236.42936 54.271398,235.86225 56.082302,235.0749 57.893206,234.28754 60.035534,233.27939 61.641854,232.58648 63.248174,231.89357 64.319264,231.51553 65.059378,231.1218 65.799492,230.72806 66.20909,230.31846 66.335001,230.03516 66.460913,229.75186 66.303317,229.59427 65.89397,229.49978 65.484623,229.40529 64.823165,229.37379 63.988307,229.64154 63.153449,229.90929 62.145895,230.47604 60.885738,230.94862 59.625581,231.4212 58.114148,231.79906 56.665091,232.09832 55.216034,232.39759 53.830406,232.61803 53.074384,232.71257 52.318362,232.8071 52.192398,232.77561 52.784229,232.24526 53.376061,231.71491 54.712341,230.66497 55.877655,229.73587 57.042969,228.80677 58.051127,227.98764 58.983361,227.36408 59.915596,226.74051 60.822985,226.28682 61.608191,226.01945 62.393396,225.75208 63.090818,225.65698 63.484411,225.40495 63.878004,225.15292 63.972539,224.74327 63.689267,224.19246 63.405996,223.64166 62.744038,222.94818 61.909393,222.31825 61.074749,221.68832 60.066802,221.12135 59.358118,221.34165 Z"
       id="path1023"
       inkscape:connector-curvature="0"
       inkscape:path-effect="#path-effect1025"
       inkscape:original-d="M 59.058778,220.55434 C 58.649568,221.56201 58.240094,222.56995 57.830355,223.57815 57.168952,224.36558 56.507703,225.15278 55.84598,225.9405 54.99549,226.66495 54.145352,227.38914 53.29464,228.11386 52.381158,228.74377 51.405023,229.37352 50.45982,230.00374 49.514837,230.66515 48.570203,231.32639 47.624998,231.98812 46.743036,232.05087 45.861373,232.11384 44.979164,232.17711 44.380775,232.14533 43.782504,232.11384 43.183779,232.08261 42.774397,232.49199 42.365094,232.90129 41.955355,233.31103 42.176248,233.97266 42.333596,234.63369 42.52232,235.29541 43.152711,235.86226 43.845502,236.42907 44.506695,236.9963 45.514861,237.4055 46.522831,237.81499 47.530504,238.22472 48.790519,237.81504 50.05061,237.40551 51.310265,236.9963 52.790564,236.42922 54.271344,235.86211 55.751486,235.29541 57.893153,234.28743 60.035479,233.27927 62.17708,232.2716 63.248119,231.89341 64.31921,231.51538 65.389878,231.13767 65.799496,230.72806 66.209092,230.31846 66.618299,229.90925 66.461176,229.7516 66.303585,229.594 66.14583,229.43678 65.484636,229.40502 64.823178,229.37352 64.161455,229.34228 63.153401,229.9092 62.145846,230.47595 61.137646,231.04318 59.625534,231.42101 58.114102,231.79887 56.601931,232.17711 55.215999,232.39737 53.830371,232.61781 52.444195,232.83856 52.318438,232.8068 52.192476,232.7753 52.066216,232.74407 53.391361,231.73438 54.712314,230.66494 56.034966,229.62577 57.042947,228.80674 58.051104,227.98761 59.058778,227.16892 59.909244,226.72781 60.82293,226.28671 61.704611,225.84601 62.397581,225.78277 63.090787,225.65675 63.783479,225.56252 63.878197,225.15296 63.97273,224.74331 64.066962,224.3341 63.406268,223.6414 62.74431,222.94792 62.082587,222.25523 61.074924,221.68801 60.066978,221.12104 59.058778,220.55434 Z" />
    <path
       style="fill:#000000;stroke:#000000;stroke-width:0.26458332px;stroke-linecap:butt;stroke-linejoin:miter;stroke-opacity:1;fill-opacity:1"
       d="M 70.224928,221.51495 C 70.114526,221.81409 70.303517,222.41256 70.42759,222.9483 70.551664,223.48404 70.618521,224.0189 70.461066,224.5387 70.303612,225.05849 69.925803,225.59372 69.138023,226.64935 68.350243,227.70498 67.153993,229.27899 65.941205,230.85404 64.728418,232.42909 63.500222,234.0037 61.814894,235.94105 60.129566,237.8784 57.988099,240.17733 55.704358,242.47683 53.420616,244.77633 50.995558,247.07541 49.089867,248.69763 47.184175,250.31986 45.798415,251.26469 44.995138,251.91039 44.191862,252.55609 43.971426,252.90249 44.034511,253.18625 44.097597,253.47001 44.443763,253.6903 45.176832,253.44283 45.909902,253.19536 47.058342,252.46163 49.010833,251.04449 50.963325,249.62736 53.735909,247.51641 56.648739,245.04335 59.56157,242.57029 62.68132,239.67338 65.232558,237.10638 67.783796,234.53938 69.799843,232.27132 71.344077,230.53981 72.888312,228.80829 74.020587,227.54662 74.618947,226.7277 75.217308,225.90879 75.311824,225.49922 75.044279,224.88545 74.776734,224.27169 74.146295,223.45212 73.437663,222.80646 72.72903,222.16081 71.94154,221.68832 71.343152,221.45206 70.744764,221.2158 70.33533,221.2158 70.224928,221.51495 Z"
       id="path1027"
       inkscape:connector-curvature="0"
       inkscape:path-effect="#path-effect1029"
       inkscape:original-d="M 69.925591,221.2158 C 70.114844,221.81399 70.303834,222.41246 70.492556,223.01118 70.555833,223.48352 70.618812,224.01886 70.681545,224.52309 70.303662,225.05853 69.925855,225.59376 69.547615,226.12949 68.350283,227.70501 67.15403,229.27902 65.956841,230.85419 64.728455,232.42912 63.500261,234.00373 62.271573,235.57889 60.129576,237.87841 57.98811,240.17734 55.84598,242.47696 53.420608,244.77632 50.995551,247.0754 48.569938,249.37502 47.184136,250.3198 45.798378,251.26464 44.412199,252.20984 44.191931,252.55613 43.971494,252.90253 43.750741,253.24928 44.097792,253.4697 44.443963,253.68998 44.790175,253.91074 45.924145,253.21765 47.058297,252.46156 48.191963,251.73737 50.963298,249.62732 53.735877,247.51637 56.507438,245.40627 59.562685,242.57149 62.681313,239.67337 65.767854,236.80731 67.783812,234.53939 69.799863,232.27134 71.815472,230.00374 72.886537,228.8067 74.0206,227.54663 75.122764,226.31848 75.2175,225.90883 75.312017,225.49926 75.406246,225.09005 74.777027,224.27146 74.146591,223.45189 73.516365,222.63321 72.729216,222.1605 71.941729,221.688 71.154014,221.2158 70.744764,221.21553 70.33533,221.21553 69.925591,221.2158 Z" />
    <path
       style="fill:#000000;stroke:#000000;stroke-width:0.26458332px;stroke-linecap:butt;stroke-linejoin:miter;stroke-opacity:1;fill-opacity:1"
       d="M 78.083664,226.17673 C 77.737063,226.31843 78.083541,226.7909 78.27254,227.2633 78.461539,227.73569 78.493034,228.20811 78.430034,228.854 78.367035,229.4999 78.209627,230.31842 77.705613,231.09029 77.2016,231.86215 76.351467,232.58634 75.689946,233.01166 75.028425,233.43698 74.556112,233.56293 74.225228,233.8622 73.894344,234.16148 73.705479,234.63363 73.863098,235.05916 74.020717,235.48468 74.524345,235.86241 75.485111,235.83086 76.445877,235.79932 77.863406,235.35831 79.375129,234.94889 80.886851,234.53947 82.493608,234.16141 83.564494,233.86217 84.63538,233.56293 85.17095,233.3424 85.29684,232.87014 85.422729,232.39788 85.139078,231.67299 84.650937,230.83844 84.162796,230.00388 83.469706,229.05876 82.745307,228.30286 82.020908,227.54696 81.26492,226.97997 80.36728,226.60199 79.469641,226.22401 78.430265,226.03503 78.083664,226.17673 Z"
       id="path1031"
       inkscape:connector-curvature="0"
       inkscape:path-effect="#path-effect1033"
       inkscape:original-d="M 77.390621,225.84601 C 77.737363,226.31821 78.083843,226.79068 78.430055,227.26342 78.461821,227.73567 78.493317,228.20809 78.524548,228.68083 78.367243,229.49994 78.209835,230.31846 78.052079,231.13767 77.201582,231.86213 76.351452,232.58632 75.500739,233.31103 75.028376,233.4368 74.556063,233.56275 74.08333,233.68901 73.894481,234.16153 73.705618,234.63369 73.516365,235.10642 74.020938,235.48439 74.524567,235.86211 75.02827,236.24035 76.445826,235.79915 77.863355,235.35814 79.280503,234.91743 80.886807,234.53928 82.493563,234.16122 84.099697,233.78351 84.635325,233.5628 85.170895,233.34227 85.706096,233.12205 85.423048,232.39776 85.139396,231.67287 84.855652,230.94868 84.163092,230.00366 83.470002,229.05854 82.776781,228.11386 82.021131,227.54666 81.265142,226.97967 80.508923,226.41297 79.469696,226.22371 78.43032,226.03473 77.390621,225.84601 Z" />
    <path
       style="fill:#000000;stroke:#000000;stroke-width:0.26458332px;stroke-linecap:butt;stroke-linejoin:miter;stroke-opacity:1;fill-opacity:1"
       d="M 67.216852,241.26421 C 68.03594,241.09107 69.831326,241.31156 71.878529,241.72101 73.925732,242.13045 76.22538,242.72899 77.926229,243.16995 79.627078,243.61091 80.729595,243.89441 81.658671,244.25661 82.587747,244.6188 83.343827,245.05984 84.146951,245.6425 84.950075,246.22516 85.800611,246.94969 86.178598,247.67398 86.556584,248.39827 86.462088,249.12274 86.22591,249.61106 85.989733,250.09937 85.611908,250.35126 84.839712,250.4616 84.067517,250.57193 82.90303,250.54046 81.879166,250.28844 80.855302,250.03643 79.973556,249.56406 78.68206,248.96556 77.390563,248.36706 75.689857,247.64269 74.319616,246.9182 72.949375,246.1937 71.910019,245.4693 70.697334,244.74484 69.48465,244.02037 68.098806,243.29596 67.327025,242.65011 66.555243,242.00427 66.397765,241.43735 67.216852,241.26421 Z"
       id="path1035"
       inkscape:connector-curvature="0"
       inkscape:path-effect="#path-effect1037"
       inkscape:original-d="M 66.240323,240.87056 C 68.035976,241.09078 69.831362,241.31127 71.626486,241.53202 73.925813,242.13014 76.22546,242.72868 78.524548,243.3274 79.627157,243.6106 80.729676,243.8941 81.83184,244.17785 82.587932,244.61848 83.34401,245.05953 84.099697,245.50077 84.950317,246.22488 85.800854,246.94941 86.651037,247.67413 86.556811,248.3983 86.462313,249.12277 86.367555,249.84749 85.98969,250.09931 85.611868,250.3512 85.233627,250.60345 84.067524,250.57166 82.903037,250.54018 81.737347,250.50895 80.855472,250.03611 79.973724,249.56375 79.091513,249.09154 77.3907,248.36674 75.689993,247.64237 73.988836,246.91818 72.949587,246.1934 71.91023,245.469 70.870531,244.74481 69.484813,244.02006 68.098971,243.29564 66.712795,242.57145 66.555558,242.00418 66.398078,241.43726 66.240323,240.87056 Z" />
    <path
       style="fill:#000000;stroke:#000000;stroke-width:0.26458332px;stroke-linecap:butt;stroke-linejoin:miter;stroke-opacity:1;fill-opacity:1"
       d="M 61.531511,241.5478 C 62.334633,241.87854 63.153584,242.41401 63.83072,243.04389 64.507857,243.67378 65.043365,244.39829 65.389844,245.12269 65.736324,245.8471 65.893803,246.5715 65.95682,247.45355 66.019838,248.3356 65.988348,249.37475 65.846599,250.54033 65.70485,251.70591 65.452932,252.99699 65.200914,254.39883 64.948896,255.80067 64.696972,257.31222 64.460788,258.24145 64.224604,259.17067 64.004161,259.51708 63.799272,259.62744 63.594383,259.7378 63.405562,259.61192 63.279525,258.80834 63.153488,258.00475 63.090513,256.52482 63.011776,254.74536 62.933039,252.9659 62.838528,250.88667 62.649542,249.15439 62.460556,247.42211 62.177039,246.03603 61.862087,245.10695 61.547135,244.17787 61.20061,243.70534 60.791233,243.35892 60.381855,243.0125 59.909338,242.79199 59.625769,242.41382 59.3422,242.03564 59.247728,241.5003 59.594177,241.29567 59.940626,241.09103 60.728388,241.21707 61.531511,241.5478 Z"
       id="path1039"
       inkscape:connector-curvature="0"
       inkscape:path-effect="#path-effect1041"
       inkscape:original-d="M 61.515622,241.34303 C 62.334835,241.87823 63.153784,242.4137 63.972466,242.94943 64.508157,243.67356 65.043663,244.39807 65.578865,245.12279 65.736631,245.84703 65.894111,246.57143 66.051337,247.29615 66.020095,248.33561 65.988604,249.37476 65.956841,250.41446 65.705055,251.70595 65.453138,252.99703 65.200889,254.28871 64.949112,255.80071 64.697186,257.31226 64.444938,258.82443 64.224672,259.17071 64.004229,259.51712 63.783479,259.86386 63.594588,259.73749 63.405768,259.61161 63.216514,259.48589 63.153763,258.00474 63.090787,256.52481 63.027528,255.04466 62.933312,252.96589 62.838803,250.88666 62.744045,248.80806 62.460862,247.42205 62.177345,246.03597 61.893598,244.65032 61.547435,244.17765 61.200905,243.70512 60.854164,243.23291 60.382004,243.01218 59.909487,242.79167 59.436754,242.57145 59.342501,242.03559 59.248029,241.50025 59.153271,240.96505 59.940674,241.09073 60.728436,241.21677 61.515622,241.34303 Z" />
    <path
       style="fill:#000000;stroke:#000000;stroke-width:0.26458332px;stroke-linecap:butt;stroke-linejoin:miter;stroke-opacity:1;fill-opacity:1"
       d="M 40.238872,262.22606 C 41.357167,261.84822 43.499033,261.75373 45.703757,261.5805 47.90848,261.40727 50.176628,261.15525 53.089966,260.8088 56.003305,260.46235 59.563038,260.02132 63.106418,259.59611 66.649798,259.17091 70.177869,258.7614 72.83938,258.41493 75.500891,258.06845 77.296426,257.78495 78.72948,257.64323 80.162534,257.50151 81.233644,257.50151 82.49336,257.62749 83.753076,257.75347 85.20234,258.00551 86.40731,258.25552 87.612279,258.50552 88.604099,258.76147 89.218168,259.13933 89.832236,259.51718 90.08427,260.02125 90.10009,260.52516 90.115911,261.02908 89.895472,261.53293 89.47014,261.91109 89.044807,262.28924 88.415246,262.54107 87.454192,262.61986 86.493137,262.69865 85.202372,262.6042 83.847811,262.4467 82.49325,262.2892 81.076107,262.06876 79.611361,261.98999 78.146614,261.91123 76.634945,261.97422 74.256552,262.11597 71.87816,262.25773 68.634454,262.47817 66.461023,262.54119 64.287592,262.6042 63.185256,262.50971 61.862205,262.6357 60.539155,262.76169 58.99609,263.10809 57.105984,263.50186 55.215878,263.89564 52.979967,264.33652 51.137241,264.809 49.294515,265.28148 47.845802,265.78538 46.617256,266.10041 45.38871,266.41544 44.380997,266.5414 43.451574,266.35238 42.52215,266.16336 41.671951,265.65954 40.931712,265.2028 40.191472,264.74606 39.56157,264.33662 39.293831,263.80095 39.026092,263.26528 39.120577,262.60389 40.238872,262.22606 Z"
       id="path1043"
       inkscape:connector-curvature="0"
       inkscape:path-effect="#path-effect1045"
       inkscape:original-d="M 39.215029,261.94273 C 41.357156,261.84797 43.499022,261.75348 45.640623,261.65925 47.908454,261.40703 50.176602,261.15502 52.444195,260.9033 56.003277,260.46212 59.56301,260.02109 63.122021,259.58038 66.649771,259.17067 70.177842,258.76117 73.705354,258.35196 75.500856,258.06823 77.296392,257.78473 79.091513,257.50151 80.162534,257.50125 81.233644,257.50125 82.304312,257.50151 83.753128,257.75317 85.202393,258.00521 86.651037,258.25746 87.627598,258.44616 88.604178,258.76117 89.580353,259.01341 89.832554,259.51702 90.084585,260.02109 90.336305,260.52532 90.116036,261.02913 89.895599,261.53299 89.674846,262.03722 89.044752,262.2891 88.415192,262.54093 87.784965,262.79318 86.493158,262.69837 85.202393,262.60392 83.910711,262.50969 82.493296,262.2889 81.076153,262.06846 79.658479,261.84824 78.146604,261.91098 76.634934,261.97396 75.122764,262.03722 71.878144,262.25749 68.634437,262.47793 65.389878,262.69868 64.287616,262.60392 63.18528,262.50943 62.082587,262.4152 60.539111,262.76149 58.996045,263.10789 57.452379,263.45464 55.215837,263.89543 52.979926,264.33631 50.7433,264.77755 49.29446,265.28132 47.845747,265.78522 46.396574,266.28946 45.388681,266.41521 44.380968,266.54117 43.372765,266.66743 42.522336,266.16305 41.672137,265.65923 40.821425,265.15553 40.191672,264.74575 39.561771,264.33631 38.931546,263.9271 39.026315,263.26531 39.120798,262.60392 39.215029,261.94273 Z" />
    <path
       style="fill:#000000;stroke:#000000;stroke-width:0.26458332px;stroke-linecap:butt;stroke-linejoin:miter;stroke-opacity:1;fill-opacity:1"
       d="M 27.293243,203.30908 C 28.190862,203.45097 29.639772,204.01794 30.820815,204.91552 32.001859,205.8131 32.915394,207.04165 33.498108,208.33301 34.080822,209.62437 34.332798,210.97874 34.443059,212.82152 34.553321,214.6643 34.521827,216.9948 34.39765,219.08972 34.273474,221.18465 34.049388,223.10538 33.876131,224.93241 33.702875,226.75944 33.576903,228.52305 33.498148,230.55486 33.419392,232.58668 33.387899,234.88567 33.293409,236.80713 33.198918,238.72859 33.041446,240.27181 32.91544,241.7681 32.789433,243.26439 32.694958,244.71303 32.521697,246.88668 32.348437,249.06032 32.096502,251.95757 32.08074,254.57205 32.064977,257.18653 32.285441,259.51715 32.600429,261.48588 32.915418,263.45461 33.324852,265.06085 33.797379,266.11616 34.269907,267.17146 34.805312,267.67538 35.183258,268.30524 35.561204,268.9351 35.781696,269.69107 35.687327,270.22655 35.592958,270.76202 35.183577,271.07693 34.616297,271.14 34.049017,271.20306 33.32508,271.01421 32.647683,270.46282 31.970287,269.91144 31.340487,268.99823 30.568813,267.86434 29.79714,266.73045 28.883641,265.37596 28.300925,264.39949 27.71821,263.42303 27.466214,262.82454 27.670985,261.8639 27.875756,260.90327 28.53736,259.58006 29.088474,257.86368 29.639588,256.1473 30.080667,254.03642 30.332618,251.80025 30.584569,249.56408 30.647575,247.20138 30.67907,244.08331 30.710564,240.96523 30.710564,237.09053 30.663317,233.2794 30.61607,229.46828 30.52157,225.71976 30.631823,222.53853 30.742076,219.3573 31.057077,216.74279 31.072805,214.72704 31.088532,212.71129 30.805018,211.29372 30.521551,210.31737 30.238084,209.34103 29.954564,208.80549 29.545136,208.01812 29.135708,207.23076 28.600146,206.19114 27.93879,205.43529 27.277435,204.67943 26.489906,204.20692 26.269544,203.82878 26.049183,203.45065 26.395624,203.1672 27.293243,203.30908 Z"
       id="path1047"
       inkscape:connector-curvature="0"
       inkscape:path-effect="#path-effect1049"
       inkscape:original-d="M 26.741815,202.88395 C 28.190988,203.45065 29.639896,204.01762 31.08854,204.58485 32.00216,205.81288 32.915689,207.04143 33.828867,208.27011 34.081126,209.62431 34.333099,210.97868 34.584821,212.33336 34.553581,214.6643 34.522088,216.9948 34.490325,219.32592 34.270078,221.18425 34.049619,223.10541 33.828867,224.99556 33.703121,226.75946 33.577147,228.52307 33.450891,230.28722 33.419651,232.58668 33.388161,234.88567 33.356398,237.18529 33.199153,238.72861 33.041681,240.27183 32.883926,241.8155 32.789679,243.26441 32.695204,244.71305 32.600446,246.16222 32.348676,249.06034 32.09674,251.95759 31.844492,254.85568 32.065265,257.1865 32.285729,259.51712 32.50595,261.84824 32.915731,263.45453 33.325163,265.06077 33.734373,266.66743 34.270165,267.17119 34.805571,267.6751 35.340772,268.17934 35.56152,268.93501 35.78201,269.69098 36.002231,270.44719 35.592928,270.76198 35.183546,271.07689 34.773807,271.39214 34.049098,271.20275 33.325163,271.01389 32.600446,270.82517 31.970589,269.91123 31.340789,268.99802 30.710564,268.08484 29.797442,266.73025 28.883945,265.37575 27.970238,264.0216 27.718529,263.4229 27.466532,262.82441 27.214284,262.22621 27.875864,260.90332 28.537465,259.58011 29.198658,258.25746 29.63979,256.14734 30.080869,254.03646 30.521575,251.92636 30.584826,249.56409 30.647832,247.20139 30.710564,244.83931 30.710829,240.96523 30.710829,237.09053 30.710564,233.21654 30.616341,229.46827 30.52184,225.71975 30.427082,221.97175 30.742304,219.35733 31.057306,216.74282 31.372023,214.12874 31.088836,212.71123 30.805322,211.29366 30.521575,209.87651 30.238399,209.34086 29.954877,208.80532 29.67113,208.27011 29.136026,207.2306 28.600462,206.19098 28.064731,205.15181 27.277622,204.67912 26.490095,204.2066 25.70238,203.7344 26.049157,203.45062 26.395601,203.16717 26.741815,202.88395 Z" />
  </g>
</svg>
