<?xml version="1.0" encoding="UTF-8" standalone="no"?>
<!-- Created with Inkscape (http://www.inkscape.org/) -->

<svg
   xmlns:dc="http://purl.org/dc/elements/1.1/"
   xmlns:cc="http://creativecommons.org/ns#"
   xmlns:rdf="http://www.w3.org/1999/02/22-rdf-syntax-ns#"
   xmlns:svg="http://www.w3.org/2000/svg"
   xmlns="http://www.w3.org/2000/svg"
   xmlns:sodipodi="http://sodipodi.sourceforge.net/DTD/sodipodi-0.dtd"
   xmlns:inkscape="http://www.inkscape.org/namespaces/inkscape"
   width="512"
   height="512"
   viewBox="0 0 512 512"
   version="1.1"
   id="svg8"
   inkscape:version="0.92.4 (5da689c313, 2019-01-14)"
   sodipodi:docname="U+62DB.svg">
  <defs
     id="defs2">
    <inkscape:path-effect
       effect="bspline"
       id="path-effect4866"
       is_visible="true"
       weight="33.333333"
       steps="2"
       helper_size="0"
       apply_no_weight="true"
       apply_with_weight="true"
       only_selected="false" />
    <inkscape:path-effect
       effect="bspline"
       id="path-effect4862"
       is_visible="true"
       weight="33.333333"
       steps="2"
       helper_size="0"
       apply_no_weight="true"
       apply_with_weight="true"
       only_selected="false" />
    <inkscape:path-effect
       effect="bspline"
       id="path-effect4858"
       is_visible="true"
       weight="33.333333"
       steps="2"
       helper_size="0"
       apply_no_weight="true"
       apply_with_weight="true"
       only_selected="false" />
    <inkscape:path-effect
       effect="bspline"
       id="path-effect4854"
       is_visible="true"
       weight="33.333333"
       steps="2"
       helper_size="0"
       apply_no_weight="true"
       apply_with_weight="true"
       only_selected="false" />
    <inkscape:path-effect
       effect="bspline"
       id="path-effect4850"
       is_visible="true"
       weight="33.333333"
       steps="2"
       helper_size="0"
       apply_no_weight="true"
       apply_with_weight="true"
       only_selected="false" />
    <inkscape:path-effect
       effect="bspline"
       id="path-effect4846"
       is_visible="true"
       weight="33.333333"
       steps="2"
       helper_size="0"
       apply_no_weight="true"
       apply_with_weight="true"
       only_selected="false" />
    <inkscape:path-effect
       effect="bspline"
       id="path-effect4842"
       is_visible="true"
       weight="33.333333"
       steps="2"
       helper_size="0"
       apply_no_weight="true"
       apply_with_weight="true"
       only_selected="false" />
    <inkscape:path-effect
       effect="bspline"
       id="path-effect4827"
       is_visible="true"
       weight="33.333333"
       steps="2"
       helper_size="0"
       apply_no_weight="true"
       apply_with_weight="true"
       only_selected="false" />
    <inkscape:path-effect
       effect="bspline"
       id="path-effect4823"
       is_visible="true"
       weight="33.333333"
       steps="2"
       helper_size="0"
       apply_no_weight="true"
       apply_with_weight="true"
       only_selected="false" />
    <inkscape:path-effect
       effect="bspline"
       id="path-effect4819"
       is_visible="true"
       weight="33.333333"
       steps="2"
       helper_size="0"
       apply_no_weight="true"
       apply_with_weight="true"
       only_selected="false" />
    <inkscape:path-effect
       effect="bspline"
       id="path-effect4815"
       is_visible="true"
       weight="33.333333"
       steps="2"
       helper_size="0"
       apply_no_weight="true"
       apply_with_weight="true"
       only_selected="false" />
    <inkscape:path-effect
       effect="bspline"
       id="path-effect4811"
       is_visible="true"
       weight="33.333333"
       steps="2"
       helper_size="0"
       apply_no_weight="true"
       apply_with_weight="true"
       only_selected="false" />
    <inkscape:path-effect
       effect="bspline"
       id="path-effect4807"
       is_visible="true"
       weight="33.333333"
       steps="2"
       helper_size="0"
       apply_no_weight="true"
       apply_with_weight="true"
       only_selected="false" />
    <inkscape:path-effect
       effect="bspline"
       id="path-effect4803"
       is_visible="true"
       weight="33.333333"
       steps="2"
       helper_size="0"
       apply_no_weight="true"
       apply_with_weight="true"
       only_selected="false" />
    <inkscape:path-effect
       effect="bspline"
       id="path-effect4799"
       is_visible="true"
       weight="33.333333"
       steps="2"
       helper_size="0"
       apply_no_weight="true"
       apply_with_weight="true"
       only_selected="false" />
    <inkscape:path-effect
       effect="bspline"
       id="path-effect4795"
       is_visible="true"
       weight="33.333333"
       steps="2"
       helper_size="0"
       apply_no_weight="true"
       apply_with_weight="true"
       only_selected="false" />
    <inkscape:path-effect
       effect="bspline"
       id="path-effect4791"
       is_visible="true"
       weight="33.333333"
       steps="2"
       helper_size="0"
       apply_no_weight="true"
       apply_with_weight="true"
       only_selected="false" />
    <inkscape:path-effect
       effect="bspline"
       id="path-effect4787"
       is_visible="true"
       weight="33.333333"
       steps="2"
       helper_size="0"
       apply_no_weight="true"
       apply_with_weight="true"
       only_selected="false" />
    <inkscape:path-effect
       effect="bspline"
       id="path-effect4783"
       is_visible="true"
       weight="33.333333"
       steps="2"
       helper_size="0"
       apply_no_weight="true"
       apply_with_weight="true"
       only_selected="false" />
    <inkscape:path-effect
       effect="bspline"
       id="path-effect4779"
       is_visible="true"
       weight="33.333333"
       steps="2"
       helper_size="0"
       apply_no_weight="true"
       apply_with_weight="true"
       only_selected="false" />
    <inkscape:path-effect
       effect="bspline"
       id="path-effect4775"
       is_visible="true"
       weight="33.333333"
       steps="2"
       helper_size="0"
       apply_no_weight="true"
       apply_with_weight="true"
       only_selected="false" />
    <inkscape:path-effect
       effect="bspline"
       id="path-effect4771"
       is_visible="true"
       weight="33.333333"
       steps="2"
       helper_size="0"
       apply_no_weight="true"
       apply_with_weight="true"
       only_selected="false" />
    <inkscape:path-effect
       effect="bspline"
       id="path-effect4767"
       is_visible="true"
       weight="33.333333"
       steps="2"
       helper_size="0"
       apply_no_weight="true"
       apply_with_weight="true"
       only_selected="false" />
    <inkscape:path-effect
       effect="bspline"
       id="path-effect4763"
       is_visible="true"
       weight="33.333333"
       steps="2"
       helper_size="0"
       apply_no_weight="true"
       apply_with_weight="true"
       only_selected="false" />
    <inkscape:path-effect
       effect="bspline"
       id="path-effect4759"
       is_visible="true"
       weight="33.333333"
       steps="2"
       helper_size="0"
       apply_no_weight="true"
       apply_with_weight="true"
       only_selected="false" />
    <inkscape:path-effect
       effect="bspline"
       id="path-effect4755"
       is_visible="true"
       weight="33.333333"
       steps="2"
       helper_size="0"
       apply_no_weight="true"
       apply_with_weight="true"
       only_selected="false" />
    <inkscape:path-effect
       effect="bspline"
       id="path-effect4751"
       is_visible="true"
       weight="33.333333"
       steps="2"
       helper_size="0"
       apply_no_weight="true"
       apply_with_weight="true"
       only_selected="false" />
    <inkscape:path-effect
       effect="bspline"
       id="path-effect4747"
       is_visible="true"
       weight="33.333333"
       steps="2"
       helper_size="0"
       apply_no_weight="true"
       apply_with_weight="true"
       only_selected="false" />
    <inkscape:path-effect
       effect="bspline"
       id="path-effect4743"
       is_visible="true"
       weight="33.333333"
       steps="2"
       helper_size="0"
       apply_no_weight="true"
       apply_with_weight="true"
       only_selected="false" />
    <inkscape:path-effect
       effect="bspline"
       id="path-effect4739"
       is_visible="true"
       weight="33.333333"
       steps="2"
       helper_size="0"
       apply_no_weight="true"
       apply_with_weight="true"
       only_selected="false" />
    <inkscape:path-effect
       effect="bspline"
       id="path-effect4735"
       is_visible="true"
       weight="33.333333"
       steps="2"
       helper_size="0"
       apply_no_weight="true"
       apply_with_weight="true"
       only_selected="false" />
    <inkscape:path-effect
       effect="bspline"
       id="path-effect4731"
       is_visible="true"
       weight="33.333333"
       steps="2"
       helper_size="0"
       apply_no_weight="true"
       apply_with_weight="true"
       only_selected="false" />
    <inkscape:path-effect
       effect="bspline"
       id="path-effect4717"
       is_visible="true"
       weight="33.333333"
       steps="2"
       helper_size="0"
       apply_no_weight="true"
       apply_with_weight="true"
       only_selected="false" />
    <inkscape:path-effect
       effect="bspline"
       id="path-effect4702"
       is_visible="true"
       weight="33.333333"
       steps="2"
       helper_size="0"
       apply_no_weight="true"
       apply_with_weight="true"
       only_selected="false" />
    <inkscape:path-effect
       effect="bspline"
       id="path-effect4698"
       is_visible="true"
       weight="33.333333"
       steps="2"
       helper_size="0"
       apply_no_weight="true"
       apply_with_weight="true"
       only_selected="false" />
    <inkscape:path-effect
       effect="bspline"
       id="path-effect4694"
       is_visible="true"
       weight="33.333333"
       steps="2"
       helper_size="0"
       apply_no_weight="true"
       apply_with_weight="true"
       only_selected="false" />
    <inkscape:path-effect
       effect="bspline"
       id="path-effect4690"
       is_visible="true"
       weight="33.333333"
       steps="2"
       helper_size="0"
       apply_no_weight="true"
       apply_with_weight="true"
       only_selected="false" />
    <inkscape:path-effect
       effect="bspline"
       id="path-effect4686"
       is_visible="true"
       weight="33.333333"
       steps="2"
       helper_size="0"
       apply_no_weight="true"
       apply_with_weight="true"
       only_selected="false" />
    <inkscape:path-effect
       effect="bspline"
       id="path-effect4682"
       is_visible="true"
       weight="33.333333"
       steps="2"
       helper_size="0"
       apply_no_weight="true"
       apply_with_weight="true"
       only_selected="false" />
    <inkscape:path-effect
       effect="bspline"
       id="path-effect4678"
       is_visible="true"
       weight="33.333333"
       steps="2"
       helper_size="0"
       apply_no_weight="true"
       apply_with_weight="true"
       only_selected="false" />
    <inkscape:path-effect
       effect="bspline"
       id="path-effect4674"
       is_visible="true"
       weight="33.333333"
       steps="2"
       helper_size="0"
       apply_no_weight="true"
       apply_with_weight="true"
       only_selected="false" />
    <inkscape:path-effect
       effect="bspline"
       id="path-effect4670"
       is_visible="true"
       weight="33.333333"
       steps="2"
       helper_size="0"
       apply_no_weight="true"
       apply_with_weight="true"
       only_selected="false" />
    <inkscape:path-effect
       effect="bspline"
       id="path-effect4666"
       is_visible="true"
       weight="33.333333"
       steps="2"
       helper_size="0"
       apply_no_weight="true"
       apply_with_weight="true"
       only_selected="false" />
    <inkscape:path-effect
       effect="bspline"
       id="path-effect4662"
       is_visible="true"
       weight="33.333333"
       steps="2"
       helper_size="0"
       apply_no_weight="true"
       apply_with_weight="true"
       only_selected="false" />
    <inkscape:path-effect
       effect="bspline"
       id="path-effect4658"
       is_visible="true"
       weight="33.333333"
       steps="2"
       helper_size="0"
       apply_no_weight="true"
       apply_with_weight="true"
       only_selected="false" />
    <inkscape:path-effect
       effect="bspline"
       id="path-effect4654"
       is_visible="true"
       weight="33.333333"
       steps="2"
       helper_size="0"
       apply_no_weight="true"
       apply_with_weight="true"
       only_selected="false" />
    <inkscape:path-effect
       effect="bspline"
       id="path-effect4650"
       is_visible="true"
       weight="33.333333"
       steps="2"
       helper_size="0"
       apply_no_weight="true"
       apply_with_weight="true"
       only_selected="false" />
    <inkscape:path-effect
       effect="bspline"
       id="path-effect4646"
       is_visible="true"
       weight="33.333333"
       steps="2"
       helper_size="0"
       apply_no_weight="true"
       apply_with_weight="true"
       only_selected="false" />
    <inkscape:path-effect
       effect="bspline"
       id="path-effect4642"
       is_visible="true"
       weight="33.333333"
       steps="2"
       helper_size="0"
       apply_no_weight="true"
       apply_with_weight="true"
       only_selected="false" />
    <inkscape:path-effect
       effect="bspline"
       id="path-effect4638"
       is_visible="true"
       weight="33.333333"
       steps="2"
       helper_size="0"
       apply_no_weight="true"
       apply_with_weight="true"
       only_selected="false" />
    <inkscape:path-effect
       effect="bspline"
       id="path-effect3816"
       is_visible="true"
       weight="33.333333"
       steps="2"
       helper_size="0"
       apply_no_weight="true"
       apply_with_weight="true"
       only_selected="false" />
    <inkscape:path-effect
       effect="bspline"
       id="path-effect3812"
       is_visible="true"
       weight="33.333333"
       steps="2"
       helper_size="0"
       apply_no_weight="true"
       apply_with_weight="true"
       only_selected="false" />
    <inkscape:path-effect
       effect="bspline"
       id="path-effect3808"
       is_visible="true"
       weight="33.333333"
       steps="2"
       helper_size="0"
       apply_no_weight="true"
       apply_with_weight="true"
       only_selected="false" />
    <inkscape:path-effect
       effect="bspline"
       id="path-effect3804"
       is_visible="true"
       weight="33.333333"
       steps="2"
       helper_size="0"
       apply_no_weight="true"
       apply_with_weight="true"
       only_selected="false" />
    <inkscape:path-effect
       effect="bspline"
       id="path-effect3800"
       is_visible="true"
       weight="33.333333"
       steps="2"
       helper_size="0"
       apply_no_weight="true"
       apply_with_weight="true"
       only_selected="false" />
    <inkscape:path-effect
       effect="bspline"
       id="path-effect3796"
       is_visible="true"
       weight="33.333333"
       steps="2"
       helper_size="0"
       apply_no_weight="true"
       apply_with_weight="true"
       only_selected="false" />
    <inkscape:path-effect
       effect="bspline"
       id="path-effect3792"
       is_visible="true"
       weight="33.333333"
       steps="2"
       helper_size="0"
       apply_no_weight="true"
       apply_with_weight="true"
       only_selected="false" />
    <inkscape:path-effect
       effect="bspline"
       id="path-effect3788"
       is_visible="true"
       weight="33.333333"
       steps="2"
       helper_size="0"
       apply_no_weight="true"
       apply_with_weight="true"
       only_selected="false" />
    <inkscape:path-effect
       effect="bspline"
       id="path-effect3784"
       is_visible="true"
       weight="33.333333"
       steps="2"
       helper_size="0"
       apply_no_weight="true"
       apply_with_weight="true"
       only_selected="false" />
    <inkscape:path-effect
       effect="bspline"
       id="path-effect3780"
       is_visible="true"
       weight="33.333333"
       steps="2"
       helper_size="0"
       apply_no_weight="true"
       apply_with_weight="true"
       only_selected="false" />
    <inkscape:path-effect
       effect="bspline"
       id="path-effect3776"
       is_visible="true"
       weight="33.333333"
       steps="2"
       helper_size="0"
       apply_no_weight="true"
       apply_with_weight="true"
       only_selected="false" />
    <inkscape:path-effect
       effect="bspline"
       id="path-effect3772"
       is_visible="true"
       weight="33.333333"
       steps="2"
       helper_size="0"
       apply_no_weight="true"
       apply_with_weight="true"
       only_selected="false" />
    <inkscape:path-effect
       effect="bspline"
       id="path-effect3768"
       is_visible="true"
       weight="33.333333"
       steps="2"
       helper_size="0"
       apply_no_weight="true"
       apply_with_weight="true"
       only_selected="false" />
    <inkscape:path-effect
       effect="bspline"
       id="path-effect3764"
       is_visible="true"
       weight="33.333333"
       steps="2"
       helper_size="0"
       apply_no_weight="true"
       apply_with_weight="true"
       only_selected="false" />
    <inkscape:path-effect
       effect="bspline"
       id="path-effect3750"
       is_visible="true"
       weight="33.333333"
       steps="2"
       helper_size="0"
       apply_no_weight="true"
       apply_with_weight="true"
       only_selected="false" />
    <inkscape:path-effect
       effect="bspline"
       id="path-effect3744"
       is_visible="true"
       weight="33.333333"
       steps="2"
       helper_size="0"
       apply_no_weight="true"
       apply_with_weight="true"
       only_selected="false" />
  </defs>
  <sodipodi:namedview
     id="base"
     pagecolor="#ffffff"
     bordercolor="#666666"
     borderopacity="1.0"
     inkscape:pageopacity="0.0"
     inkscape:pageshadow="2"
     inkscape:zoom="1.979899"
     inkscape:cx="247.33735"
     inkscape:cy="278.45886"
     inkscape:document-units="px"
     inkscape:current-layer="layer1"
     showgrid="false"
     units="px"
     inkscape:object-paths="false"
     inkscape:window-width="1920"
     inkscape:window-height="1017"
     inkscape:window-x="-8"
     inkscape:window-y="-8"
     inkscape:window-maximized="1">
    <inkscape:grid
       type="xygrid"
       id="grid4623" />
  </sodipodi:namedview>
  <metadata
     id="metadata5">
    <rdf:RDF>
      <cc:Work
         rdf:about="">
        <dc:format>image/svg+xml</dc:format>
        <dc:type
           rdf:resource="http://purl.org/dc/dcmitype/StillImage" />
        <dc:title></dc:title>
      </cc:Work>
    </rdf:RDF>
  </metadata>
  <g
     inkscape:label="圖層 1"
     inkscape:groupmode="layer"
     id="layer1"
     transform="translate(0,-161.5333)">
    <path
       style="fill:#000000;stroke:#000000;stroke-width:1px;stroke-linecap:butt;stroke-linejoin:miter;stroke-opacity:1;fill-opacity:1"
       d="M 51.770546,343.12903 C 53.033662,341.36166 57.074272,342.54017 60.862207,343.21352 64.650143,343.88687 68.186247,344.05526 72.731299,343.46602 77.276351,342.87678 82.833682,341.52955 92.007884,339.25704 101.18209,336.98452 113.98006,333.78503 125.76466,331.00724 137.54927,328.22945 148.32523,325.87221 156.15366,323.93611 163.98209,322.00001 168.86502,320.48462 173.07347,319.72719 177.28191,318.96976 180.81831,318.96976 184.87107,319.94926 188.92384,320.92876 193.78141,323.01057 197.14824,325.03067 200.51507,327.05077 202.53559,329.07128 203.20929,330.83845 203.88299,332.60561 203.20956,334.12084 201.59776,335.03841 199.98597,335.95598 197.14922,336.31057 192.01269,336.64741 186.87615,336.98424 179.30312,337.32082 171.81072,338.49933 164.31831,339.67784 156.91154,341.69786 148.07186,343.55001 139.23218,345.40216 128.96394,347.08548 120.04054,349.10583 111.11714,351.12617 103.54183,353.48293 96.470249,356.26099 89.398663,359.03906 82.833708,362.23737 78.533091,364.15 74.232473,366.06263 71.890386,366.78328 69.664895,366.15113 67.439405,365.51898 64.986564,363.41654 62.292799,361.22785 59.599034,359.03917 56.568681,356.68223 54.295634,353.14622 52.022587,349.61022 50.50743,344.89639 51.770546,343.12903 Z"
       id="path4840"
       inkscape:connector-curvature="0"
       inkscape:path-effect="#path-effect4842"
       inkscape:original-d="M 48.992398,340.18296 C 53.034009,341.36047 57.074619,342.53898 61.114229,343.71849 64.650192,343.88583 68.186297,344.05421 71.720831,344.22357 77.276177,342.87606 82.833509,341.52883 88.388348,340.18296 101.18191,336.98382 113.97988,333.78433 126.77414,330.58651 137.54911,328.2287 148.32507,325.87147 159.09903,323.51544 163.9819,321.99938 168.86483,320.48399 173.74624,318.96976 177.28191,318.96876 180.81831,318.96876 184.35284,318.96976 188.89824,320.98849 193.78193,323.00937 198.49498,325.03067 200.51607,327.04977 202.53659,329.07028 204.55589,331.09159 203.88346,332.60582 203.21002,334.12104 202.53559,335.63727 200.00919,336.14175 197.14911,336.30971 194.45437,336.64743 186.87611,336.98328 179.30308,337.31986 171.72593,337.65758 164.31813,339.67716 156.91136,341.69719 149.50258,343.71849 139.23205,345.40135 128.96381,347.08467 118.69292,348.76926 111.11694,351.12554 103.54164,353.4823 95.964492,355.84032 89.398465,359.03865 82.833509,362.23696 76.266517,365.43677 74.246842,366.10933 71.89019,366.78264 69.700526,367.45708 67.511667,365.43467 64.98748,363.41547 62.629458,361.39616 59.599894,359.03806 56.569543,356.68112 53.538085,354.3251 52.023787,349.60983 50.508627,344.89601 48.992398,340.18296 Z" />
    <path
       style="fill:#000000;stroke:#000000;stroke-width:1px;stroke-linecap:butt;stroke-linejoin:miter;stroke-opacity:1;fill-opacity:1"
       d="M 134.77125,215.00813 C 134.0139,210.71526 138.22288,213.07229 143.02075,216.69173 147.81861,220.31118 153.20652,225.19397 157.58374,229.99206 161.96096,234.79014 165.32817,239.50423 167.98308,243.31824 170.638,247.13225 172.73593,250.27915 173.15708,253.39342 173.57823,256.5077 172.39981,259.70627 170.7158,264.42149 169.03179,269.13671 166.84395,275.36364 164.06565,284.87715 161.28735,294.39067 157.92082,307.18346 154.63759,327.47201 151.35435,347.76057 148.15583,375.5372 146.64054,399.86551 145.12525,424.19382 145.2936,445.06948 145.29361,467.37757 145.29361,489.68565 145.12526,513.42311 145.12525,528.91229 145.12523,544.40146 145.29359,551.64058 145.79867,558.03866 146.30375,564.43674 147.14543,569.99183 147.81891,574.79034 148.4924,579.58886 148.9974,583.62886 148.82928,586.57516 148.66115,589.52147 147.81954,591.37302 146.21949,593.98371 144.61944,596.5944 142.26395,599.95938 139.40123,601.22259 136.53852,602.4858 133.17248,601.64429 130.14129,598.27619 127.11009,594.90808 124.41691,589.01675 120.7974,582.61949 117.17788,576.22222 112.63185,569.31899 108.50714,563.25819 104.38242,557.19739 100.6784,551.97809 99.668886,548.94744 98.659372,545.91679 100.34302,545.07497 103.79204,546.33684 107.24106,547.59871 112.4639,550.96828 117.09368,553.91451 121.72346,556.86073 125.76426,559.38623 128.71086,559.80662 131.65746,560.22702 133.50954,558.54332 134.43499,548.95178 135.36044,539.36025 135.36044,521.84106 134.68702,499.70267 134.0136,477.56428 132.66665,450.79371 132.24572,428.65723 131.82478,406.52075 132.33001,389.00597 133.08762,372.50725 133.84522,356.00853 134.85544,340.51862 135.61304,329.07047 136.37063,317.62233 136.87575,310.21404 138.05418,301.03924 139.23262,291.86443 141.08484,280.91954 143.02094,272.1652 144.95705,263.41086 146.97756,256.84418 147.65079,252.04646 148.32403,247.24874 147.65047,244.21773 144.45234,237.23236 141.25421,230.24699 135.5286,219.301 134.77125,215.00813 Z"
       id="path4844"
       inkscape:connector-curvature="0"
       inkscape:path-effect="#path-effect4846"
       inkscape:original-d="M 129.8046,208.35805 C 134.01457,210.71407 138.22354,213.0711 142.43151,215.42912 147.81956,220.31014 153.20747,225.19293 158.59395,230.07633 161.96209,234.78933 165.3293,239.50342 168.69548,244.21847 170.71686,247.07968 172.73709,250.27838 174.75639,253.30984 173.57879,256.5079 172.40037,259.70647 171.22086,262.90629 169.03237,269.13691 166.84453,275.36384 164.65486,281.59411 161.28804,294.39085 157.92151,307.18364 154.55334,319.97991 151.35523,347.76067 148.15671,375.5373 144.95689,403.31749 145.12626,424.19381 145.29461,445.06947 145.46197,465.94695 145.2946,489.68566 145.12625,513.42312 144.95689,537.16271 145.12626,544.40144 145.29461,551.64056 145.46197,558.88099 146.30487,564.43657 147.14655,569.99166 147.98735,575.5485 148.4935,579.58872 148.9985,583.62872 149.50258,587.67033 148.6616,589.52167 147.81999,591.37323 146.9772,593.22617 144.61964,596.59454 142.26415,599.95952 139.90613,603.3277 136.53881,602.48462 133.17278,601.64311 129.8046,600.80232 127.1113,594.90753 124.41812,589.0162 121.72338,583.12465 117.17904,576.22146 112.63301,569.31823 108.08632,562.41652 104.38356,557.19658 100.67954,551.97728 96.974644,546.75916 98.65917,545.91639 100.34282,545.07457 102.02541,544.23377 107.24181,547.59755 112.46465,550.96712 117.68277,554.3353 121.72419,556.85956 125.76499,559.38506 129.8046,561.91144 131.65742,560.22697 133.50949,558.54327 135.36044,556.86068 135.36144,539.36025 135.36144,521.84106 135.36044,504.33275 134.01465,477.56423 132.6677,450.79366 131.31983,424.02562 131.65754,406.51593 132.33098,389.006 132.83506,371.49769 133.84615,356.00859 134.85636,340.51868 135.86552,325.03067 136.37156,317.62239 136.87667,310.2141 137.38075,302.80732 139.23343,291.86457 141.08564,280.91968 142.93659,269.97736 144.95768,263.41105 146.9782,256.84438 148.9975,250.27938 148.32519,247.24848 147.65163,244.21747 146.9772,241.18801 141.2554,230.24637 135.5298,219.30037 129.8046,208.35805 Z" />
    <path
       style="fill:#000000;stroke:#000000;stroke-width:1px;stroke-linecap:butt;stroke-linejoin:miter;stroke-opacity:1;fill-opacity:1"
       d="M 53.538391,492.71571 C 55.054101,490.0224 59.599788,490.86419 62.88267,491.36922 66.165552,491.87425 68.186207,492.04264 71.720719,490.35941 75.25523,488.67618 80.30827,485.13905 90.997171,476.38592 101.68607,467.63278 118.02056,453.65585 130.1842,442.75395 142.34784,431.85206 150.51374,423.85627 158.25779,416.44893 166.00185,409.04159 173.41056,402.13802 179.89198,396.07747 186.3734,390.01691 191.93001,384.79706 194.79154,383.02918 197.65306,381.26129 197.82145,382.94519 194.87405,387.57696 191.92665,392.20873 185.86894,399.78086 177.78697,410.47263 169.70499,421.16439 159.60493,434.96781 149.92398,447.00592 140.24304,459.04403 130.98406,469.31308 121.21874,479.75188 111.45343,490.19068 101.1846,500.7962 94.618535,507.19402 88.052471,513.59184 85.190648,515.78029 81.570043,516.95924 77.949439,518.13819 73.573814,518.30648 70.523507,517.92098 67.473199,517.53547 65.491907,516.45477 63.134472,514.6867 60.777037,512.91863 57.915477,510.39372 55.726676,506.01593 53.537876,501.63815 52.022681,495.40902 53.538391,492.71571 Z"
       id="path4848"
       inkscape:connector-curvature="0"
       inkscape:path-effect="#path-effect4850"
       inkscape:original-d="M 50.507627,489.18046 C 55.054314,490.02125 59.6,490.86305 64.144687,491.70584 66.165642,491.87317 68.186297,492.04156 70.205602,492.21092 75.255089,488.67598 80.308127,485.13885 85.35789,481.60432 101.686,467.6327 118.02049,453.65576 134.35029,439.68299 142.43198,431.93799 150.51373,423.85626 158.59395,415.9444 166.00181,409.04155 173.41052,402.13798 180.81731,395.23627 186.37337,390.01688 191.92998,384.79703 197.48482,379.57891 197.65415,381.26118 197.82254,382.94508 197.9899,384.62967 191.92678,392.20883 185.86907,399.78096 179.80715,407.3581 169.70516,421.16452 159.6051,434.96794 149.50258,448.77436 140.24309,459.04408 130.98411,469.31313 121.72338,479.58401 111.45345,490.1907 101.18461,500.79621 90.913729,511.40382 88.052356,513.59169 85.190531,515.78014 82.327432,517.96981 77.949402,518.13723 73.573777,518.30553 69.195449,518.47488 67.512463,517.46349 65.492557,516.45358 63.63961,515.44443 60.77797,512.91757 57.916413,510.39266 55.053314,507.86828 53.53905,501.63786 52.023856,495.40873 50.507627,489.18046 Z" />
    <path
       style="fill:#000000;stroke:#000000;stroke-width:1px;stroke-linecap:butt;stroke-linejoin:miter;stroke-opacity:1;fill-opacity:1"
       d="M 272.90977,259.79159 C 274.25705,257.01393 281.32811,259.20259 288.20425,261.46615 295.08039,263.7297 301.86783,266.10531 306.83401,268.71467 311.8002,271.32403 314.9993,274.18639 317.69289,277.6375 320.38648,281.08861 322.57519,285.1293 323.33302,288.41199 324.09086,291.69468 323.41749,294.21984 321.81757,298.68283 320.21765,303.14582 317.69345,309.54046 313.31569,317.28585 308.93793,325.03124 302.70983,334.12089 295.30151,344.81246 287.89319,355.50402 279.30798,367.79266 273.33119,375.62157 267.35439,383.45047 263.98753,386.81734 259.10418,391.61649 254.22084,396.41565 247.8251,402.64307 241.67956,408.36771 235.53403,414.09234 229.6424,419.31064 222.31809,423.77269 214.99377,428.23475 206.24069,431.93797 201.27351,433.36929 196.30634,434.8006 195.12799,433.95892 197.82274,431.51697 200.5175,429.07501 207.08244,425.03505 214.15275,419.31138 221.22307,413.58771 228.80056,406.1786 235.36609,398.60291 241.93161,391.02721 247.48819,383.28167 253.54859,374.35938 259.609,365.43709 266.17595,355.33409 272.40482,344.64394 278.63369,333.95378 284.52693,322.67245 289.07236,312.90808 293.6178,303.14371 296.81696,294.89324 298.07937,289.75876 299.34177,284.62427 298.66824,282.60366 297.23788,281.17314 295.80753,279.74262 293.61821,278.90058 290.67171,278.47958 287.72521,278.05858 284.02222,278.05858 279.98043,274.18512 275.93863,270.31165 271.56249,262.56924 272.90977,259.79159 Z"
       id="path4852"
       inkscape:connector-curvature="0"
       inkscape:path-effect="#path-effect4854"
       inkscape:original-d="M 267.18535,254.82507 C 274.25742,257.01273 281.32848,259.2014 288.39855,261.39106 295.1333,263.57853 301.86825,266.10411 308.6016,268.46213 311.80114,271.32298 315.00024,274.18533 318.19805,277.04843 320.38768,281.08796 322.57638,285.12865 324.76404,289.17026 324.09155,291.69486 323.41817,294.22002 322.74374,296.7464 320.21817,303.14603 317.69398,309.54067 315.16759,315.9393 308.93815,325.03139 302.71005,334.12104 296.47977,343.21342 287.89339,355.50416 279.30818,367.7928 270.72088,380.08399 267.35439,383.45047 263.98753,386.81734 260.61936,390.18551 254.22082,396.41563 247.82509,402.64306 241.42646,408.87333 235.53397,414.09228 229.64235,419.31058 223.74879,424.5307 214.99356,428.23425 206.24048,431.93748 197.48482,435.64238 196.30715,434.79947 195.1288,433.95779 193.94929,433.11699 200.51733,429.07474 207.08227,425.03477 213.64726,420.99516 221.22306,413.5877 228.80055,406.17859 236.3757,398.77181 241.93179,391.02734 247.48837,383.2818 253.04321,375.5383 259.60924,365.43725 266.1762,355.33425 272.74119,345.23372 278.63407,333.95398 284.5273,322.67265 290.41886,311.39361 293.61833,303.14391 296.81749,294.89345 300.01531,286.64487 299.34297,284.62387 298.66944,282.60326 297.995,280.58396 295.80799,279.74142 293.61867,278.89937 291.42901,278.05858 287.72521,278.05758 284.02222,278.05758 280.31733,278.05858 275.93982,270.31098 271.56368,262.56857 267.18535,254.82507 Z" />
    <path
       style="fill:#000000;stroke:#000000;stroke-width:1px;stroke-linecap:butt;stroke-linejoin:miter;stroke-opacity:1;fill-opacity:1"
       d="M 320.72396,316.52858 C 318.53577,313.91899 319.88264,313.91899 323.07954,314.08726 326.27645,314.25552 331.33097,314.59249 337.89633,313.91906 344.46169,313.24563 352.5444,311.56173 360.62505,309.7099 368.7057,307.85807 376.78808,305.83748 381.5019,304.06944 386.21573,302.30141 387.5628,300.78595 389.49818,299.43974 391.43355,298.09353 393.96069,296.9142 397.41088,296.40938 400.86107,295.90456 405.24049,296.073 409.11192,297.67208 412.98335,299.27116 416.35126,302.30229 418.37147,306.00571 420.39168,309.70912 421.06513,314.08652 420.47613,317.70634 419.88714,321.32616 418.03555,324.18772 415.84655,325.7877 413.65755,327.38769 411.1332,327.72426 408.08759,328.70286 405.04197,329.68146 401.20013,331.42775 398.5479,332.98953 395.89568,334.5513 394.1289,336.14141 392.27615,338.58354 390.4234,341.02567 388.40436,344.39075 385.45742,349.10587 382.51048,353.82098 378.63959,359.87976 374.68277,366.02546 370.72596,372.17116 366.68612,378.39924 362.8977,384.46069 359.10927,390.52215 355.5744,396.4136 353.04887,400.62283 350.52334,404.83205 349.00841,407.35693 347.07192,409.63037 345.13543,411.90381 342.7795,413.92318 340.7582,413.58618 338.73689,413.24917 337.05407,410.55665 335.62307,408.19971 334.19207,405.84277 333.01344,403.82226 332.59267,401.29672 332.1719,398.77117 332.50867,395.74025 333.69159,393.99143 334.87452,392.2426 337.22376,391.70047 339.24327,391.7847 341.26277,391.86894 343.11571,392.54274 344.63085,391.95308 346.14599,391.36341 347.32486,389.51091 350.03459,384.42867 352.74431,379.34643 356.92118,371.15977 360.8774,364.08915 364.83362,357.01852 368.53805,351.12511 371.48403,345.82226 374.43,340.51941 376.6191,335.80442 378.21842,332.52167 379.81775,329.23892 380.82816,327.3865 380.57609,326.20885 380.32401,325.0312 378.8078,324.5258 375.94517,325.03086 373.08254,325.53592 368.87524,327.05055 364.66567,328.48181 360.4561,329.91308 356.24833,331.25957 352.29127,331.93319 348.33422,332.60682 344.63138,332.60682 341.68453,332.10171 338.73767,331.5966 336.5496,330.58672 332.59239,327.47147 328.63518,324.35622 322.91215,319.13816 320.72396,316.52858 Z"
       id="path4856"
       inkscape:connector-curvature="0"
       inkscape:path-effect="#path-effect4858"
       inkscape:original-d="M 317.1879,313.91899 C 318.53577,313.91799 319.88264,313.91799 321.22851,313.91899 326.27652,314.25446 331.33104,314.59143 336.3808,314.92915 344.46153,313.24487 352.54424,311.56097 360.62446,309.87838 368.70552,307.85737 376.7879,305.83677 384.86812,303.81747 386.21579,302.30146 387.56286,300.78601 388.90873,299.27178 391.43335,298.09309 393.96049,296.91376 396.48487,295.73625 400.86111,295.90353 405.24053,296.07197 409.61686,296.24132 412.98429,299.27012 416.35221,302.30124 419.71838,305.3327 420.39281,309.70895 421.06625,314.08635 421.73869,318.46468 419.88739,321.32632 418.0358,324.18788 416.18285,327.05098 413.65744,327.38683 411.13309,327.72341 408.6067,328.06113 405.07061,329.74446 401.19992,331.4273 397.49503,333.11189 395.81189,334.4582 394.12885,336.14135 392.44426,337.65758 390.4237,341.02585 388.40465,344.39093 386.38335,347.7591 382.51074,353.82114 378.63985,359.87993 374.76659,365.94185 370.72621,372.17132 366.68637,378.3994 362.64476,384.62967 359.10957,390.52233 355.5747,396.41378 352.03816,402.30734 350.52363,404.83223 349.0087,407.3571 347.49248,409.88349 345.13536,411.90373 342.77943,413.9231 340.42141,415.9444 338.73806,413.24844 337.05523,410.55592 335.37065,407.86318 334.19325,405.84208 333.01462,403.82157 331.83511,401.80227 332.17278,398.77127 332.50955,395.74035 332.84526,392.71089 334.86584,392.205 337.22359,391.69974 339.41126,391.19566 341.26321,391.86774 343.11615,392.54153 344.96709,393.21597 346.14625,391.36358 347.32512,389.51108 348.50263,387.66013 352.8782,379.41474 356.92157,371.15997 361.12954,362.91139 364.83389,357.01869 368.53832,351.12528 372.24121,345.23372 374.43044,340.51961 376.61954,335.80463 378.8072,331.09159 379.8181,329.23911 380.82851,327.38669 381.83766,325.53575 380.32441,325.03 378.8082,324.5246 377.29198,324.02052 373.08234,325.53535 368.87504,327.04998 364.66507,328.56621 360.4559,329.91246 356.24813,331.25895 352.03816,332.60682 348.33422,332.60582 344.63138,332.60582 340.92648,332.60682 338.73823,331.59539 336.55016,330.58551 334.36049,329.57636 328.63613,324.35518 322.9131,319.13712 317.1879,313.91899 Z" />
    <path
       style="fill:#000000;stroke:#000000;stroke-width:1px;stroke-linecap:butt;stroke-linejoin:miter;stroke-opacity:1;fill-opacity:1"
       d="M 257.67347,426.9718 C 257.7582,424.69911 260.95701,424.86746 264.74424,425.79327 268.53146,426.71907 272.91009,428.40316 277.37111,431.01245 281.83214,433.62175 286.37838,437.15772 289.74536,441.02966 293.11233,444.9016 295.30106,449.1107 297.06889,453.40392 298.83672,457.69714 300.18347,462.07407 301.10951,466.03065 302.03556,469.98723 302.54056,473.52226 303.29831,480.00517 304.05606,486.48808 305.06597,495.91393 306.58125,506.94187 308.09653,517.96981 310.1167,530.59589 311.04278,537.83525 311.96887,545.07461 311.80052,546.92643 311.21138,548.44201 310.62223,549.95759 309.61267,551.13541 308.01223,551.55675 306.41178,551.97809 304.22511,551.64168 302.28816,548.27289 300.35121,544.9041 298.66826,538.50889 297.06895,530.76481 295.46965,523.02074 293.95426,513.92839 292.27072,506.18425 290.58719,498.4401 288.73508,492.04191 286.54654,484.46621 284.35801,476.89051 281.83237,468.13496 280.23299,462.41084 278.63362,456.68671 277.96013,453.99277 276.69775,451.63635 275.43537,449.27992 273.58294,447.25908 271.3102,445.15469 269.03747,443.0503 266.34367,440.86159 263.48137,437.40996 260.61907,433.95834 257.58873,429.24449 257.67347,426.9718 Z"
       id="path4860"
       inkscape:connector-curvature="0"
       inkscape:path-effect="#path-effect4862"
       inkscape:original-d="M 254.55844,424.5307 C 257.75826,424.69806 260.95707,424.86641 264.15489,425.03577 268.53193,426.71786 272.91055,428.40195 277.28687,430.08654 281.833,433.62064 286.37925,437.1566 290.92393,440.69314 293.11353,444.90098 295.30226,449.11008 297.48992,453.32004 298.83792,457.69677 300.18466,462.0737 301.53053,466.45203 302.03668,469.98707 302.54169,473.5221 303.04576,477.05863 304.05716,486.48796 305.06707,495.91381 306.07622,505.3429 308.09653,517.96981 310.11783,530.59571 312.13714,543.22362 311.96977,545.07469 311.80142,546.92651 311.63206,548.77946 310.62232,549.95766 309.61276,551.13548 308.6016,552.31499 306.41195,551.97697 304.22528,551.64056 302.03561,551.30484 300.35239,544.90379 298.66944,538.50858 296.98485,532.11194 295.47078,523.02055 293.95539,513.9282 292.43916,504.83782 290.58838,498.43976 288.73627,492.04156 286.88332,485.64493 284.3592,476.89017 281.83356,468.13462 279.30718,459.38096 278.63479,456.68642 277.96131,453.99248 277.28687,451.29974 275.43641,449.27896 273.58398,447.25813 271.73103,445.23882 269.03836,443.04921 266.34455,440.8605 263.64981,438.67283 260.62023,433.95759 257.5899,429.24374 254.55844,424.5307 Z" />
    <path
       style="fill:#000000;stroke:#000000;stroke-width:1px;stroke-linecap:butt;stroke-linejoin:miter;stroke-opacity:1;fill-opacity:1"
       d="M 308.60203,425.96184 C 308.26569,423.52068 313.98988,424.53084 320.47343,424.45964 326.95699,424.38844 334.52998,423.18365 341.93722,421.75269 349.34446,420.32172 356.75338,418.63787 364.75544,416.63886 372.7575,414.63984 381.67048,412.24019 388.72592,410.55958 395.78137,408.87898 401.20007,407.86297 404.39834,405.16921 407.59661,402.47546 408.60698,398.0972 410.71128,396.24583 412.81558,394.39446 416.01525,395.06807 420.8126,396.66721 425.60995,398.26634 432.00909,400.79232 436.21763,403.73821 440.42616,406.6841 442.44664,410.05155 442.95202,412.9133 443.4574,415.77504 442.44733,418.13185 440.59503,420.06864 438.74273,422.00542 436.05037,423.51987 434.1978,425.79312 432.34524,428.06637 431.33553,431.09549 429.98829,435.7266 428.64105,440.35771 426.95813,446.58451 425.10593,455.67704 423.25373,464.76957 421.23381,476.72077 420.39186,482.95053 419.54991,489.18028 419.88659,489.68531 423.00293,491.03289 426.11926,492.38048 432.00912,494.56814 435.46007,496.50394 438.91101,498.43974 439.92126,500.12348 440.59476,502.3121 441.26826,504.50072 441.60492,507.19399 441.36944,509.34907 441.13396,511.50415 440.25875,513.25456 438.98134,514.48614 437.70393,515.71773 435.71367,516.62239 433.43966,516.62249 431.16565,516.62258 428.47367,515.78134 425.69451,515.20124 422.91535,514.62113 419.71926,514.26601 408.85685,514.93214 397.99444,515.59826 378.97664,517.29628 362.81382,518.89572 346.65101,520.49515 333.18308,522.0103 324.51248,523.27294 315.84189,524.53558 311.96996,525.54564 309.27551,525.54572 306.58107,525.5458 305.0663,524.53595 303.99152,522.76261 302.91674,520.98927 302.20379,518.13746 302.96165,515.44388 303.71952,512.7503 305.90875,510.05586 311.54704,508.03629 317.18533,506.01672 326.28039,504.6693 337.05461,502.56495 347.82882,500.46059 360.28891,497.59813 371.31593,495.49377 382.34296,493.3894 391.94031,492.0424 397.29149,491.05275 402.64268,490.06309 403.89384,489.34814 404.81891,481.44271 405.74398,473.53729 406.41809,458.36977 406.92316,447.34251 407.42822,436.31524 407.76496,429.41205 407.51238,425.28776 407.2598,421.16346 406.41787,419.81638 397.15356,421.81281 387.88925,423.80925 369.88538,429.24438 356.83731,433.45341 343.78924,437.66244 335.5402,440.6927 330.48884,441.61889 325.43747,442.54508 323.58579,441.36674 319.46045,437.83073 315.3351,434.29472 308.93837,428.40299 308.60203,425.96184 Z"
       id="path4864"
       inkscape:connector-curvature="0"
       inkscape:path-effect="#path-effect4866"
       inkscape:original-d="M 302.54069,422.51039 C 308.26589,423.51954 313.99008,424.5297 319.71328,425.54085 326.9527,424.3615 334.52985,423.18283 341.93664,422.00532 349.34429,420.32099 356.75321,418.63714 364.15999,416.95455 372.74594,414.5969 381.6703,412.23951 390.42396,409.88349 395.81171,409.04081 401.19992,407.86218 406.5864,406.85303 407.59734,402.47563 408.6077,398.09737 409.61686,393.72104 412.81582,394.3933 416.01549,395.06691 419.21331,395.74135 425.61043,398.26513 432.00957,400.79111 438.4062,403.31749 440.42734,406.68339 442.44782,410.05084 444.46712,413.41902 443.45788,415.77525 442.44782,418.13206 441.43666,420.49009 438.74254,422.00509 436.05018,423.51954 433.35544,425.03577 432.34584,428.06657 431.33614,431.09569 430.32498,434.12715 428.64173,440.35789 426.95881,446.58469 425.27422,452.81497 423.25453,464.76971 421.23461,476.72091 419.21331,488.67538 419.55106,489.17951 419.88774,489.68454 420.22346,490.19061 426.11971,492.37928 432.00957,494.56694 437.90113,496.7566 438.91219,498.43903 439.92243,500.12278 440.93159,501.80737 441.26936,504.50058 441.60602,507.19385 441.94174,509.88859 441.26909,511.57171 440.25915,513.25476 439.41636,514.93935 437.73257,515.78074 435.71346,516.62194 433.86052,517.46473 431.16602,516.62139 428.47404,515.78014 425.7793,514.93935 422.91753,514.60155 419.71938,514.26492 416.68793,513.9292 397.99569,515.61227 378.97656,517.29537 360.11938,518.97996 346.65091,520.49428 333.18298,522.00942 319.71328,523.52565 315.84171,524.53488 311.96978,525.54495 308.09653,526.5561 306.58184,525.54464 305.06707,524.5348 303.55084,523.52565 302.8783,520.99888 302.20497,518.13717 301.53053,515.44443 303.71963,512.75039 305.90886,510.05595 308.09653,507.36321 317.18521,506.01588 326.28027,504.66847 335.37065,503.3226 347.82865,500.45985 360.28874,497.5974 372.74629,494.7363 382.34284,493.38856 391.94019,492.04156 401.53564,490.69569 402.71501,490.18967 403.89366,489.34782 405.07117,488.67538 405.74493,473.53733 406.41904,458.36981 407.09148,443.21852 407.42917,436.31529 407.76591,429.4121 408.10163,422.51039 407.26096,421.16273 406.41904,419.81565 405.57625,418.46978 387.90312,423.85518 369.88519,429.24374 352.03816,434.63222 343.78903,437.66188 335.54,440.69214 327.28942,443.7236 325.43821,442.54391 323.58653,441.36557 321.73359,440.18806 315.33606,434.29368 308.93932,428.40195 302.54069,422.51039 Z" />
  </g>
</svg>
