<?xml version="1.0" encoding="UTF-8" standalone="no"?>
<!-- Created with Inkscape (http://www.inkscape.org/) -->

<svg
   xmlns:dc="http://purl.org/dc/elements/1.1/"
   xmlns:cc="http://creativecommons.org/ns#"
   xmlns:rdf="http://www.w3.org/1999/02/22-rdf-syntax-ns#"
   xmlns:svg="http://www.w3.org/2000/svg"
   xmlns="http://www.w3.org/2000/svg"
   xmlns:sodipodi="http://sodipodi.sourceforge.net/DTD/sodipodi-0.dtd"
   xmlns:inkscape="http://www.inkscape.org/namespaces/inkscape"
   width="512"
   height="512"
   viewBox="0 0 135.46666 135.46666"
   version="1.1"
   id="svg8"
   inkscape:version="0.92.4 (5da689c313, 2019-01-14)"
   sodipodi:docname="U+6777.svg">
  <defs
     id="defs2">
    <inkscape:path-effect
       effect="bspline"
       id="path-effect858"
       is_visible="true"
       weight="33.333333"
       steps="2"
       helper_size="0"
       apply_no_weight="true"
       apply_with_weight="true"
       only_selected="false" />
    <inkscape:path-effect
       effect="bspline"
       id="path-effect854"
       is_visible="true"
       weight="33.333333"
       steps="2"
       helper_size="0"
       apply_no_weight="true"
       apply_with_weight="true"
       only_selected="false" />
    <inkscape:path-effect
       effect="bspline"
       id="path-effect850"
       is_visible="true"
       weight="33.333333"
       steps="2"
       helper_size="0"
       apply_no_weight="true"
       apply_with_weight="true"
       only_selected="false" />
    <inkscape:path-effect
       effect="bspline"
       id="path-effect846"
       is_visible="true"
       weight="33.333333"
       steps="2"
       helper_size="0"
       apply_no_weight="true"
       apply_with_weight="true"
       only_selected="false" />
    <inkscape:path-effect
       effect="bspline"
       id="path-effect842"
       is_visible="true"
       weight="33.333333"
       steps="2"
       helper_size="0"
       apply_no_weight="true"
       apply_with_weight="true"
       only_selected="false" />
    <inkscape:path-effect
       effect="bspline"
       id="path-effect838"
       is_visible="true"
       weight="33.333333"
       steps="2"
       helper_size="0"
       apply_no_weight="true"
       apply_with_weight="true"
       only_selected="false" />
    <inkscape:path-effect
       effect="bspline"
       id="path-effect834"
       is_visible="true"
       weight="33.333333"
       steps="2"
       helper_size="0"
       apply_no_weight="true"
       apply_with_weight="true"
       only_selected="false" />
    <inkscape:path-effect
       effect="bspline"
       id="path-effect830"
       is_visible="true"
       weight="33.333333"
       steps="2"
       helper_size="0"
       apply_no_weight="true"
       apply_with_weight="true"
       only_selected="false" />
  </defs>
  <sodipodi:namedview
     id="base"
     pagecolor="#ffffff"
     bordercolor="#666666"
     borderopacity="1.0"
     inkscape:pageopacity="0.0"
     inkscape:pageshadow="2"
     inkscape:zoom="1.979899"
     inkscape:cx="229.10715"
     inkscape:cy="382.04912"
     inkscape:document-units="px"
     inkscape:current-layer="layer1"
     showgrid="false"
     units="px"
     inkscape:window-width="1920"
     inkscape:window-height="1001"
     inkscape:window-x="-9"
     inkscape:window-y="-9"
     inkscape:window-maximized="1">
    <inkscape:grid
       type="xygrid"
       id="grid826" />
  </sodipodi:namedview>
  <metadata
     id="metadata5">
    <rdf:RDF>
      <cc:Work
         rdf:about="">
        <dc:format>image/svg+xml</dc:format>
        <dc:type
           rdf:resource="http://purl.org/dc/dcmitype/StillImage" />
        <dc:title></dc:title>
      </cc:Work>
    </rdf:RDF>
  </metadata>
  <g
     inkscape:label="圖層 1"
     inkscape:groupmode="layer"
     id="layer1"
     transform="translate(0,-161.53336)">
    <path
       style="fill:#000000;stroke:#000000;stroke-width:0.26458332px;stroke-linecap:butt;stroke-linejoin:miter;stroke-opacity:1;fill-opacity:1"
       d="M 27.751545,174.36781 C 28.375287,174.23427 29.889814,174.67972 31.537809,175.57053 33.185805,176.46135 34.967804,177.79784 36.148193,178.97822 37.328583,180.15859 37.907681,181.18314 38.241786,182.31901 38.575891,183.45488 38.664972,184.70203 38.554852,185.96658 38.444732,187.23112 38.130526,188.53283 37.693356,189.80624 37.256186,191.07964 36.660608,192.40823 36.170522,194.16804 35.680435,195.92784 35.27963,198.15454 34.856422,200.58242 34.433213,203.01029 33.987823,205.63809 33.429189,210.28876 32.870556,214.93943 32.206006,221.54064 31.782822,225.97291 31.359639,230.40518 31.181467,232.63233 31.070093,234.94883 30.958719,237.26533 30.914179,239.67044 31.003268,242.05374 31.092357,244.43705 31.315056,246.79766 31.626426,249.35597 31.937797,251.91429 32.339579,254.68212 32.740503,257.95632 33.141427,261.23052 33.542298,265.01653 34.121392,268.09024 34.700485,271.16395 35.457701,273.52468 35.591401,275.41781 35.725101,277.31095 35.23514,278.73629 34.794552,279.81851 34.353963,280.90073 33.943396,281.67625 33.341886,281.96593 32.740376,282.25562 31.938904,282.07751 31.114594,281.11951 30.290284,280.16151 29.444135,278.42468 28.531006,276.88795 27.617877,275.35123 26.63783,274.0148 25.625955,272.88999 24.61408,271.76517 23.519733,270.80762 22.673341,269.8053 21.826949,268.80298 21.203331,267.73392 21.225736,267.19943 21.24814,266.66493 21.916365,266.66493 23.118661,267.0657 24.320956,267.46648 26.058893,268.2686 27.261667,268.6472 28.46444,269.0258 29.132659,268.98125 29.28849,266.86613 29.444321,264.75101 29.087812,260.56203 28.909642,256.6199 28.731473,252.67777 28.731473,248.98033 28.776018,245.41686 28.820563,241.85338 28.909659,238.42318 28.931928,234.83747 28.954197,231.25175 28.909648,227.50968 29.176913,222.76584 29.444179,218.022 30.023304,212.2753 30.513287,207.2641 31.00327,202.25291 31.404194,197.97638 31.763197,194.52455 32.122199,191.07272 32.428736,188.53285 32.60691,187.01835 32.785085,185.50385 32.829634,185.05835 32.362189,183.90088 31.894744,182.74342 30.914122,180.87132 30.045527,179.42366 29.176932,177.97601 28.419627,176.95142 27.907355,176.08276 27.395084,175.2141 27.127803,174.50135 27.751545,174.36781 Z"
       id="path828"
       inkscape:connector-curvature="0"
       inkscape:path-effect="#path-effect830"
       inkscape:original-d="M 26.860586,173.78877 C 28.375378,174.23396 29.889906,174.67941 31.404167,175.12512 33.186027,176.46105 34.968025,177.79755 36.74956,179.13416 37.328894,180.15841 37.90799,181.18297 38.486811,182.20776 38.576171,183.45486 38.665254,184.70201 38.75408,185.94954 38.487023,187.24133 38.130716,188.53288 37.818638,189.82494 37.239679,191.07224 36.660734,192.40829 36.081383,193.70035 35.680646,195.92788 35.279842,198.15458 34.878672,200.38209 34.433426,203.01033 33.988037,205.63813 33.542323,208.26654 32.963438,214.94878 32.206241,221.54066 31.537803,228.17812 31.359881,230.4052 31.181708,232.63235 31.003265,234.85986 30.958979,237.26533 30.914439,239.67044 30.869629,242.07613 31.092644,244.43702 31.315344,246.79763 31.537803,249.15878 31.894464,251.92058 32.339876,254.68208 32.740516,257.44413 33.141717,261.23049 33.542587,265.0165 33.943227,268.80309 34.700804,271.16385 35.45802,273.52458 36.215019,275.88573 35.725257,277.311 35.235296,278.73634 34.745037,280.16204 34.388862,280.91921 33.943492,281.6763 33.542323,282.43383 32.740445,282.25531 31.938972,282.07721 31.136898,281.89929 30.290602,280.16135 29.444456,278.42452 28.597837,276.68754 27.618175,275.35101 26.638127,274.01458 25.657873,272.67849 24.63364,271.74282 23.519982,270.80734 22.450639,269.87217 21.827264,268.8028 21.203646,267.73374 20.579753,266.66493 21.24814,266.66467 21.916365,266.66467 22.584274,266.66493 24.321103,267.46616 26.059042,268.26828 27.796028,269.07036 28.464424,269.02555 29.132642,268.981 29.800551,268.93672 29.444607,264.75099 29.088097,260.56201 28.731473,256.37505 28.731738,252.67777 28.731738,248.98033 28.731473,245.28337 28.82082,241.85339 28.909916,238.42319 28.998742,234.99349 28.954467,231.25175 28.909916,227.50968 28.865106,223.76817 29.444417,218.02202 30.023539,212.27532 30.60236,206.52929 31.003508,202.25293 31.404431,197.9764 31.805071,193.70035 32.117132,191.07211 32.428967,188.53288 32.740516,185.94954 32.785321,185.50387 32.829869,185.05837 32.874149,184.61319 31.895061,182.74325 30.914439,180.87115 29.934187,179.00053 29.177227,177.97579 28.419924,176.9512 27.662395,175.92693 27.395401,175.21398 27.128119,174.50123 26.860586,173.78877 Z" />
    <path
       style="fill:#000000;stroke:#000000;stroke-width:0.26458332px;stroke-linecap:butt;stroke-linejoin:miter;stroke-opacity:1;fill-opacity:1"
       d="M 2.42778,215.59415 C 2.9847248,215.21558 4.6328868,215.48285 6.2141729,215.5051 7.795459,215.52735 9.3101854,215.30459 12.116123,214.54743 14.922061,213.79026 19.020998,212.49821 24.232509,210.91694 29.444019,209.33567 35.769885,207.46464 39.556164,206.44014 43.342442,205.41564 44.589762,205.23745 45.502707,205.48238 46.415651,205.72731 46.994871,206.39564 46.950449,207.10824 46.906028,207.82083 46.237874,208.57808 43.965402,209.60293 41.692931,210.62779 37.818955,211.91912 33.787467,213.25552 29.755979,214.59193 25.569099,215.97271 21.626736,217.39819 17.684372,218.82367 13.987424,220.29354 11.626446,220.93952 9.2654668,221.58549 8.2410229,221.40733 7.0158054,220.78359 5.7905879,220.15984 4.3654434,219.09099 3.3854003,218.0441 2.4053572,216.99722 1.8708352,215.97271 2.42778,215.59415 Z"
       id="path832"
       inkscape:connector-curvature="0"
       inkscape:path-effect="#path-effect834"
       inkscape:original-d="M 1.3363476,214.94828 C 2.9847742,215.21528 4.6329362,215.48255 6.2808336,215.75009 7.7954268,215.52713 9.3101526,215.30437 10.824415,215.08191 14.922009,213.7901 19.020945,212.49804 23.118813,211.20651 29.443967,209.3355 35.769834,207.46447 42.09495,205.59385 43.34241,205.41541 44.58973,205.23722 45.836721,205.05931 46.415934,205.72706 46.995154,206.39539 47.573973,207.06383 46.906045,207.82085 46.23789,208.57809 45.569452,209.33562 41.692876,210.62763 37.818902,211.91896 33.943227,213.21103 29.755927,214.59177 25.569048,215.97255 21.381561,217.3537 17.684317,218.82353 13.987369,220.2934 10.289876,221.76365 9.2655192,221.58519 8.2410746,221.40703 7.216277,221.22911 5.7908089,220.15955 4.3656666,219.09069 2.9399647,218.02188 2.4056743,216.99705 1.8711512,215.97255 1.3363476,214.94828 Z" />
    <path
       style="fill:#000000;stroke:#000000;stroke-width:0.26458332px;stroke-linecap:butt;stroke-linejoin:miter;stroke-opacity:1;fill-opacity:1"
       d="M 29.087865,222.20889 C 28.508867,222.5206 27.885237,224.21331 27.016541,225.99528 26.147846,227.77725 25.03443,229.64779 23.397729,231.61911 21.761028,233.59044 19.555487,235.70595 17.484013,237.91106 15.412539,240.11616 13.452806,242.43221 11.537285,244.32549 9.6217645,246.21876 7.751109,247.68857 5.85781,249.00275 3.9645109,250.31694 2.0493767,251.47493 1.1137737,252.38812 0.1781707,253.30132 0.22270806,253.96938 0.5570292,254.34817 0.89135034,254.72695 1.5147501,254.81601 2.3609596,254.59329 3.2071692,254.37056 4.276628,253.83583 5.9467213,252.83377 7.6168147,251.83171 9.8892817,250.36129 12.450402,248.24556 15.011522,246.12984 17.862782,243.36768 20.379453,240.71736 22.896123,238.06705 25.079031,235.52775 26.638013,233.3674 28.196995,231.20706 29.132544,229.42506 29.711552,227.93292 30.29056,226.44078 30.513325,225.23785 30.357431,224.10219 30.201537,222.96653 29.666862,221.89718 29.087865,222.20889 Z"
       id="path836"
       inkscape:connector-curvature="0"
       inkscape:path-effect="#path-effect838"
       inkscape:original-d="M 29.132378,220.82821 C 28.509011,222.52065 27.885383,224.21336 27.261491,225.90633 26.147922,227.7773 25.034509,229.64784 23.920622,231.51899 21.782374,233.61269 19.555484,235.70595 17.372518,237.79982 15.412564,240.11618 13.45283,242.43223 11.492589,244.74883 9.6217373,246.21873 7.7510805,247.68853 5.8799293,249.15878 3.9644633,250.31686 2.0493309,251.47485 0.13363476,252.63328 0.17845149,253.3013 0.22298918,253.96936 0.2672695,254.6378 0.89139242,254.72666 1.5147918,254.81572 2.1381561,254.90507 3.2071179,254.37046 4.2765769,253.83573 5.3453903,253.30145 7.6167712,251.83164 9.8892366,250.36122 12.160763,248.89151 15.011517,246.12983 17.862777,243.36767 20.713387,240.60615 22.896147,238.06707 25.079054,235.52777 27.261491,232.98897 28.197094,231.20711 29.132642,229.42511 30.06782,227.64358 30.290771,226.44082 30.513534,225.23789 30.735993,224.03544 30.201855,222.96637 29.66718,221.89702 29.132378,220.82821 Z" />
    <path
       style="fill:#000000;stroke:#000000;stroke-width:0.26458332px;stroke-linecap:butt;stroke-linejoin:miter;stroke-opacity:1;fill-opacity:1"
       d="M 29.644925,228.97986 C 30.780785,228.80177 32.161677,228.89086 33.742832,229.1581 35.323988,229.42535 37.106104,229.87088 38.598282,230.29404 40.090459,230.71719 41.293299,231.11814 42.295439,231.65262 43.29758,232.1871 44.099495,232.85536 44.767631,233.54576 45.435768,234.23616 45.970322,234.9489 46.429428,235.71024 46.888534,236.47157 47.306649,237.35426 47.195375,238.24513 47.084101,239.13599 46.460554,240.07131 45.636282,240.36097 44.812009,240.65064 43.787808,240.29439 42.451297,239.60387 41.114787,238.91334 39.466872,237.88896 38.007261,236.9384 36.547651,235.98784 35.235089,235.08262 34.010147,234.50353 32.785206,233.92444 31.627088,233.65719 30.691619,233.52353 29.756151,233.38987 29.043552,233.38987 28.286107,233.30077 27.528661,233.21167 26.727146,233.03356 26.459857,232.47646 26.192568,231.91935 26.459773,230.98413 27.038822,230.29384 27.61787,229.60355 28.509066,229.15795 29.644925,228.97986 Z"
       id="path840"
       inkscape:connector-curvature="0"
       inkscape:path-effect="#path-effect842"
       inkscape:original-d="M 29.399647,228.71266 C 30.780803,228.80148 32.161695,228.89057 33.542323,228.97993 35.324067,229.42503 37.106183,229.87056 38.887716,230.31628 40.090567,230.71687 41.293405,231.11782 42.495852,231.51899 43.297819,232.18681 44.099734,232.85507 44.901279,233.52351 45.436065,234.23594 45.970622,234.94868 46.504895,235.66167 46.906088,236.46326 47.306968,237.35411 47.707608,238.20073 47.08416,239.13603 46.460614,240.07135 45.836721,241.00706 44.81212,240.65032 43.78792,240.29407 42.763123,239.93798 41.114978,238.91303 39.467063,237.88865 37.818638,236.86438 36.527042,236.01772 35.235296,235.08232 33.943227,234.19168 32.785276,233.92414 31.627158,233.65688 30.468725,233.38987 29.756151,233.38961 29.043552,233.38961 28.330569,233.38987 27.528728,233.21137 26.727215,233.03325 25.925143,232.85534 26.192742,231.9194 26.459946,230.98418 26.72695,230.04901 27.617815,229.60344 28.509011,229.15784 29.399647,228.71266 Z" />
    <path
       style="fill:#000000;stroke:#000000;stroke-width:0.26458332px;stroke-linecap:butt;stroke-linejoin:miter;stroke-opacity:1;fill-opacity:1"
       d="M 59.155731,204.56919 C 60.135768,204.52482 62.006656,205.32663 63.679127,205.6605 65.351599,205.99436 66.817666,205.86109 69.267309,205.4825 71.716953,205.10392 75.147579,204.48017 78.933722,203.56703 82.719864,202.65389 86.862909,201.45108 89.067825,200.67145 91.272742,199.89183 91.540034,199.53544 91.540005,199.02353 91.539977,198.51163 91.272484,197.8429 91.40624,197.30836 91.539995,196.77381 92.074645,196.37282 92.965149,196.30606 93.855653,196.2393 95.103602,196.50672 96.261644,196.88532 97.419685,197.26392 98.488937,197.75399 99.446563,198.33303 100.40419,198.91206 101.25064,199.58031 101.73733,200.33793 102.22401,201.09554 102.36419,202.03003 102.16217,202.76513 101.96015,203.50023 101.33995,204.16814 100.62707,204.70283 99.914198,205.23752 99.068216,205.68277 98.221704,206.03921 97.375193,206.39565 96.529156,206.66282 95.927659,207.13056 95.326163,207.5983 94.969935,208.26623 94.613493,208.93456 94.25705,209.60289 93.900859,210.27075 92.987308,212.83313 92.073758,215.39552 90.604471,219.8479 89.691293,222.56517 88.778115,225.28245 88.421781,226.26237 87.976329,226.77479 87.530876,227.28721 86.996511,227.33174 86.555481,227.27686 86.114451,227.22198 85.660004,227.02001 85.61546,225.52715 85.570916,224.03429 85.882636,221.22882 86.083072,218.534 86.283509,215.83917 86.372608,213.2553 86.550807,211.429 86.729007,209.60269 86.996304,208.5335 86.929485,207.68736 86.862666,206.84122 86.461644,206.21741 85.704622,206.12826 84.9476,206.03912 83.833856,206.48462 80.514467,207.62078 77.195079,208.75695 71.673092,210.58277 68.488074,211.47373 65.303055,212.36468 64.456747,212.32014 63.454224,211.91914 62.4517,211.51814 61.293873,210.7611 60.358354,209.78101 59.422835,208.80093 58.710153,207.59829 58.398375,206.55141 58.086598,205.50453 58.175694,204.61357 59.155731,204.56919 Z"
       id="path844"
       inkscape:connector-curvature="0"
       inkscape:path-effect="#path-effect846"
       inkscape:original-d="M 58.264755,203.72296 C 60.135905,204.5245 62.006792,205.32631 63.877414,206.12838 65.347561,205.94995 66.817644,205.86085 68.287362,205.72748 71.716915,205.10371 75.147542,204.47996 78.577238,203.85659 82.719813,202.65372 86.862857,201.4509 91.005269,200.24846 91.272784,199.89186 91.540074,199.53547 91.807078,199.17938 91.540296,198.5115 91.272803,197.84277 91.005269,197.17486 91.539963,196.77377 92.074612,196.37278 92.608887,195.97214 93.855718,196.239 95.103667,196.50642 96.350659,196.77395 97.419832,197.2636 98.48908,197.75368 99.557893,198.24393 100.40442,198.91177 101.25087,199.58002 102.09695,200.24846 102.23085,201.09451 102.36449,202.02999 102.49786,202.92115 102.00801,203.54467 101.33995,204.16814 100.76061,204.79204 99.914147,205.23742 99.068165,205.68267 98.221546,206.12838 97.375142,206.39549 96.529105,206.66266 95.682486,206.93019 95.326259,207.59835 94.970032,208.26628 94.613408,208.93472 94.257144,209.60294 93.900954,210.2708 93.54433,210.93924 92.073919,215.39557 90.604629,219.84795 89.134382,224.30271 88.778263,225.2825 88.421928,226.26242 88.065304,227.24268 87.530856,227.28697 86.996491,227.3315 86.461688,227.37631 86.105403,227.24234 85.660144,227.01969 85.258974,226.84177 85.571148,224.03432 85.882867,221.22885 86.194419,218.42278 86.283764,215.83918 86.372862,213.25531 86.461688,210.67197 86.729193,209.60274 86.996491,208.53355 87.263497,207.46473 86.862974,206.84102 86.461953,206.21721 86.060784,205.59385 84.947544,206.03898 83.833802,206.48448 82.719914,206.93019 77.195025,208.75679 71.673039,210.58261 66.149206,212.40922 65.303069,212.36441 64.456762,212.31986 63.610145,212.27558 62.4519,211.51783 61.294073,210.76079 60.13564,210.00379 59.423146,208.80075 58.710467,207.5981 57.997484,206.39566 58.086834,205.50455 58.17593,204.61359 58.264755,203.72296 Z" />
    <path
       style="fill:#000000;stroke:#000000;stroke-width:0.26458332px;stroke-linecap:butt;stroke-linejoin:miter;stroke-opacity:1;fill-opacity:1"
       d="M 70.291902,215.23778 C 70.648335,214.59197 72.207407,215.43833 73.766404,216.46281 75.325401,217.4873 76.884571,218.69008 77.975872,219.80364 79.067173,220.9172 79.690818,221.94176 79.824518,222.94393 79.958219,223.94611 79.601885,224.92603 78.822146,225.10429 78.042407,225.28255 76.840088,224.65912 75.570455,223.70133 74.300821,222.74354 72.964583,221.45184 71.873201,219.73679 70.78182,218.02174 69.935468,215.88359 70.291902,215.23778 Z"
       id="path848"
       inkscape:connector-curvature="0"
       inkscape:path-effect="#path-effect850"
       inkscape:original-d="M 69.089169,213.74557 C 70.648506,214.59166 72.207579,215.43801 73.766385,216.28463 75.32563,217.487 76.884796,218.68979 78.443602,219.89276 79.067481,220.91701 79.691125,221.94157 80.314489,222.96636 79.958368,223.94616 79.602035,224.92608 79.245411,225.90633 78.042573,225.28223 76.840251,224.65881 75.637272,224.03544 74.301079,222.74327 72.964843,221.45157 71.628229,220.16003 70.782137,218.02161 69.935788,215.88346 69.089169,213.74557 Z" />
    <path
       style="fill:#000000;stroke:#000000;stroke-width:0.26458332px;stroke-linecap:butt;stroke-linejoin:miter;stroke-opacity:1;fill-opacity:1"
       d="M 58.688187,232.45426 C 60.091393,231.9644 62.452276,231.60803 65.503371,230.98445 68.554467,230.36086 72.296711,229.46985 76.298655,228.46359 80.300599,227.45733 84.502023,226.35169 87.219195,225.79492 89.936368,225.23815 91.139169,225.23815 92.208115,225.32724 93.277061,225.41633 94.21271,225.59456 95.081161,225.99539 95.949613,226.39621 96.751601,227.01998 96.818551,227.64346 96.885501,228.26693 96.217302,228.89058 94.991958,229.29164 93.766614,229.69269 91.985545,229.8708 88.889322,230.3163 85.7931,230.76179 81.383867,231.47439 77.686541,232.16485 73.989215,232.85531 71.004908,233.52344 69.245335,234.12472 67.485762,234.72601 66.951275,235.2605 66.411237,235.89142 65.871198,236.52234 65.347621,237.22044 64.389634,237.55467 63.431646,237.8889 62.051328,237.84437 60.670255,237.57708 59.289183,237.30979 57.908545,236.81989 57.195741,236.21834 56.482937,235.6168 56.438397,234.90416 56.638886,234.23607 56.839375,233.56797 57.284981,232.94413 58.688187,232.45426 Z"
       id="path852"
       inkscape:connector-curvature="0"
       inkscape:path-effect="#path-effect854"
       inkscape:original-d="M 57.730215,232.3208 C 60.091359,231.96417 62.452242,231.60781 64.812857,231.25172 68.554422,230.36067 72.296667,229.46966 76.038177,228.57902 80.314399,227.50977 84.501975,226.35151 88.73348,225.23815 89.936368,225.23789 91.139169,225.23789 92.341616,225.23815 93.277119,225.41603 94.212768,225.59425 95.147948,225.7727 95.949842,226.39592 96.751828,227.01969 97.553373,227.64358 96.885493,228.26692 96.217291,228.89057 95.548853,229.51447 93.76659,229.69245 91.985521,229.87056 90.20346,230.04901 85.793065,230.76158 81.383832,231.47418 76.973619,232.18716 73.989172,232.85512 71.004866,233.52325 68.020091,234.19168 67.485762,234.72601 66.951277,235.2605 66.416475,235.7953 65.792802,236.46354 65.347661,237.22047 64.812857,237.93346 63.431655,237.88863 62.051337,237.8441 60.67018,237.79982 59.289296,237.30947 57.908658,236.81957 56.527501,236.32984 56.483218,235.61678 56.438678,234.90414 56.393868,234.19168 56.839427,233.56801 57.28503,232.94416 57.730215,232.3208 Z" />
    <path
       style="fill:#000000;stroke:#000000;stroke-width:0.26458332px;stroke-linecap:butt;stroke-linejoin:miter;stroke-opacity:1;fill-opacity:1"
       d="M 51.093085,212.29777 C 51.716809,212.18655 53.053157,212.632 54.545287,213.27785 56.037416,213.9237 57.685771,214.77015 58.955749,215.66048 60.225728,216.55082 61.204715,217.57643 61.801525,218.43217 62.398334,219.28791 62.674646,220.07079 62.47419,221.89734 62.273734,223.7239 61.605695,226.61874 61.004306,229.33612 60.402917,232.0535 59.868437,234.59228 59.378432,236.59688 58.888427,238.60149 58.44303,240.0713 58.175708,241.92017 57.908386,243.76904 57.819316,245.99581 58.019766,247.77775 58.220215,249.5597 58.710151,250.89589 59.44521,252.16554 60.180269,253.4352 61.160149,254.63777 62.299212,255.49877 63.438276,256.35976 64.812994,256.90965 66.661536,257.31052 68.510077,257.7114 70.871198,257.9787 73.655105,258.22368 76.439012,258.46866 79.646561,258.6914 83.232291,258.6914 86.818022,258.69139 90.782824,258.46865 94.413126,258.15684 98.043428,257.84503 101.33998,257.4441 104.56936,256.8873 107.79873,256.3305 110.9617,255.61772 113.61201,255.10548 116.26232,254.59324 118.40069,254.2814 119.64791,253.94722 120.89513,253.61305 121.25154,253.25664 121.80799,251.94339 122.36444,250.63013 123.12226,248.35665 123.87949,246.28544 124.63671,244.21424 125.39408,242.34309 125.92861,241.11815 126.46314,239.89322 126.77501,239.31404 127.2549,239.56475 127.73478,239.81547 128.42296,240.96243 128.93524,242.34332 129.44752,243.72421 129.80385,245.37226 130.09341,246.86458 130.38297,248.35691 130.60567,249.6931 131.07349,250.60644 131.54131,251.51977 132.25392,252.00969 132.81066,252.70002 133.3674,253.39035 133.76834,254.28132 133.38981,254.88272 133.01129,255.48411 131.85327,255.79588 129.71469,256.33053 127.57612,256.86518 124.45882,257.62224 121.00639,258.26818 117.55396,258.91413 113.76802,259.44861 109.95928,260.00544 106.15054,260.56227 102.31997,261.14131 98.422136,261.63133 94.524299,262.12135 90.560108,262.52222 87.441855,262.61133 84.323602,262.70044 82.051977,262.47773 79.802348,262.29954 77.55272,262.12135 75.325706,261.98773 73.410164,261.765 71.494622,261.54227 69.891183,261.23049 68.042414,260.74046 66.193644,260.25043 64.1003,259.58234 62.630198,258.78046 61.160095,257.97858 60.313809,257.04321 59.311553,255.88505 58.309297,254.72689 57.151113,253.34598 56.193387,251.87597 55.23566,250.40595 54.478383,248.84685 54.099777,247.04278 53.721172,245.2387 53.721172,243.18949 53.966171,241.05146 54.21117,238.91343 54.701229,236.68589 55.257986,233.56803 55.814744,230.45017 56.43846,226.44057 56.750251,224.16881 57.062042,221.89706 57.062042,221.36248 56.57229,220.60559 56.082537,219.84871 55.012976,218.77914 53.943887,217.59869 52.874798,216.41824 51.761174,215.08189 51.159814,214.07953 50.558454,213.07718 50.469361,212.40899 51.093085,212.29777 Z"
       id="path856"
       inkscape:connector-curvature="0"
       inkscape:path-effect="#path-effect858"
       inkscape:original-d="M 50.380302,211.74105 C 51.716916,212.18623 53.053263,212.63168 54.389345,213.07739 56.037578,213.92338 57.685934,214.76983 59.333833,215.61645 60.224939,216.55157 61.204983,217.57617 62.140163,218.55642 62.452244,219.26888 62.674965,220.07068 62.941969,220.82821 62.273928,223.72394 61.605887,226.61878 60.937449,229.51447 60.403118,232.05354 59.868636,234.59232 59.333833,237.13165 58.888593,238.60154 58.443198,240.07135 57.997484,241.5416 57.90864,243.76905 57.81957,245.99582 57.730215,248.22333 58.220533,249.55958 58.710467,250.89577 59.200198,252.23238 60.180558,253.43496 61.160437,254.63754 62.140163,255.84052 63.432261,256.3748 64.813121,256.90933 66.149206,257.44413 68.51011,257.71111 70.87123,257.97841 73.231848,258.24594 76.439031,258.46838 79.64658,258.69113 82.85355,258.91411 86.818008,258.69114 90.78281,258.4684 94.747043,258.24594 98.0434,257.8448 101.33995,257.44387 104.63601,257.04323 107.79869,256.33031 110.96166,255.61752 114.12408,254.90507 116.26229,254.59302 118.40066,254.28118 120.53855,253.96963 120.89513,253.61305 121.25153,253.25664 121.60763,252.90055 122.36459,250.63018 123.12242,248.3567 123.87942,246.08518 124.63684,244.21429 125.39421,242.34314 126.15121,240.47252 126.46324,239.89327 126.7751,239.31409 127.08666,238.73526 127.75473,239.8035 128.42327,240.96225 129.09118,242.07613 129.44782,243.72415 129.80416,245.37219 130.16025,247.02062 130.38327,248.35686 130.60597,249.69305 130.82843,251.02966 131.54152,251.51947 132.25413,252.00939 132.96658,252.49965 133.36772,253.39021 133.76866,254.28118 134.1693,255.17234 133.01124,255.48393 131.85322,255.79571 130.69479,256.10778 127.57607,256.86499 124.45877,257.62205 121.34036,258.37958 117.55393,258.9139 113.76799,259.44839 109.9814,259.98319 106.15051,260.56206 102.31994,261.1411 98.488815,261.72044 94.524275,262.12111 90.560084,262.52199 86.595321,262.92316 84.32363,262.70015 82.052005,262.47744 79.779949,262.25498 77.552737,262.12107 75.325723,261.98745 73.098212,261.85408 71.494681,261.54197 69.891242,261.23019 68.287362,260.91864 66.193746,260.25011 64.100402,259.58202 62.006527,258.91411 61.160371,257.97833 60.314086,257.04296 59.467467,256.10778 58.309581,254.72665 57.151397,253.34574 55.992964,251.96511 55.235978,250.4058 54.4787,248.8467 53.721172,247.28789 53.721437,245.2387 53.721437,243.18949 53.721172,241.14069 54.211368,238.91347 54.701424,236.68593 55.191155,234.45895 55.814963,230.4502 56.438678,226.4406 57.062042,222.43183 57.062306,221.89706 57.062306,221.36248 57.062042,220.82821 56.082803,219.84844 55.013241,218.77888 53.988441,217.75461 52.875085,216.418 51.761461,215.08165 50.647574,213.74557 50.55875,213.07714 50.469657,212.40895 50.380302,211.74105 Z" />
  </g>
</svg>
