<?xml version="1.0" encoding="UTF-8" standalone="no"?>
<!-- Created with Inkscape (http://www.inkscape.org/) -->

<svg
   xmlns:dc="http://purl.org/dc/elements/1.1/"
   xmlns:cc="http://creativecommons.org/ns#"
   xmlns:rdf="http://www.w3.org/1999/02/22-rdf-syntax-ns#"
   xmlns:svg="http://www.w3.org/2000/svg"
   xmlns="http://www.w3.org/2000/svg"
   xmlns:sodipodi="http://sodipodi.sourceforge.net/DTD/sodipodi-0.dtd"
   xmlns:inkscape="http://www.inkscape.org/namespaces/inkscape"
   width="512"
   height="512"
   viewBox="0 0 135.46666 135.46666"
   version="1.1"
   id="svg8"
   inkscape:version="0.92.4 (5da689c313, 2019-01-14)"
   sodipodi:docname="U+6B77.svg">
  <defs
     id="defs2">
    <inkscape:path-effect
       effect="bspline"
       id="path-effect929"
       is_visible="true"
       weight="33.333333"
       steps="2"
       helper_size="0"
       apply_no_weight="true"
       apply_with_weight="true"
       only_selected="false" />
    <inkscape:path-effect
       effect="bspline"
       id="path-effect925"
       is_visible="true"
       weight="33.333333"
       steps="2"
       helper_size="0"
       apply_no_weight="true"
       apply_with_weight="true"
       only_selected="false" />
    <inkscape:path-effect
       effect="bspline"
       id="path-effect921"
       is_visible="true"
       weight="33.333333"
       steps="2"
       helper_size="0"
       apply_no_weight="true"
       apply_with_weight="true"
       only_selected="false" />
    <inkscape:path-effect
       effect="bspline"
       id="path-effect917"
       is_visible="true"
       weight="33.333333"
       steps="2"
       helper_size="0"
       apply_no_weight="true"
       apply_with_weight="true"
       only_selected="false" />
    <inkscape:path-effect
       effect="bspline"
       id="path-effect913"
       is_visible="true"
       weight="33.333333"
       steps="2"
       helper_size="0"
       apply_no_weight="true"
       apply_with_weight="true"
       only_selected="false" />
    <inkscape:path-effect
       effect="bspline"
       id="path-effect909"
       is_visible="true"
       weight="33.333333"
       steps="2"
       helper_size="0"
       apply_no_weight="true"
       apply_with_weight="true"
       only_selected="false" />
    <inkscape:path-effect
       effect="bspline"
       id="path-effect905"
       is_visible="true"
       weight="33.333333"
       steps="2"
       helper_size="0"
       apply_no_weight="true"
       apply_with_weight="true"
       only_selected="false" />
    <inkscape:path-effect
       effect="bspline"
       id="path-effect901"
       is_visible="true"
       weight="33.333333"
       steps="2"
       helper_size="0"
       apply_no_weight="true"
       apply_with_weight="true"
       only_selected="false" />
    <inkscape:path-effect
       effect="bspline"
       id="path-effect897"
       is_visible="true"
       weight="33.333333"
       steps="2"
       helper_size="0"
       apply_no_weight="true"
       apply_with_weight="true"
       only_selected="false" />
    <inkscape:path-effect
       effect="bspline"
       id="path-effect893"
       is_visible="true"
       weight="33.333333"
       steps="2"
       helper_size="0"
       apply_no_weight="true"
       apply_with_weight="true"
       only_selected="false" />
    <inkscape:path-effect
       effect="bspline"
       id="path-effect889"
       is_visible="true"
       weight="33.333333"
       steps="2"
       helper_size="0"
       apply_no_weight="true"
       apply_with_weight="true"
       only_selected="false" />
    <inkscape:path-effect
       effect="bspline"
       id="path-effect885"
       is_visible="true"
       weight="33.333333"
       steps="2"
       helper_size="0"
       apply_no_weight="true"
       apply_with_weight="true"
       only_selected="false" />
    <inkscape:path-effect
       effect="bspline"
       id="path-effect881"
       is_visible="true"
       weight="33.333333"
       steps="2"
       helper_size="0"
       apply_no_weight="true"
       apply_with_weight="true"
       only_selected="false" />
    <inkscape:path-effect
       effect="bspline"
       id="path-effect877"
       is_visible="true"
       weight="33.333333"
       steps="2"
       helper_size="0"
       apply_no_weight="true"
       apply_with_weight="true"
       only_selected="false" />
    <inkscape:path-effect
       effect="bspline"
       id="path-effect873"
       is_visible="true"
       weight="33.333333"
       steps="2"
       helper_size="0"
       apply_no_weight="true"
       apply_with_weight="true"
       only_selected="false" />
    <inkscape:path-effect
       effect="bspline"
       id="path-effect858"
       is_visible="true"
       weight="33.333333"
       steps="2"
       helper_size="0"
       apply_no_weight="true"
       apply_with_weight="true"
       only_selected="false" />
    <inkscape:path-effect
       effect="bspline"
       id="path-effect854"
       is_visible="true"
       weight="33.333333"
       steps="2"
       helper_size="0"
       apply_no_weight="true"
       apply_with_weight="true"
       only_selected="false" />
    <inkscape:path-effect
       effect="bspline"
       id="path-effect850"
       is_visible="true"
       weight="33.333333"
       steps="2"
       helper_size="0"
       apply_no_weight="true"
       apply_with_weight="true"
       only_selected="false" />
    <inkscape:path-effect
       effect="bspline"
       id="path-effect846"
       is_visible="true"
       weight="33.333333"
       steps="2"
       helper_size="0"
       apply_no_weight="true"
       apply_with_weight="true"
       only_selected="false" />
    <inkscape:path-effect
       effect="bspline"
       id="path-effect842"
       is_visible="true"
       weight="33.333333"
       steps="2"
       helper_size="0"
       apply_no_weight="true"
       apply_with_weight="true"
       only_selected="false" />
    <inkscape:path-effect
       effect="bspline"
       id="path-effect838"
       is_visible="true"
       weight="33.333333"
       steps="2"
       helper_size="0"
       apply_no_weight="true"
       apply_with_weight="true"
       only_selected="false" />
    <inkscape:path-effect
       effect="bspline"
       id="path-effect834"
       is_visible="true"
       weight="33.333333"
       steps="2"
       helper_size="0"
       apply_no_weight="true"
       apply_with_weight="true"
       only_selected="false" />
    <inkscape:path-effect
       effect="bspline"
       id="path-effect830"
       is_visible="true"
       weight="33.333333"
       steps="2"
       helper_size="0"
       apply_no_weight="true"
       apply_with_weight="true"
       only_selected="false" />
  </defs>
  <sodipodi:namedview
     id="base"
     pagecolor="#ffffff"
     bordercolor="#666666"
     borderopacity="1.0"
     inkscape:pageopacity="0.0"
     inkscape:pageshadow="2"
     inkscape:zoom="1.979899"
     inkscape:cx="240.52309"
     inkscape:cy="322.71436"
     inkscape:document-units="px"
     inkscape:current-layer="layer1"
     showgrid="false"
     units="px"
     inkscape:window-width="1920"
     inkscape:window-height="1001"
     inkscape:window-x="-9"
     inkscape:window-y="-9"
     inkscape:window-maximized="1">
    <inkscape:grid
       type="xygrid"
       id="grid826" />
  </sodipodi:namedview>
  <metadata
     id="metadata5">
    <rdf:RDF>
      <cc:Work
         rdf:about="">
        <dc:format>image/svg+xml</dc:format>
        <dc:type
           rdf:resource="http://purl.org/dc/dcmitype/StillImage" />
        <dc:title></dc:title>
      </cc:Work>
    </rdf:RDF>
  </metadata>
  <g
     inkscape:label="圖層 1"
     inkscape:groupmode="layer"
     id="layer1"
     transform="translate(0,-161.53336)">
    <path
       style="fill:#000000;stroke:#000000;stroke-width:0.26458332px;stroke-linecap:butt;stroke-linejoin:miter;stroke-opacity:1;fill-opacity:1"
       d="M 70.447969,171.76196 C 70.915818,171.24965 72.742161,170.84874 74.434697,170.73741 76.127234,170.62608 77.68657,170.80429 79.17866,171.22743 80.670751,171.65057 82.096401,172.31885 83.276726,173.321 84.457052,174.32315 85.392573,175.65961 86.230023,177.06723 87.067473,178.47485 87.842528,180.02496 88.128502,181.33837 88.414477,182.65179 88.243534,183.67744 87.820395,184.39028 87.397257,185.10311 86.729271,185.45937 86.172199,185.41481 85.615127,185.37024 85.169887,184.925 84.457173,184.23456 83.744458,183.54412 82.764467,182.60867 81.829019,181.6955 80.89357,180.78232 80.002674,179.89143 79.289942,179.11187 78.57721,178.33232 78.042673,177.66415 77.530421,177.04054 77.018169,176.41693 76.528152,175.83782 75.570542,175.25879 74.612931,174.67975 73.187437,174.10064 72.029185,173.49925 70.870934,172.89785 69.98012,172.27428 70.447969,171.76196 Z"
       id="path871"
       inkscape:connector-curvature="0"
       inkscape:path-effect="#path-effect873"
       inkscape:original-d="M 69.089169,171.65062 C 70.915775,171.24945 72.742117,170.84854 74.568194,170.4479 76.127267,170.62579 77.686603,170.804 79.245411,170.98244 80.670901,171.65025 82.09655,172.31853 83.521723,172.98697 84.457356,174.32294 85.392875,175.6594 86.328053,176.99601 87.085613,178.46578 87.842845,180.0248 88.599844,181.53959 88.421917,182.65303 88.24375,183.67748 88.065304,184.74682 87.397207,185.10302 86.729222,185.45928 86.060784,185.8159 85.615389,185.36998 85.170149,184.92474 84.724437,184.47955 83.744711,183.54385 82.764724,182.6084 81.784472,181.67322 80.893831,180.78206 80.00294,179.89116 79.111775,179.00053 78.577502,178.33209 78.042962,177.66392 77.50816,176.99601 77.018453,176.41669 76.528437,175.83758 76.038177,175.25876 74.613062,174.67943 73.187567,174.10032 71.761865,173.5215 70.871145,172.89755 69.980333,172.27398 69.089169,171.65062 Z" />
    <path
       style="fill:#000000;stroke:#000000;stroke-width:0.26458332px;stroke-linecap:butt;stroke-linejoin:miter;stroke-opacity:1;fill-opacity:1"
       d="M 44.121768,187.08536 C 44.812285,186.97412 46.460442,187.86502 48.019511,188.53318 49.578581,189.20134 51.048648,189.64681 52.874916,189.82497 54.701185,190.00312 56.884135,189.91402 59.400755,189.66903 61.917374,189.42405 64.768607,189.02309 68.309713,188.44404 71.850819,187.86499 76.083024,187.10765 79.691053,186.50631 83.299082,185.90498 86.283804,185.4595 89.334977,184.9918 92.38615,184.5241 95.504606,184.03406 98.199463,183.63317 100.89432,183.23229 103.16633,182.92044 104.90352,182.47497 106.6407,182.0295 107.84356,181.45035 108.95705,180.82678 110.07053,180.20322 111.09533,179.53487 112.16425,179.00043 113.23316,178.46599 114.34712,178.06497 115.26016,177.88685 116.17319,177.70873 116.88611,177.75329 118.42245,178.24314 119.95878,178.73299 122.32048,179.66876 124.0354,180.47054 125.75032,181.27233 126.81946,181.94054 127.44302,182.56404 128.06658,183.18755 128.24477,183.76667 127.97758,184.25672 127.71039,184.74676 126.99788,185.14755 125.77249,185.37037 124.5471,185.59319 122.81062,185.63772 121.25137,185.39271 119.69213,185.1477 118.31144,184.61324 116.73008,184.36822 115.14871,184.12319 113.36709,184.16773 111.3624,184.21228 109.35771,184.25683 107.1308,184.30137 104.36883,184.5241 101.60686,184.74684 98.310929,185.14769 94.635795,185.63771 90.960661,186.12772 86.907434,186.70675 83.455104,187.30812 80.002774,187.90949 77.152107,188.53307 74.679754,189.13445 72.207402,189.73583 70.114013,190.31485 68.287556,190.98305 66.4611,191.65124 64.902262,192.40839 63.231632,192.8762 61.561002,193.344 59.779568,193.52214 57.908422,193.67659 56.037275,193.83103 53.988721,193.9676 52.273554,193.67805 50.558386,193.38849 49.133149,192.67587 47.796732,191.8963 46.460315,191.11672 45.213152,190.27043 44.455829,189.2903 43.698507,188.31017 43.431251,187.1966 44.121768,187.08536 Z"
       id="path875"
       inkscape:connector-curvature="0"
       inkscape:path-effect="#path-effect877"
       inkscape:original-d="M 43.164028,186.08317 C 44.812453,186.97381 46.460614,187.8647 48.108513,188.75587 49.578676,189.20103 51.048743,189.6465 52.518461,190.09221 54.701175,190.00287 56.884125,189.91377 59.066562,189.82494 61.917344,189.42383 64.768576,189.02287 67.619186,188.62223 71.850781,187.86478 76.082987,187.10744 80.314489,186.35044 83.29905,185.90476 86.283772,185.45928 89.268018,185.01409 92.386116,184.52388 95.504572,184.03384 98.622451,183.54411 100.89429,183.23206 103.1663,182.92022 105.43782,182.60867 106.64065,182.02939 107.84351,181.45024 109.04596,180.87142 110.07049,180.20315 111.09529,179.5348 112.11956,178.86689 113.23311,178.46585 114.34707,178.06482 115.46043,177.66418 116.17321,177.70845 116.88613,177.75301 117.59859,177.79782 119.95891,178.73267 122.32061,179.66844 124.68123,180.60415 125.75051,181.27202 126.81965,181.94023 127.88846,182.60867 128.06689,183.18745 128.24509,183.76657 128.423,184.34592 127.71034,184.74668 126.99783,185.14746 126.28485,185.54863 124.54709,185.59293 122.81061,185.63746 121.07309,185.68227 119.69225,185.14738 118.31157,184.61292 116.93041,184.07865 115.1487,184.12293 113.36708,184.16748 111.58502,184.21228 109.3577,184.25657 107.13079,184.30111 104.90328,184.34592 101.60683,184.74661 98.310901,185.14746 95.014312,185.54863 90.960629,186.1275 86.907403,186.70654 82.85355,187.28588 80.002731,187.90929 77.152065,188.53288 74.300926,189.15677 72.207352,189.73565 70.113966,190.31468 68.020091,190.89402 66.461049,191.65114 64.902212,192.40829 63.342874,193.16581 61.560979,193.34377 59.779545,193.52191 57.997484,193.70035 56.037456,193.83374 53.988705,193.96736 51.98392,194.10126 50.558547,193.38817 49.13331,192.67555 47.707608,191.9631 46.460521,191.11642 45.213358,190.27013 43.965834,189.42404 43.698817,188.3101 43.431561,187.19653 43.164028,186.08317 Z" />
    <path
       style="fill:#000000;stroke:#000000;stroke-width:0.26458332px;stroke-linecap:butt;stroke-linejoin:miter;stroke-opacity:1;fill-opacity:1"
       d="M 51.494044,194.07885 C 51.004044,194.81366 50.42496,196.46182 49.957199,197.84282 49.489438,199.22382 49.133147,200.33723 48.84355,201.51786 48.553952,202.69848 48.331291,203.94538 48.398097,205.0592 48.464904,206.17302 48.821176,207.15277 49.133874,208.31529 49.446573,209.47782 49.71209,210.8054 49.801199,212.4314 49.890309,214.0574 49.801232,215.97254 49.778953,217.99949 49.756675,220.02645 49.801214,222.1643 49.667592,224.03526 49.533971,225.90622 49.222195,227.50964 48.84445,229.37628 48.466704,231.24292 48.019486,233.38957 47.5072,235.30512 46.994913,237.22067 46.415914,238.91313 45.747673,240.78421 45.079432,242.65528 44.322311,244.70397 43.008121,247.37692 41.693932,250.04987 39.823332,253.34569 38.219654,256.1744 36.615975,259.00311 35.279754,261.36377 33.74285,263.88074 32.205946,266.39771 30.468925,269.07005 28.553391,271.67608 26.637857,274.28212 24.544485,276.82089 22.695789,278.98142 20.847092,281.14195 19.243655,282.92355 17.862678,284.39363 16.481702,285.86371 15.323719,287.02169 13.898113,288.06865 12.472506,289.11561 10.780186,290.05084 9.9336748,290.69673 9.0871636,291.34262 9.0871636,291.69891 9.6668192,291.83263 10.246475,291.96636 11.403783,291.87733 12.833215,291.39665 14.262647,290.91597 16.03649,290.00631 17.987674,288.70379 19.938857,287.40127 22.050028,285.72992 24.09894,283.81462 26.147853,281.89931 28.108098,279.76086 29.978852,277.48921 31.849607,275.21757 33.631635,272.81183 35.368763,270.18385 37.10589,267.55587 38.798809,264.70464 40.424599,261.67576 42.050388,258.64688 43.60963,255.4393 45.034988,252.18768 46.460346,248.93606 47.752279,245.63941 48.732203,242.38779 49.712127,239.13618 50.380367,235.92863 51.070779,232.6102 51.761192,229.29177 52.473979,225.86148 52.96395,223.18887 53.453921,220.51627 53.721213,218.60067 53.698923,216.88585 53.676633,215.17103 53.36477,213.65627 52.986167,211.98597 52.607564,210.31567 52.162055,208.48908 51.738902,207.28646 51.31575,206.08384 50.914805,205.5047 50.80347,204.48012 50.692136,203.45554 50.870333,201.98541 51.182134,200.53783 51.493935,199.09026 51.939473,197.66454 52.228975,196.52874 52.518478,195.39295 52.652142,194.54641 52.518615,194.03435 52.385089,193.52229 51.984045,193.34405 51.494044,194.07885 Z"
       id="path879"
       inkscape:connector-curvature="0"
       inkscape:path-effect="#path-effect881"
       inkscape:original-d="M 51.583016,193.16581 C 51.004198,194.81371 50.425112,196.46187 49.845764,198.1103 49.489601,199.22387 49.13331,200.33728 48.776686,201.45117 48.554164,202.69852 48.331501,203.94542 48.108513,205.19294 48.465222,206.1729 48.821496,207.15265 49.177591,208.13291 49.489717,209.46919 49.712393,210.80534 49.9794,212.14195 49.890561,214.05741 49.801484,215.97255 49.712129,217.88824 49.756946,220.02644 49.801484,222.16429 49.845764,224.30271 49.534178,225.90626 49.222401,227.50968 48.910322,229.11356 48.509605,231.25186 48.019687,233.38961 47.573973,235.52803 46.995072,237.22072 46.416071,238.91318 45.836721,240.60615 45.079582,242.65534 44.322458,244.70402 43.56493,246.75335 41.694019,250.04992 39.823422,253.34574 37.952271,256.64232 36.616061,259.00316 35.279842,261.36382 33.943227,263.72497 32.20601,266.39775 30.468989,269.07009 28.731473,271.74305 26.637886,274.28214 24.544515,276.82091 22.450639,279.36023 20.847105,281.14196 19.24367,282.92356 17.639788,284.70562 16.481704,285.86371 15.323717,287.02169 14.165284,288.18013 12.472455,289.11552 10.780135,290.05075 9.0871636,290.98646 9.0874282,291.34262 9.0874282,291.69891 9.0871636,292.05553 10.246456,291.96611 11.403764,291.87709 12.561667,291.78827 14.298759,290.98639 16.036436,290.0062 17.773423,289.11557 19.95599,287.42291 22.05,285.72989 24.187891,284.03745 26.147865,281.89932 28.10811,279.76087 30.06782,277.62298 31.849651,275.2176 33.631678,272.81186 35.41321,270.4067 37.105972,267.55592 38.79889,264.70469 40.491331,261.85408 42.050497,258.64693 43.609739,255.43935 45.168548,252.23238 46.460487,248.93612 47.752418,245.63946 49.043955,242.3434 49.71233,239.13622 50.380567,235.92867 51.048478,232.7217 51.761393,229.29181 52.47418,225.86152 53.186634,222.43183 53.454144,220.5163 53.721437,218.6007 53.988441,216.68553 53.676939,215.17097 53.365077,213.65621 53.052998,212.14195 52.607874,210.31559 52.162366,208.489 51.716652,206.66292 51.316054,206.08363 50.915107,205.50449 50.513938,204.92567 50.692365,203.45557 50.870562,201.98544 51.048478,200.51572 51.494103,199.09031 51.93964,197.66459 52.384825,196.23941 52.518694,195.39298 52.652358,194.54644 52.78573,193.70035 52.38523,193.52197 51.984185,193.34373 51.583016,193.16581 Z" />
    <path
       style="fill:#000000;stroke:#000000;stroke-width:0.26458332px;stroke-linecap:butt;stroke-linejoin:miter;stroke-opacity:1;fill-opacity:1"
       d="M 56.705873,206.75191 C 57.68579,206.70752 58.977596,207.28661 60.002137,207.64295 61.026679,207.9993 61.784014,208.13294 62.966646,208.0093 64.149278,207.88565 65.926789,207.46466 68.06471,206.93018 70.202632,206.3957 72.786709,205.7274 75.080655,205.08153 77.3746,204.43566 79.379364,203.81195 80.626575,203.45562 81.873785,203.09929 82.363856,203.01019 83.031675,203.16602 83.699494,203.32186 84.546369,203.72301 84.991749,204.21282 85.43713,204.70263 85.481681,205.28179 85.125312,205.59373 84.768944,205.90566 84.011998,205.95019 82.853557,206.15068 81.695116,206.35117 80.13662,206.7074 78.109585,207.37564 76.082549,208.04388 73.588525,209.02368 71.361153,209.95917 69.133781,210.89466 67.174056,211.78545 65.837585,212.14189 64.501114,212.49833 63.788509,212.32018 62.741499,211.96375 61.69449,211.60732 60.313964,211.07293 58.932994,210.51608 57.552023,209.95924 56.171274,209.38022 55.413915,208.97924 54.656556,208.57826 54.522934,208.35556 54.790243,207.91013 55.057552,207.4647 55.725955,206.7963 56.705873,206.75191 Z"
       id="path883"
       inkscape:connector-curvature="0"
       inkscape:path-effect="#path-effect885"
       inkscape:original-d="M 56.393868,206.12838 C 57.685934,206.7072 58.977739,207.28629 60.269276,207.86564 61.026733,207.99899 61.784068,208.13264 62.541067,208.26654 64.144501,207.86548 65.926744,207.46447 67.619186,207.06383 70.202583,206.39551 72.786662,205.72722 75.370004,205.05931 77.374548,204.43549 79.379311,203.81178 81.383567,203.18842 81.873747,203.09908 82.363819,203.00998 82.85355,202.92115 83.699645,203.32154 84.54652,203.72269 85.39261,204.12386 85.437412,204.70261 85.481965,205.28177 85.526243,205.86111 84.768929,205.90541 84.011983,205.94994 83.254454,205.99475 81.695072,206.35098 80.136575,206.7072 78.577238,207.06383 76.082492,208.04374 73.588471,209.02354 71.093692,210.00379 69.133727,210.89454 67.174003,211.78533 65.213761,212.67649 64.501191,212.49802 63.788588,212.31986 63.075605,212.14195 61.694615,211.607 60.314086,211.07261 58.932929,210.53833 57.552158,209.95892 56.171407,209.3799 54.79025,208.80108 54.656868,208.57807 54.523246,208.35537 54.389345,208.13291 55.057551,207.4647 55.725959,206.7963 56.393868,206.12838 Z" />
    <path
       style="fill:#000000;stroke:#000000;stroke-width:0.26458332px;stroke-linecap:butt;stroke-linejoin:miter;stroke-opacity:1;fill-opacity:1"
       d="M 73.209718,192.0521 C 73.499434,191.51752 74.568512,191.07207 75.570538,191.04983 76.572563,191.02759 77.508287,191.42862 78.399058,192.09669 79.289828,192.76477 80.136299,193.70034 80.516579,194.79014 80.896859,195.87995 80.804502,197.21912 80.448121,198.75609 80.09174,200.29307 79.468246,202.07448 78.933641,204.12376 78.399035,206.17304 77.953667,208.48896 77.575009,210.62725 77.196352,212.76554 76.884577,214.72526 76.416816,217.22 75.949055,219.71474 75.325523,222.74333 75.035948,225.19342 74.746373,227.64352 74.790912,229.51421 74.746372,231.31838 74.701832,233.12256 74.568216,234.85957 74.100545,236.15145 73.632875,237.44333 72.831201,238.28954 72.251904,238.33405 71.672607,238.37855 71.316362,237.62153 70.96003,236.66387 70.603699,235.70622 70.247287,234.54788 69.957776,233.83525 69.668265,233.12262 69.445506,232.85531 69.601554,232.65484 69.757603,232.45437 70.292194,232.32072 70.650524,232.3634 71.008854,232.40608 71.271851,232.72168 71.494645,232.49877 71.71744,232.27587 71.940143,231.56322 72.381104,229.27308 72.822066,226.98294 73.499169,223.0106 73.898159,220.29327 74.297149,217.57593 74.434584,215.97253 74.612743,213.83462 74.790901,211.69671 75.013667,208.97897 75.258662,206.79635 75.503657,204.61373 75.770956,202.96539 75.971388,201.56234 76.171821,200.15928 76.305481,199.0009 76.372281,198.02103 76.439082,197.04116 76.439082,196.23915 76.016081,195.57122 75.593079,194.90329 74.746444,194.36857 74.0782,193.78942 73.409957,193.21027 72.920003,192.58669 73.209718,192.0521 Z"
       id="path887"
       inkscape:connector-curvature="0"
       inkscape:path-effect="#path-effect889"
       inkscape:original-d="M 72.430038,191.9631 C 73.499381,191.51739 74.568459,191.07194 75.637272,190.62675 76.572701,191.02727 77.508424,191.4283 78.443602,191.82947 79.290104,192.76452 80.136575,193.70009 80.982662,194.63579 80.938382,195.88281 80.804749,197.21914 80.715394,198.5112 80.091892,200.29312 79.468399,202.07453 78.844506,203.85659 78.399242,206.17308 77.953874,208.489 77.50816,210.8056 77.196568,212.76557 76.884796,214.72529 76.572715,216.68553 75.949256,219.71478 75.325723,222.74337 74.70183,225.7727 74.746643,227.64351 74.791183,229.5142 74.835463,231.38535 74.702076,233.12258 74.568459,234.85959 74.434559,236.59711 73.632884,237.44334 72.831208,238.28955 72.029134,239.13617 71.672925,238.3784 71.31668,237.62138 70.960056,236.86438 70.604014,235.70612 70.247602,234.54778 69.890978,233.38987 69.668551,233.12238 69.445793,232.85507 69.222804,232.58807 69.757556,232.45418 70.292147,232.32053 70.82642,232.18716 71.004762,232.40949 71.272134,232.72144 71.494596,232.98897 71.717605,232.27592 71.940308,231.56327 72.16277,230.85081 72.786384,226.97686 73.499381,223.01064 74.16729,219.09096 74.30118,217.57628 74.434823,215.97255 74.568194,214.41374 74.791143,211.69673 75.013909,208.97899 75.236368,206.26202 75.503875,204.61377 75.771173,202.96543 76.038177,201.31753 76.172051,200.15931 76.30571,199.00093 76.439082,197.84303 76.439346,197.04116 76.439346,196.23915 76.439082,195.4376 75.593272,194.90298 74.74664,194.36826 73.900021,193.83399 73.410251,193.21004 72.920298,192.58646 72.430038,191.9631 Z" />
    <path
       style="fill:#000000;stroke:#000000;stroke-width:0.26458332px;stroke-linecap:butt;stroke-linejoin:miter;stroke-opacity:1;fill-opacity:1"
       d="M 74.657382,208.24413 C 73.90016,208.71167 73.23199,210.2262 72.18506,212.14188 71.13813,214.05756 69.712991,216.37341 68.153829,218.53398 66.594668,220.69456 64.902189,222.69881 63.18708,224.83712 61.471971,226.97543 59.734964,229.2469 58.843967,230.561 57.952971,231.8751 57.908433,232.23141 58.510429,231.91923 59.112426,231.60705 60.358656,230.62786 62.006559,229.02448 63.654463,227.4211 65.704005,225.19334 67.641596,223.07758 69.579187,220.96182 71.405755,218.95705 72.942454,217.10854 74.479153,215.26003 75.726583,213.56709 76.372376,212.23084 77.018169,210.89459 77.062722,209.91443 76.661959,209.13513 76.261195,208.35583 75.414604,207.77659 74.657382,208.24413 Z"
       id="path891"
       inkscape:connector-curvature="0"
       inkscape:path-effect="#path-effect893"
       inkscape:original-d="M 74.568194,207.19746 C 73.900286,208.71173 73.232112,210.22625 72.563674,211.74105 71.1382,214.0576 69.713064,216.37345 68.287362,218.69005 66.594693,220.69458 64.902212,222.69883 63.209241,224.70362 61.472005,226.97546 59.735,229.24693 57.997484,231.51899 57.953198,231.87513 57.908658,232.23144 57.863851,232.58807 59.112398,231.60701 60.358631,230.62783 61.605623,229.6481 63.654474,227.42111 65.704021,225.19335 67.752822,222.96636 69.579203,220.96183 71.40577,218.95706 73.231848,216.9528 74.479197,215.26006 75.726627,213.56712 76.973619,211.87468 77.018421,210.8946 77.062974,209.91444 77.107255,208.93472 76.261403,208.35553 75.414813,207.77628 74.568194,207.19746 Z" />
    <path
       style="fill:#000000;stroke:#000000;stroke-width:0.26458332px;stroke-linecap:butt;stroke-linejoin:miter;stroke-opacity:1;fill-opacity:1"
       d="M 78.243272,217.7323 C 78.488429,217.13096 79.735688,217.04187 80.915916,217.26457 82.096144,217.48727 83.210019,218.02193 84.123088,218.7123 85.036157,219.40266 85.748948,220.2491 86.172566,221.14303 86.596185,222.03696 86.728926,222.96614 86.172099,223.36715 85.615271,223.76817 84.368311,223.63456 83.143111,223.07766 81.917911,222.52076 80.715422,221.54095 79.735389,220.49409 78.755357,219.44723 77.998115,218.33364 78.243272,217.7323 Z"
       id="path895"
       inkscape:connector-curvature="0"
       inkscape:path-effect="#path-effect897"
       inkscape:original-d="M 77.240891,217.22007 C 78.488412,217.13072 79.735671,217.04163 80.982662,216.9528 82.096299,217.48695 83.210174,218.02161 84.323532,218.55642 85.036444,219.40242 85.749234,220.24886 86.461688,221.09548 86.640136,222.03068 86.729222,222.9661 86.862593,223.90181 85.615302,223.76788 84.368342,223.63427 83.120818,223.5009 81.918144,222.52047 80.715658,221.54066 79.51268,220.56094 78.755662,219.44702 77.998417,218.33343 77.240891,217.22007 Z" />
    <path
       style="fill:#000000;stroke:#000000;stroke-width:0.26458332px;stroke-linecap:butt;stroke-linejoin:miter;stroke-opacity:1;fill-opacity:1"
       d="M 89.914031,204.07931 C 90.070079,203.63388 91.139157,203.67843 92.742549,203.47799 94.34594,203.27755 96.4846,202.832 99.580185,201.98572 102.67577,201.13944 106.72994,199.892 109.15289,199.18035 111.57583,198.4687 112.38714,198.28841 113.18875,198.26616 113.99036,198.24392 114.79247,198.3776 115.68322,198.57802 116.57398,198.77845 117.55423,199.04579 118.15099,199.39312 118.74775,199.74046 118.97943,200.20381 118.77908,200.58245 118.57874,200.96109 117.95526,201.27283 116.195,201.74075 114.43473,202.20868 111.54078,202.83199 108.33337,203.70066 105.12595,204.56933 101.60728,205.68283 99.023593,206.39559 96.439905,207.10834 94.791893,207.42013 93.655813,207.35332 92.519734,207.28651 91.896217,206.84114 91.205702,206.15062 90.515187,205.46011 89.757983,204.52474 89.914031,204.07931 Z"
       id="path899"
       inkscape:connector-curvature="0"
       inkscape:path-effect="#path-effect901"
       inkscape:original-d="M 89.000749,203.58933 C 90.070091,203.6336 91.139169,203.67815 92.207983,203.72296 94.345898,203.27735 96.484559,202.8318 98.622451,202.38661 102.67572,201.13927 106.72989,199.89183 110.78321,198.64484 111.58522,198.51095 112.3871,198.28821 113.18864,198.1103 113.99041,198.24362 114.79252,198.3773 115.59407,198.5112 116.57406,198.77814 117.55431,199.04548 118.53403,199.31301 118.80151,199.71358 118.97974,200.20365 119.2022,200.64936 118.57869,200.96098 117.95521,201.27272 117.33132,201.5848 114.43469,202.20848 111.54074,202.8318 108.64506,203.45569 105.1259,204.56917 101.60723,205.68267 98.087911,206.79656 96.439866,207.10814 94.791853,207.41992 93.143425,207.732 92.519948,207.28621 91.896433,206.84084 91.272538,206.39566 90.51548,205.45987 89.758277,204.5245 89.000749,203.58933 Z" />
    <path
       style="fill:#000000;stroke:#000000;stroke-width:0.26458332px;stroke-linecap:butt;stroke-linejoin:miter;stroke-opacity:1;fill-opacity:1"
       d="M 94.079,189.29028 C 94.435544,188.88941 95.326441,188.62214 96.462795,188.61812 97.599148,188.61411 99.068109,188.88954 100.37749,189.30023 101.68688,189.71091 102.98797,190.31499 103.7006,190.96074 104.41323,191.60649 104.59142,192.31928 104.54691,193.21025 104.50239,194.10122 104.23519,195.17002 104.01242,196.35066 103.78965,197.5313 103.61152,198.82272 103.47786,200.71617 103.3442,202.60963 103.25513,205.10358 103.23285,207.42004 103.21058,209.7365 103.25512,211.87442 103.21057,215.10418 103.16603,218.33394 103.03241,222.65427 103.01021,225.52887 102.98801,228.40346 103.07692,229.82604 102.80977,230.62794 102.54261,231.42984 101.91909,231.60799 101.29515,231.40744 100.67121,231.2069 100.0479,230.6281 99.825176,228.40068 99.602455,226.17326 99.780631,222.29792 99.891987,218.46719 100.00334,214.63647 100.04789,210.84988 100.09243,207.5982 100.13698,204.34652 100.18153,201.62908 100.07016,199.6692 99.958783,197.70932 99.691487,196.50649 99.134754,195.39303 98.578022,194.27958 97.73153,193.25488 96.840706,192.49766 95.949882,191.74044 95.014412,191.25044 94.457515,190.73804 93.900618,190.22564 93.722455,189.69115 94.079,189.29028 Z"
       id="path903"
       inkscape:connector-curvature="0"
       inkscape:path-effect="#path-effect905"
       inkscape:original-d="M 93.54433,189.15677 C 94.435494,188.88924 95.326391,188.62197 96.217026,188.35496 97.597693,188.62187 99.068165,188.88924 100.49334,189.15677 101.69614,189.69097 102.98812,190.31468 104.23511,190.89402 104.41354,191.60641 104.59173,192.3192 104.76965,193.03218 104.50257,194.10127 104.23537,195.17007 103.96784,196.23941 103.78987,197.53133 103.61175,198.82275 103.4333,200.11482 103.34446,202.60964 103.25539,205.10359 103.16603,207.59837 103.21085,209.73649 103.25539,211.87441 103.29967,214.01283 103.16628,218.33395 103.03266,222.65428 102.89876,226.97541 103.03267,228.40067 103.07721,229.82602 103.16603,231.25172 102.54256,231.42967 101.91904,231.60781 101.29514,231.78626 100.67147,231.20662 100.04815,230.62783 99.42426,230.04901 99.602706,226.17327 99.780884,222.29793 99.958798,218.42278 100.0036,214.63647 100.04815,210.84988 100.09243,207.06383 100.13724,204.34652 100.18179,201.62908 100.22607,198.91211 99.959089,197.70925 99.691794,196.50642 99.42426,195.30397 98.578308,194.27934 97.731816,193.25464 96.885199,192.23037 95.950046,191.74013 95.014577,191.25012 94.07887,190.76039 93.900935,190.22553 93.722775,189.69104 93.54433,189.15677 Z" />
    <path
       style="fill:#000000;stroke:#000000;stroke-width:0.26458332px;stroke-linecap:butt;stroke-linejoin:miter;stroke-opacity:1;fill-opacity:1"
       d="M 100.31522,208.91224 C 99.424443,209.64712 98.088096,211.96345 96.528922,214.34678 94.969747,216.73011 93.188191,219.17975 91.584498,221.22892 89.980805,223.2781 88.555541,224.92606 87.397321,226.10659 86.2391,227.28711 85.348358,227.9997 84.925033,228.66798 84.501708,229.33625 84.546238,229.95967 85.081138,229.915 85.616038,229.87033 86.64017,229.1579 88.243452,227.82182 89.846734,226.48574 92.030081,224.52519 94.079017,222.56533 96.127952,220.60547 98.04363,218.64524 99.357606,216.97487 100.67158,215.30451 101.3844,213.92343 101.74067,212.78766 102.09695,211.65189 102.09695,210.76079 101.87427,209.89237 101.65158,209.02396 101.20601,208.17736 100.31522,208.91224 Z"
       id="path907"
       inkscape:connector-curvature="0"
       inkscape:path-effect="#path-effect909"
       inkscape:original-d="M 100.76061,207.3311 C 99.424525,209.64717 98.088175,211.9635 96.751564,214.28011 94.969791,216.73014 93.188235,219.17978 91.406174,221.63002 89.980826,223.27812 88.555564,224.92608 87.129862,226.5745 86.239076,227.28708 85.34833,227.99967 84.457165,228.71266 84.501991,229.33623 84.54652,229.95965 84.590801,230.58354 85.616001,229.87028 86.640131,229.15784 87.664402,228.44539 89.846722,226.48573 92.030066,224.52517 94.212503,222.56546 96.127957,220.60547 98.043633,218.64524 99.958798,216.68553 100.67168,215.30456 101.3845,213.92348 102.09695,212.54285 102.09722,211.65189 102.09722,210.76079 102.09695,209.87016 101.6519,209.02379 101.20632,208.17719 100.76061,207.3311 Z" />
    <path
       style="fill:#000000;stroke:#000000;stroke-width:0.26458332px;stroke-linecap:butt;stroke-linejoin:miter;stroke-opacity:1;fill-opacity:1"
       d="M 102.89889,218.26674 C 104.19076,218.33374 106.68527,218.91282 109.35786,219.51415 112.03044,220.11548 114.88154,220.73916 116.81918,221.27369 118.75681,221.80822 119.78141,222.2537 120.71677,222.74365 121.65214,223.23361 122.4986,223.76821 123.35602,224.46974 124.21344,225.17126 125.12668,226.0845 125.57213,226.81937 126.01758,227.55423 126.01758,228.13331 125.57207,228.48981 125.12656,228.84631 124.23608,228.97988 122.78798,228.77939 121.33987,228.57889 119.33602,228.04453 117.53181,227.2204 115.72761,226.39626 114.12414,225.28274 112.54279,224.34729 110.96144,223.41184 109.40243,222.65461 107.97694,221.94186 106.55146,221.22912 105.25974,220.56099 104.19066,220.09326 103.12158,219.62552 102.2753,219.35828 101.89662,219.0017 101.51795,218.64512 101.60702,218.19975 102.89889,218.26674 Z"
       id="path911"
       inkscape:connector-curvature="0"
       inkscape:path-effect="#path-effect913"
       inkscape:original-d="M 101.69605,217.75461 C 104.19083,218.33343 106.68534,218.91251 109.1796,219.49186 112.03051,220.11518 114.88161,220.73885 117.73222,221.36275 118.75695,221.8079 119.78155,222.25338 120.80582,222.69909 121.65233,223.2333 122.49879,223.76791 123.34488,224.30271 124.23597,225.14873 125.12694,226.08424 126.01758,226.97541 126.01784,227.55423 126.01784,228.13331 126.01758,228.71266 125.12653,228.84609 124.23605,228.97966 123.34488,229.11356 121.33995,228.57858 119.3361,228.04422 117.33132,227.50995 115.72782,226.39596 114.12435,225.28244 112.52047,224.16908 110.9616,223.41152 109.40259,222.65428 107.84325,221.89729 106.55162,221.2288 105.25991,220.56067 103.96784,219.89276 103.12168,219.62521 102.2754,219.35796 101.42878,219.09096 101.51815,218.64516 101.60723,218.19979 101.69605,217.75461 Z" />
    <path
       style="fill:#000000;stroke:#000000;stroke-width:0.26458332px;stroke-linecap:butt;stroke-linejoin:miter;stroke-opacity:1;fill-opacity:1"
       d="M 84.791289,235.59475 C 85.481787,235.66172 86.907227,236.46352 88.065344,237.19848 89.223461,237.93344 90.114418,238.60166 91.049804,239.51478 91.985191,240.42789 92.965228,241.58612 93.499771,243.1451 94.034314,244.70407 94.123402,246.66401 94.167952,248.69093 94.212503,250.71785 94.212503,252.81119 94.14569,254.59307 94.078877,256.37496 93.94526,257.84475 93.633437,259.33713 93.321614,260.82952 92.831713,262.34376 92.363869,262.70015 91.896025,263.05653 91.45067,262.25489 91.049791,260.85178 90.648912,259.44866 90.292514,257.44392 90.09208,255.06089 89.891647,252.67785 89.847098,249.91577 89.646641,247.84454 89.446184,245.77331 89.089792,244.39229 88.555307,243.21198 88.020823,242.03168 87.308008,241.05156 86.550764,240.02705 85.793519,239.00254 84.991672,237.93341 84.568505,237.0647 84.145337,236.19599 84.100791,235.52779 84.791289,235.59475 Z"
       id="path915"
       inkscape:connector-curvature="0"
       inkscape:path-effect="#path-effect917"
       inkscape:original-d="M 84.056263,234.85986 C 85.481965,235.6614 86.907403,236.46321 88.332575,237.26528 89.223681,237.93315 90.114637,238.60137 91.005269,239.2698 91.985476,240.42765 92.965511,241.58588 93.945234,242.74431 94.034589,244.70406 94.123677,246.664 94.212503,248.62424 94.212768,250.71785 94.212768,252.81119 94.212503,254.90507 94.079116,256.37498 93.945499,257.84477 93.811599,259.31502 93.321775,260.82957 92.831876,262.34381 92.341616,263.8586 91.896338,263.05636 91.450984,262.25472 91.005269,261.45317 90.649214,259.44861 90.292815,257.44387 89.936191,255.43961 89.891916,252.67785 89.847365,249.91577 89.802558,247.15426 89.446495,245.77323 89.090104,244.39221 88.73348,243.01158 88.021119,242.03146 87.308305,241.05134 86.595321,240.07161 85.793816,239.00232 84.99197,237.93319 84.189896,236.86438 84.145618,236.19597 84.101071,235.52777 84.056263,234.85986 Z" />
    <path
       style="fill:#000000;stroke:#000000;stroke-width:0.26458332px;stroke-linecap:butt;stroke-linejoin:miter;stroke-opacity:1;fill-opacity:1"
       d="M 100.69393,243.61279 C 101.38456,243.01147 102.94363,242.47693 104.458,241.78653 105.97238,241.09614 107.44266,240.24961 108.51166,239.62603 109.58067,239.00244 110.24899,238.60145 110.9615,238.40109 111.67402,238.20073 112.43164,238.20073 113.07732,238.44565 113.72301,238.69057 114.25773,239.18072 114.56953,239.89331 114.88133,240.6059 114.97042,241.54136 114.27995,242.3433 113.58949,243.14524 112.11988,243.81324 110.36013,244.59288 108.60038,245.37252 106.55177,246.26322 104.85159,246.44726 103.15141,246.6313 101.74073,246.08523 100.96109,245.48372 100.18145,244.88221 100.0033,244.21411 100.69393,243.61279 Z"
       id="path919"
       inkscape:connector-curvature="0"
       inkscape:path-effect="#path-effect921"
       inkscape:original-d="M 99.825165,243.54612 C 101.3845,243.01131 102.94357,242.47677 104.50238,241.9425 105.97233,241.09605 107.44261,240.24953 108.91233,239.40344 109.58062,239.00236 110.24894,238.60137 110.91685,238.20073 111.67402,238.20046 112.43164,238.20046 113.18864,238.20073 113.72326,238.69029 114.25798,239.18045 114.79226,239.67071 114.88161,240.60587 114.9707,241.54133 115.05953,242.47704 113.58943,243.14512 112.11983,243.81312 110.64958,244.48156 108.60033,245.37239 106.55171,246.26309 104.50238,247.15426 103.12154,246.70847 101.74086,246.08491 100.3597,245.55064 100.18177,244.88213 100.00361,244.21403 99.825165,243.54612 Z" />
    <path
       style="fill:#000000;stroke:#000000;stroke-width:0.26458332px;stroke-linecap:butt;stroke-linejoin:miter;stroke-opacity:1;fill-opacity:1"
       d="M 68.732886,249.42601 C 69.49028,249.24791 71.361167,249.60426 72.853332,249.98288 74.345497,250.3615 75.459245,250.76245 76.260918,251.40822 77.062592,252.05398 77.552654,252.945 77.97585,254.1032 78.399047,255.26139 78.755369,256.68668 78.822232,257.86712 78.889094,259.04756 78.6664,259.98288 78.399199,260.53979 78.131998,261.0967 77.820286,261.27481 77.427398,260.84728 77.03451,260.41975 76.528116,259.3149 75.94908,258.31272 75.370044,257.31055 74.701795,256.375 73.900048,255.55098 73.098301,254.72696 72.162811,254.0142 71.271881,253.27919 70.380951,252.54417 69.534634,251.78694 68.933241,251.05188 68.331847,250.31683 67.975492,249.60412 68.732886,249.42601 Z"
       id="path923"
       inkscape:connector-curvature="0"
       inkscape:path-effect="#path-effect925"
       inkscape:original-d="M 67.619186,248.89151 C 69.490338,249.2476 71.361225,249.60396 73.231848,249.96058 74.345611,250.36118 75.459359,250.76213 76.572715,251.1633 77.062908,252.05381 77.552969,252.94483 78.042697,253.83599 78.399358,255.26131 78.755681,256.6866 79.111775,258.1123 78.889287,259.04761 78.666593,259.98293 78.443602,260.91864 78.131949,261.09661 77.820238,261.27473 77.50816,261.45317 77.017937,260.42735 76.528437,259.31475 76.038177,258.24594 75.370342,257.31034 74.702095,256.37479 74.033657,255.43961 73.098527,254.72666 72.163034,254.01391 71.227325,253.30145 70.3812,252.54389 69.534883,251.78666 68.688264,251.02966 68.332164,250.31667 67.97581,249.60396 67.619186,248.89151 Z" />
    <path
       style="fill:#000000;stroke:#000000;stroke-width:0.26458332px;stroke-linecap:butt;stroke-linejoin:miter;stroke-opacity:1;fill-opacity:1"
       d="M 53.298087,267.84534 C 54.033217,267.55585 55.948649,267.77858 58.821603,267.53358 61.694556,267.28859 65.525878,266.57578 70.626014,265.81856 75.726151,265.06134 82.096579,264.25947 89.223579,263.56904 96.350579,262.87862 104.23539,262.29951 109.09076,261.87632 113.94613,261.45314 115.77254,261.18586 116.95295,260.91856 118.13335,260.65126 118.66798,260.38394 119.60295,260.45074 120.53793,260.51755 121.87507,260.91869 123.12224,261.34184 124.36941,261.76499 125.52773,262.21049 126.39623,262.78949 127.26474,263.36849 127.84389,264.08129 128.0444,264.74934 128.2449,265.41738 128.06673,266.04099 127.5259,266.63258 126.98508,267.22417 126.01789,267.8229 124.63666,268.04571 123.25543,268.26852 121.42969,268.13493 119.82596,267.9122 118.22223,267.68947 116.84152,267.37769 115.41598,267.04358 113.99044,266.70947 112.52066,266.35316 109.93684,266.10813 107.35303,265.86311 103.65628,265.72949 100.53803,265.70645 97.419783,265.6834 94.791862,265.77402 92.096753,265.97448 89.401645,266.17493 86.595611,266.48671 83.833688,266.82082 81.071766,267.15492 78.354805,267.51124 75.927002,268.00124 73.499199,268.49125 71.361274,269.11481 69.312064,269.73848 67.262854,270.36215 65.30317,270.98569 63.432136,271.52027 61.561102,272.05486 59.779591,272.50024 58.532162,272.52254 57.284733,272.54484 56.572135,272.144 55.814791,271.60941 55.057447,271.07482 54.255739,270.40673 53.632064,269.67167 53.00839,268.9366 52.562957,268.13482 53.298087,267.84534 Z"
       id="path927"
       inkscape:connector-curvature="0"
       inkscape:path-effect="#path-effect929"
       inkscape:original-d="M 52.117556,267.3331 C 54.033251,267.55556 55.948683,267.77829 57.863851,268.00128 61.694517,267.28838 65.52584,266.57558 69.35644,265.86312 75.726122,265.06111 82.09655,264.25924 88.466209,263.4577 96.350561,262.87837 104.23537,262.29926 112.11956,261.72044 113.9461,261.45292 115.77251,261.18564 117.59859,260.91864 118.1333,260.65115 118.66793,260.38383 119.2022,260.11683 120.53802,260.51723 121.87516,260.91837 123.21125,261.31954 124.36953,261.76467 125.52785,262.21017 126.68575,262.65589 127.26503,263.36825 127.84418,264.08106 128.423,264.79404 128.24508,265.41743 128.06691,266.04104 127.88846,266.66493 126.99738,267.24404 126.01784,267.82283 125.08213,268.40218 123.25545,268.26824 121.42971,268.13465 119.60311,268.00128 118.2223,267.68916 116.84159,267.37739 115.46043,267.06583 113.99051,266.70916 112.52073,266.35285 111.05048,265.99675 107.35304,265.86284 103.65629,265.72922 99.958798,265.59585 97.419827,265.68468 94.791853,265.77377 92.207983,265.86312 89.401619,266.1747 86.595586,266.48649 83.788992,266.79856 81.071737,267.1547 78.354776,267.51102 75.637272,267.86764 73.499148,268.49107 71.361225,269.11464 69.222804,269.73853 67.262803,270.36199 65.303116,270.98552 63.342874,271.60942 61.561054,272.05467 59.779545,272.50005 57.997484,272.94576 57.284906,272.54453 56.572311,272.14369 55.859328,271.74305 55.057685,271.07453 54.255977,270.40644 53.453903,269.73853 53.008705,268.93643 52.563268,268.13465 52.117556,267.3331 Z" />
  </g>
</svg>
