<?xml version="1.0" encoding="UTF-8" standalone="no"?>
<!-- Created with Inkscape (http://www.inkscape.org/) -->

<svg
   xmlns:dc="http://purl.org/dc/elements/1.1/"
   xmlns:cc="http://creativecommons.org/ns#"
   xmlns:rdf="http://www.w3.org/1999/02/22-rdf-syntax-ns#"
   xmlns:svg="http://www.w3.org/2000/svg"
   xmlns="http://www.w3.org/2000/svg"
   xmlns:sodipodi="http://sodipodi.sourceforge.net/DTD/sodipodi-0.dtd"
   xmlns:inkscape="http://www.inkscape.org/namespaces/inkscape"
   width="512"
   height="512"
   viewBox="0 0 135.46666 135.46666"
   version="1.1"
   id="svg8"
   inkscape:version="0.92.4 (5da689c313, 2019-01-14)"
   sodipodi:docname="U+6E20.svg">
  <defs
     id="defs2">
    <inkscape:path-effect
       effect="bspline"
       id="path-effect990"
       is_visible="true"
       weight="33.333333"
       steps="2"
       helper_size="0"
       apply_no_weight="true"
       apply_with_weight="true"
       only_selected="false" />
    <inkscape:path-effect
       effect="bspline"
       id="path-effect986"
       is_visible="true"
       weight="33.333333"
       steps="2"
       helper_size="0"
       apply_no_weight="true"
       apply_with_weight="true"
       only_selected="false" />
    <inkscape:path-effect
       effect="bspline"
       id="path-effect982"
       is_visible="true"
       weight="33.333333"
       steps="2"
       helper_size="0"
       apply_no_weight="true"
       apply_with_weight="true"
       only_selected="false" />
    <inkscape:path-effect
       effect="bspline"
       id="path-effect978"
       is_visible="true"
       weight="33.333333"
       steps="2"
       helper_size="0"
       apply_no_weight="true"
       apply_with_weight="true"
       only_selected="false" />
    <inkscape:path-effect
       effect="bspline"
       id="path-effect972"
       is_visible="true"
       weight="33.333333"
       steps="2"
       helper_size="0"
       apply_no_weight="true"
       apply_with_weight="true"
       only_selected="false" />
    <inkscape:path-effect
       effect="bspline"
       id="path-effect968"
       is_visible="true"
       weight="33.333333"
       steps="2"
       helper_size="0"
       apply_no_weight="true"
       apply_with_weight="true"
       only_selected="false" />
    <inkscape:path-effect
       effect="bspline"
       id="path-effect964"
       is_visible="true"
       weight="33.333333"
       steps="2"
       helper_size="0"
       apply_no_weight="true"
       apply_with_weight="true"
       only_selected="false" />
    <inkscape:path-effect
       effect="bspline"
       id="path-effect960"
       is_visible="true"
       weight="33.333333"
       steps="2"
       helper_size="0"
       apply_no_weight="true"
       apply_with_weight="true"
       only_selected="false" />
    <inkscape:path-effect
       effect="bspline"
       id="path-effect956"
       is_visible="true"
       weight="33.333333"
       steps="2"
       helper_size="0"
       apply_no_weight="true"
       apply_with_weight="true"
       only_selected="false" />
    <inkscape:path-effect
       effect="bspline"
       id="path-effect952"
       is_visible="true"
       weight="33.333333"
       steps="2"
       helper_size="0"
       apply_no_weight="true"
       apply_with_weight="true"
       only_selected="false" />
    <inkscape:path-effect
       effect="bspline"
       id="path-effect948"
       is_visible="true"
       weight="33.333333"
       steps="2"
       helper_size="0"
       apply_no_weight="true"
       apply_with_weight="true"
       only_selected="false" />
    <inkscape:path-effect
       effect="bspline"
       id="path-effect944"
       is_visible="true"
       weight="33.333333"
       steps="2"
       helper_size="0"
       apply_no_weight="true"
       apply_with_weight="true"
       only_selected="false" />
    <inkscape:path-effect
       effect="bspline"
       id="path-effect929"
       is_visible="true"
       weight="33.333333"
       steps="2"
       helper_size="0"
       apply_no_weight="true"
       apply_with_weight="true"
       only_selected="false" />
    <inkscape:path-effect
       effect="bspline"
       id="path-effect925"
       is_visible="true"
       weight="33.333333"
       steps="2"
       helper_size="0"
       apply_no_weight="true"
       apply_with_weight="true"
       only_selected="false" />
    <inkscape:path-effect
       effect="bspline"
       id="path-effect921"
       is_visible="true"
       weight="33.333333"
       steps="2"
       helper_size="0"
       apply_no_weight="true"
       apply_with_weight="true"
       only_selected="false" />
    <inkscape:path-effect
       effect="bspline"
       id="path-effect917"
       is_visible="true"
       weight="33.333333"
       steps="2"
       helper_size="0"
       apply_no_weight="true"
       apply_with_weight="true"
       only_selected="false" />
    <inkscape:path-effect
       effect="bspline"
       id="path-effect913"
       is_visible="true"
       weight="33.333333"
       steps="2"
       helper_size="0"
       apply_no_weight="true"
       apply_with_weight="true"
       only_selected="false" />
    <inkscape:path-effect
       effect="bspline"
       id="path-effect909"
       is_visible="true"
       weight="33.333333"
       steps="2"
       helper_size="0"
       apply_no_weight="true"
       apply_with_weight="true"
       only_selected="false" />
    <inkscape:path-effect
       effect="bspline"
       id="path-effect905"
       is_visible="true"
       weight="33.333333"
       steps="2"
       helper_size="0"
       apply_no_weight="true"
       apply_with_weight="true"
       only_selected="false" />
    <inkscape:path-effect
       effect="bspline"
       id="path-effect901"
       is_visible="true"
       weight="33.333333"
       steps="2"
       helper_size="0"
       apply_no_weight="true"
       apply_with_weight="true"
       only_selected="false" />
    <inkscape:path-effect
       effect="bspline"
       id="path-effect897"
       is_visible="true"
       weight="33.333333"
       steps="2"
       helper_size="0"
       apply_no_weight="true"
       apply_with_weight="true"
       only_selected="false" />
    <inkscape:path-effect
       effect="bspline"
       id="path-effect893"
       is_visible="true"
       weight="33.333333"
       steps="2"
       helper_size="0"
       apply_no_weight="true"
       apply_with_weight="true"
       only_selected="false" />
    <inkscape:path-effect
       effect="bspline"
       id="path-effect889"
       is_visible="true"
       weight="33.333333"
       steps="2"
       helper_size="0"
       apply_no_weight="true"
       apply_with_weight="true"
       only_selected="false" />
    <inkscape:path-effect
       effect="bspline"
       id="path-effect885"
       is_visible="true"
       weight="33.333333"
       steps="2"
       helper_size="0"
       apply_no_weight="true"
       apply_with_weight="true"
       only_selected="false" />
    <inkscape:path-effect
       effect="bspline"
       id="path-effect881"
       is_visible="true"
       weight="33.333333"
       steps="2"
       helper_size="0"
       apply_no_weight="true"
       apply_with_weight="true"
       only_selected="false" />
    <inkscape:path-effect
       effect="bspline"
       id="path-effect877"
       is_visible="true"
       weight="33.333333"
       steps="2"
       helper_size="0"
       apply_no_weight="true"
       apply_with_weight="true"
       only_selected="false" />
    <inkscape:path-effect
       effect="bspline"
       id="path-effect873"
       is_visible="true"
       weight="33.333333"
       steps="2"
       helper_size="0"
       apply_no_weight="true"
       apply_with_weight="true"
       only_selected="false" />
    <inkscape:path-effect
       effect="bspline"
       id="path-effect858"
       is_visible="true"
       weight="33.333333"
       steps="2"
       helper_size="0"
       apply_no_weight="true"
       apply_with_weight="true"
       only_selected="false" />
    <inkscape:path-effect
       effect="bspline"
       id="path-effect854"
       is_visible="true"
       weight="33.333333"
       steps="2"
       helper_size="0"
       apply_no_weight="true"
       apply_with_weight="true"
       only_selected="false" />
    <inkscape:path-effect
       effect="bspline"
       id="path-effect850"
       is_visible="true"
       weight="33.333333"
       steps="2"
       helper_size="0"
       apply_no_weight="true"
       apply_with_weight="true"
       only_selected="false" />
    <inkscape:path-effect
       effect="bspline"
       id="path-effect846"
       is_visible="true"
       weight="33.333333"
       steps="2"
       helper_size="0"
       apply_no_weight="true"
       apply_with_weight="true"
       only_selected="false" />
    <inkscape:path-effect
       effect="bspline"
       id="path-effect842"
       is_visible="true"
       weight="33.333333"
       steps="2"
       helper_size="0"
       apply_no_weight="true"
       apply_with_weight="true"
       only_selected="false" />
    <inkscape:path-effect
       effect="bspline"
       id="path-effect838"
       is_visible="true"
       weight="33.333333"
       steps="2"
       helper_size="0"
       apply_no_weight="true"
       apply_with_weight="true"
       only_selected="false" />
    <inkscape:path-effect
       effect="bspline"
       id="path-effect834"
       is_visible="true"
       weight="33.333333"
       steps="2"
       helper_size="0"
       apply_no_weight="true"
       apply_with_weight="true"
       only_selected="false" />
    <inkscape:path-effect
       effect="bspline"
       id="path-effect830"
       is_visible="true"
       weight="33.333333"
       steps="2"
       helper_size="0"
       apply_no_weight="true"
       apply_with_weight="true"
       only_selected="false" />
  </defs>
  <sodipodi:namedview
     id="base"
     pagecolor="#ffffff"
     bordercolor="#666666"
     borderopacity="1.0"
     inkscape:pageopacity="0.0"
     inkscape:pageshadow="2"
     inkscape:zoom="2.8"
     inkscape:cx="183.51656"
     inkscape:cy="306.25907"
     inkscape:document-units="px"
     inkscape:current-layer="layer1"
     showgrid="false"
     units="px"
     inkscape:window-width="1920"
     inkscape:window-height="1001"
     inkscape:window-x="-9"
     inkscape:window-y="-9"
     inkscape:window-maximized="1">
    <inkscape:grid
       type="xygrid"
       id="grid826" />
  </sodipodi:namedview>
  <metadata
     id="metadata5">
    <rdf:RDF>
      <cc:Work
         rdf:about="">
        <dc:format>image/svg+xml</dc:format>
        <dc:type
           rdf:resource="http://purl.org/dc/dcmitype/StillImage" />
        <dc:title></dc:title>
      </cc:Work>
    </rdf:RDF>
  </metadata>
  <g
     inkscape:label="圖層 1"
     inkscape:groupmode="layer"
     id="layer1"
     transform="translate(0,-161.53336)">
    <path
       style="fill:#000000;stroke:#000000;stroke-width:0.26458332px;stroke-linecap:butt;stroke-linejoin:miter;stroke-opacity:1;fill-opacity:1"
       d="M 34.901115,185.41485 C 35.636161,185.25912 36.927962,185.4373 38.286397,185.89383 39.644832,186.35037 41.070518,187.08548 42.148481,187.6356 43.226445,188.18572 43.921399,188.53319 44.450781,188.98178 44.980164,189.43037 45.346684,190.00306 45.480356,190.60434 45.614028,191.20562 45.524949,191.85144 45.146265,192.56434 44.767581,193.27725 44.099712,194.05643 43.27547,194.46861 42.451228,194.8808 41.471595,194.92532 40.803208,194.60223 40.134821,194.27914 39.778559,193.58888 39.355428,192.88738 38.932296,192.18588 38.442226,191.47305 37.829806,190.84949 37.217386,190.22593 36.482333,189.69134 35.802037,189.23639 35.121741,188.78144 34.411028,188.35501 34.088046,187.92051 33.765064,187.48601 33.787334,187.01834 33.887559,186.5396 33.987784,186.06087 34.166068,185.57059 34.901115,185.41485 Z"
       id="path942"
       inkscape:connector-curvature="0"
       inkscape:path-effect="#path-effect944"
       inkscape:original-d="M 34.344132,185.08091 C 35.636201,185.25883 36.928002,185.43701 38.219539,185.61545 39.644995,186.35005 41.070679,187.08517 42.495852,187.82042 43.208784,188.22104 43.921556,188.53288 44.63401,188.8895 44.990581,189.4237 45.346993,190.00286 45.703088,190.55994 45.614252,191.20565 45.525172,191.85147 45.435817,192.49764 44.767604,193.27727 44.099734,194.05645 43.431296,194.83625 42.451216,194.88054 41.471583,194.92507 40.491331,194.96988 40.135136,194.27898 39.778877,193.58872 39.422253,192.89854 38.932597,192.18567 38.44253,191.47284 37.952271,190.76039 37.217602,190.22563 36.482553,189.69104 35.747297,189.15677 35.123893,188.77785 34.411214,188.3547 33.742776,187.95406 33.765316,187.48602 33.787586,187.01835 33.809594,186.55089 33.987931,186.06092 34.166218,185.57064 34.344132,185.08091 Z" />
    <path
       style="fill:#000000;stroke:#000000;stroke-width:0.26458332px;stroke-linecap:butt;stroke-linejoin:miter;stroke-opacity:1;fill-opacity:1"
       d="M 23.6089,205.59377 C 24.299491,205.21524 25.947653,205.37115 27.40637,205.64954 28.865088,205.92793 30.134801,206.32889 31.2038,206.72977 32.272799,207.13065 33.141541,207.5316 33.698256,207.91016 34.254972,208.28871 34.500003,208.64512 34.667055,209.1128 34.834106,209.58049 34.923182,210.15949 34.722779,210.72751 34.522376,211.29553 34.032567,211.85213 33.25278,212.17523 32.472992,212.49833 31.404452,212.58738 30.322874,212.44599 29.241297,212.3046 28.108002,211.91928 27.217002,211.48492 26.326003,211.05056 25.65792,210.56064 25.067639,209.93694 24.477358,209.31324 23.965127,208.55603 23.575363,207.72078 23.185599,206.88554 22.918309,205.9723 23.6089,205.59377 Z"
       id="path946"
       inkscape:connector-curvature="0"
       inkscape:path-effect="#path-effect948"
       inkscape:original-d="M 22.651091,205.05931 C 24.299518,205.21495 25.94768,205.37086 27.595577,205.52703 28.865188,205.92761 30.134902,206.32857 31.404167,206.72974 32.272945,207.13033 33.141685,207.53129 34.010045,207.93245 34.255274,208.2885 34.500305,208.64491 34.745037,209.00153 34.834405,209.58044 34.923482,210.15944 35.012305,210.73879 34.522392,211.29554 34.032583,211.85214 33.542323,212.40922 32.472972,212.49809 31.404431,212.58713 30.335089,212.67649 29.243714,212.29749 28.10811,211.91896 26.994222,211.54059 26.326218,211.05027 25.658138,210.56034 24.9897,210.07061 24.477662,209.31303 23.965431,208.55582 23.4529,207.79882 23.185916,206.88545 22.918625,205.97221 22.651091,205.05931 Z" />
    <path
       style="fill:#000000;stroke:#000000;stroke-width:0.26458332px;stroke-linecap:butt;stroke-linejoin:miter;stroke-opacity:1;fill-opacity:1"
       d="M 30.580187,227.42072 C 30.958808,227.28727 31.515618,227.59909 32.105792,227.92201 32.695967,228.24493 33.319695,228.57907 34.043575,228.73495 34.767454,228.89083 35.591663,228.86856 36.471277,228.46767 37.350891,228.06678 38.286643,227.28699 39.199677,226.5187 40.112711,225.75041 41.003884,224.99291 41.805549,224.15782 42.607214,223.32272 43.32016,222.40926 43.832406,221.81911 44.344652,221.22895 44.656562,220.9616 44.890188,220.96156 45.123813,220.96151 45.279865,221.22903 45.26879,221.5742 45.257714,221.91937 45.079592,222.34242 44.700768,223.03323 44.321944,223.72404 43.743299,224.68103 43.030449,225.80601 42.317599,226.93098 41.471522,228.22236 40.780988,229.4252 40.090454,230.62804 39.556042,231.7414 38.965572,232.92233 38.375103,234.10326 37.729711,235.34954 37.206233,236.53012 36.682755,237.7107 36.281952,238.82404 35.847612,239.74846 35.413271,240.67287 34.945684,241.40765 34.433324,241.75303 33.920964,242.09841 33.364386,242.05388 32.963282,241.64158 32.562179,241.22928 32.317287,240.45008 31.916441,239.28095 31.515594,238.11181 30.958666,236.55241 30.513233,235.29407 30.067801,234.03572 29.73368,233.07791 29.522107,232.35407 29.310534,231.63023 29.221429,231.14015 29.284842,230.58223 29.348254,230.02432 29.577935,229.35825 29.789474,228.7459 30.001014,228.13355 30.201565,227.55418 30.580187,227.42072 Z"
       id="path950"
       inkscape:connector-curvature="0"
       inkscape:path-effect="#path-effect952"
       inkscape:original-d="M 30.401907,226.97541 C 30.958984,227.28696 31.515795,227.59877 32.072343,227.91085 32.696135,228.24462 33.319864,228.57876 33.943227,228.91311 34.767447,228.89058 35.591656,228.8683 36.41547,228.84629 37.35087,228.06675 38.286622,227.28696 39.221802,226.50769 40.112691,225.75039 41.003864,224.99289 41.894496,224.23589 42.607252,223.32275 43.320198,222.40929 44.032652,221.49638 44.344633,221.22893 44.656545,220.96158 44.968097,220.69457 45.124127,220.96133 45.280176,221.22885 45.435817,221.49638 45.257847,221.91943 45.079722,222.34247 44.901279,222.76591 44.322021,223.72409 43.743375,224.68108 43.164028,225.63906 42.317663,226.93102 41.471583,228.2224 40.624967,229.51447 40.090564,230.62809 39.556154,231.74145 39.021349,232.85534 38.330971,234.08041 37.729812,235.34959 37.083646,236.59711 36.682903,237.71075 36.282102,238.82409 35.880932,239.93798 35.413342,240.67292 34.945755,241.4077 34.477768,242.14295 33.920987,242.09812 33.364409,242.0536 32.807334,242.00932 32.562494,241.22918 32.317604,240.44998 32.072343,239.67071 31.515914,238.1117 30.958984,236.5523 30.401907,234.99349 30.068116,234.03561 29.733998,233.0778 29.399647,232.12035 29.310837,231.63017 29.221733,231.14009 29.132378,230.65036 29.355271,230.02674 29.578092,229.3583 29.800551,228.71266 30.001169,228.1336 30.20172,227.55423 30.401907,226.97541 Z" />
    <path
       style="fill:#000000;stroke:#000000;stroke-width:0.26458332px;stroke-linecap:butt;stroke-linejoin:miter;stroke-opacity:1;fill-opacity:1"
       d="M 62.933072,185.13473 C 63.342613,185.08763 64.224557,185.5286 65.017718,185.85626 65.81088,186.18393 66.555473,186.41055 67.720776,186.41052 68.886079,186.4105 70.492851,186.18997 72.684362,185.76056 74.875874,185.33115 77.579921,184.70953 79.753196,184.12683 81.926471,183.54413 83.533053,183.0086 84.477923,182.56757 85.422792,182.12654 85.706333,181.78 86.14707,181.6069 86.587807,181.43381 87.186768,181.43381 87.8008,181.51254 88.414832,181.59128 89.045072,181.74884 89.722163,181.93779 90.399255,182.12675 91.123922,182.3473 91.690763,182.64646 92.257603,182.94563 92.66717,183.3237 92.761758,183.68576 92.856345,184.04783 92.635858,184.39431 92.113936,184.72014 91.592014,185.04597 90.714601,185.37094 89.407102,185.82778 88.099602,186.28462 86.336373,186.88285 83.816232,187.56015 81.296092,188.23744 78.02089,188.99326 75.752971,189.48149 73.485052,189.96973 72.225248,190.1902 70.996609,190.09571 69.767969,190.00122 68.571335,189.59185 67.390054,189.08784 66.208774,188.58383 65.043501,187.98545 64.255989,187.49719 63.468476,187.00893 63.059033,186.63099 62.82278,186.17414 62.586526,185.71729 62.523531,185.18183 62.933072,185.13473 Z"
       id="path954"
       inkscape:connector-curvature="0"
       inkscape:path-effect="#path-effect956"
       inkscape:original-d="M 62.460563,184.6466 C 63.342771,185.08731 64.224717,185.52828 65.106396,185.96952 65.799533,186.22121 66.555569,186.41023 67.279757,186.63098 68.886048,186.41028 70.49282,186.18974 72.098955,185.96952 74.870534,185.30792 77.579875,184.70933 80.319937,184.07964 81.926418,183.54397 83.533,183.00844 85.139131,182.47324 85.422823,182.12657 85.706361,181.78002 85.989579,181.43381 86.587807,181.43354 87.186768,181.43354 87.784965,181.43381 88.414911,181.59096 89.045151,181.74852 89.674846,181.90628 90.399352,182.12643 91.124019,182.34698 91.84821,182.56773 92.257854,182.94536 92.667424,183.32342 93.076631,183.70166 92.856416,184.04787 92.635925,184.39435 92.415173,184.7411 91.595761,185.05609 90.714545,185.37079 89.863836,185.68604 88.099549,186.28446 86.336321,186.8827 84.572169,187.48142 81.296048,188.23725 78.020845,188.99306 74.744788,189.74928 73.485014,189.96952 72.225211,190.18999 70.965027,190.41074 69.768079,190.0009 68.571443,189.59153 67.374253,189.18232 66.208938,188.58351 65.043663,187.98513 63.877973,187.38693 63.468728,187.00866 63.059288,186.63071 62.649549,186.253 62.586817,185.71726 62.523822,185.1818 62.460563,184.6466 Z" />
    <path
       style="fill:#000000;stroke:#000000;stroke-width:0.26458332px;stroke-linecap:butt;stroke-linejoin:miter;stroke-opacity:1;fill-opacity:1"
       d="M 67.16964,202.36424 C 67.594997,202.06501 69.043906,202.09651 70.744646,201.95477 72.445385,201.81303 74.398609,201.49799 76.619035,200.99406 78.839461,200.49012 81.328187,199.79706 83.265227,199.24587 85.202268,198.69468 86.588357,198.28515 87.50173,197.87564 88.415103,197.46613 88.856176,197.05657 89.092273,196.6472 89.32837,196.23784 89.359888,195.82811 89.709254,195.38521 90.05862,194.94231 90.714579,194.47377 91.29718,194.19039 91.879781,193.907 92.38398,193.81247 93.265483,193.93841 94.146986,194.06435 95.407662,194.41104 96.352473,194.88345 97.297284,195.35585 97.927336,195.9544 98.147855,196.64719 98.368374,197.33998 98.179384,198.12744 97.927445,198.53706 97.675506,198.94668 97.360651,198.97817 96.761754,199.56127 96.162858,200.14437 95.28172,201.27726 94.494177,202.31681 93.706633,203.35637 93.013855,204.30107 92.210506,205.45095 91.407157,206.60084 90.494001,207.95483 89.6907,209.34089 88.887398,210.72696 88.194598,212.14405 87.530237,213.00425 86.865876,213.86445 86.178885,214.19159 85.611738,214.28615 85.044591,214.38071 84.572351,214.25478 84.225715,214.00266 83.87908,213.75054 83.658678,213.37271 83.816209,212.61676 83.97374,211.86082 84.509324,210.72664 85.044685,209.23074 85.580046,207.73485 86.115661,205.87595 86.336085,204.78937 86.556508,203.70278 86.461999,203.38775 86.194444,203.0887 85.926889,202.78965 85.485679,202.50602 84.981783,202.41148 84.477888,202.31695 83.911011,202.41143 82.745122,202.67927 81.579233,202.94711 79.81628,203.38784 78.194004,203.8131 76.571728,204.23835 75.091579,204.64776 73.76853,204.93128 72.445482,205.2148 71.280301,205.37226 70.335143,205.18324 69.389985,204.99422 68.665715,204.45889 68.004211,203.87614 67.342707,203.29338 66.744283,202.66346 67.16964,202.36424 Z"
       id="path958"
       inkscape:connector-curvature="0"
       inkscape:path-effect="#path-effect960"
       inkscape:original-d="M 66.14583,202.03351 C 67.595003,202.06474 69.043912,202.09624 70.492556,202.128 72.44535,201.81281 74.398575,201.49778 76.351187,201.18306 78.839413,200.48995 81.328137,199.79688 83.816215,199.10419 85.202219,198.69451 86.588307,198.28498 87.973954,197.87577 88.415091,197.46612 88.856162,197.05655 89.29687,196.64735 89.328613,196.23786 89.360132,195.82813 89.391364,195.41892 90.084106,194.97799 90.714545,194.47372 91.375739,194.00151 91.879743,193.9068 92.383941,193.81226 92.887645,193.71803 94.147072,194.06404 95.40775,194.41072 96.667405,194.75747 97.297542,195.35558 97.927592,195.95413 98.557287,196.55285 98.368565,197.34003 98.179575,198.12749 97.990322,198.9152 97.675483,198.94645 97.360627,198.97793 97.045381,199.0097 96.162895,200.1444 95.281758,201.27729 94.399548,202.41148 93.706678,203.3564 93.013901,204.3011 92.320679,205.24631 91.407214,206.60088 90.49406,207.95487 89.580353,209.30955 88.887505,210.72701 88.194704,212.1441 87.501485,213.56178 86.871647,213.87657 86.178833,214.19148 85.51711,214.50672 85.044675,214.3804 84.572434,214.25447 84.099697,214.12874 83.879392,213.75036 83.658992,213.37253 83.438239,212.99482 83.973854,211.86087 84.509436,210.72669 85.044638,209.59303 85.580218,207.7349 86.115836,205.876 86.651037,204.01788 86.556824,203.70269 86.462313,203.38766 86.367555,203.07294 85.927084,202.78935 85.485876,202.50571 85.044638,202.22249 84.477853,202.31674 83.910975,202.41122 83.343746,202.50598 81.579187,202.94692 79.816234,203.38766 78.052079,203.82889 76.571678,204.23817 75.09153,204.64758 73.610861,205.05732 72.44545,205.21457 71.28027,205.37203 70.11458,205.52979 69.390206,204.99392 68.665936,204.45859 67.941216,203.92339 67.342982,203.29312 66.744558,202.6632 66.14583,202.03351 Z" />
    <path
       style="fill:#000000;stroke:#000000;stroke-width:0.26458332px;stroke-linecap:butt;stroke-linejoin:miter;stroke-opacity:1;fill-opacity:1"
       d="M 61.326731,217.30996 C 61.862343,216.96358 63.153763,217.05807 65.137917,216.82185 67.122071,216.58563 69.799905,216.01856 72.965248,215.32565 76.13059,214.63274 79.784779,213.8137 82.320484,213.3272 84.856188,212.8407 86.336347,212.67981 87.580421,212.50658 88.824496,212.33334 89.864139,212.14431 90.777452,212.0341 91.690764,211.92388 92.478445,211.89238 93.201476,211.90658 93.924506,211.92079 94.651774,211.9869 95.439027,212.17585 96.226281,212.3648 97.108528,212.67989 97.643876,213.05774 98.179223,213.43559 98.368242,213.87663 98.299056,214.23112 98.22987,214.58562 97.864619,214.88446 97.170414,215.14887 96.476209,215.41327 95.376298,215.67207 93.533266,215.82961 91.690234,215.98714 89.076656,216.05012 86.115688,216.3966 83.154719,216.74309 79.847769,217.37298 76.965591,217.97146 74.083414,218.56994 71.626793,219.13686 69.579309,219.49911 67.531824,219.86137 65.894133,220.01884 64.571067,219.94011 63.248001,219.86138 62.240244,219.54645 61.625906,218.99506 61.011568,218.44367 60.791119,217.65635 61.326731,217.30996 Z"
       id="path962"
       inkscape:connector-curvature="0"
       inkscape:path-effect="#path-effect964"
       inkscape:original-d="M 60.570681,216.86907 C 61.862364,216.9633 63.153784,217.05779 64.444938,217.15255 67.122029,216.58543 69.799863,216.01836 72.47693,215.45166 76.130546,214.63254 79.784735,213.8135 83.438239,212.99482 84.855794,212.83707 86.336321,212.67957 87.784965,212.52235 88.824457,212.33313 89.8641,212.1441 90.90327,211.95538 91.690754,211.92363 92.478435,211.89212 93.26562,211.86089 93.927113,211.89211 94.651799,211.98662 95.344488,212.04987 96.226395,212.36448 97.108643,212.67957 97.990322,212.99482 98.179544,213.43545 98.368562,213.87649 98.557287,214.31773 98.24248,214.60103 97.864594,214.88443 97.517853,215.16818 96.477818,215.42011 95.376252,215.67188 94.305054,215.92413 91.690228,215.98688 89.07665,216.04986 86.462048,216.11312 83.15468,216.74288 79.84773,217.37278 76.540174,218.003 74.083369,218.56975 71.62675,219.13667 69.169639,219.70389 67.531802,219.86114 65.894111,220.01861 64.255948,220.17636 63.2481,219.86106 62.240342,219.54614 61.232139,219.23142 61.011882,218.44358 60.791434,217.65626 60.570681,216.86907 Z" />
    <path
       style="fill:#000000;stroke:#000000;stroke-width:0.26458332px;stroke-linecap:butt;stroke-linejoin:miter;stroke-opacity:1;fill-opacity:1"
       d="M 78.871113,218.60135 C 79.501158,218.57002 80.76108,218.94799 81.847645,219.43617 82.934211,219.92434 83.847779,220.52288 84.641379,221.23922 85.434979,221.95556 86.08405,222.75917 86.55651,223.48359 87.02897,224.20801 87.312439,224.83794 87.469952,225.37339 87.627464,225.90884 87.658956,226.34973 87.35971,226.79084 87.060464,227.23195 86.430851,227.67268 85.784891,227.73573 85.138931,227.79878 84.477788,227.48395 83.76895,226.86963 83.060112,226.2553 82.304286,225.34201 81.623768,224.4466 80.94325,223.55119 80.288397,222.60165 79.737194,221.78272 79.185992,220.96379 78.713492,220.23929 78.477281,219.6565 78.241069,219.07371 78.241069,218.63269 78.871113,218.60135 Z"
       id="path966"
       inkscape:connector-curvature="0"
       inkscape:path-effect="#path-effect968"
       inkscape:original-d="M 78.241069,218.19199 C 79.501253,218.5697 80.761174,218.94768 82.020829,219.32592 82.934414,219.92403 83.847978,220.52258 84.761156,221.1213 85.45433,221.93993 86.084337,222.75894 86.745531,223.57815 87.029288,224.20787 87.31276,224.8378 87.595978,225.46803 87.627747,225.90882 87.659237,226.34971 87.690471,226.79095 87.060427,227.2319 86.430817,227.67263 85.80059,228.11386 85.139081,227.79847 84.477938,227.48364 83.816215,227.16892 83.060398,226.25506 82.304576,225.34177 81.54836,224.4286 80.95018,223.54641 80.288703,222.60144 79.658479,221.68827 79.1863,220.96359 78.713802,220.23909 78.241069,219.51491 78.241333,219.07371 78.241333,218.63269 78.241069,218.19199 Z" />
    <path
       style="fill:#000000;stroke:#000000;stroke-width:0.26458332px;stroke-linecap:butt;stroke-linejoin:miter;stroke-opacity:1;fill-opacity:1"
       d="M 54.554691,189.32393 C 55.279129,189.24537 56.413058,189.78083 57.294931,190.30051 58.176804,190.82019 58.806828,191.32421 59.34225,191.87537 59.877671,192.42654 60.318664,193.02503 60.743892,193.71799 61.16912,194.41095 61.578564,195.19834 61.893557,195.90705 62.20855,196.61577 62.429008,197.24565 62.429049,197.98588 62.42909,198.72611 62.208658,199.57635 61.89362,200.56874 61.578582,201.56114 61.169258,202.69465 60.775461,204.01778 60.381664,205.34091 60.003794,206.85239 59.783276,207.95491 59.562758,209.05742 59.499776,209.75023 59.468265,210.3173 59.436754,210.88437 59.436754,211.32516 59.405241,212.49115 59.373729,213.65713 59.31077,215.54588 59.247772,217.08937 59.184774,218.63286 59.121788,219.82961 59.027292,220.90064 58.932796,221.97167 58.806831,222.9164 58.617838,223.7512 58.428846,224.586 58.176943,225.31022 58.129654,226.05065 58.082366,226.79107 58.239787,227.54669 58.586351,228.22408 58.932914,228.90146 59.468237,229.49976 59.972275,229.90927 60.476314,230.31879 60.948769,230.53927 62.114064,230.46051 63.27936,230.38175 65.138201,230.00368 67.673524,229.53126 70.208847,229.05884 73.422174,228.49178 76.241132,227.98784 79.06009,227.48389 81.485664,227.04288 84.178553,226.68068 86.871441,226.31848 89.832624,226.03497 92.005925,225.78298 94.179227,225.531 95.565276,225.31049 96.80932,225.15302 98.053365,224.99555 99.156035,224.90104 100.25829,224.93255 101.36055,224.96405 102.46327,225.12158 104.06941,225.60973 105.67556,226.09788 107.78634,226.91699 109.15646,227.51544 110.52657,228.11389 111.15657,228.49189 111.56597,228.96422 111.97536,229.43655 112.16438,230.00358 112.1015,230.4288 112.03863,230.85402 111.72373,231.13742 111.04605,231.24777 110.36837,231.35812 109.32985,231.29518 108.21325,231.15924 107.09665,231.0233 105.77055,230.79123 104.63656,230.68097 103.50257,230.57071 102.4948,230.57071 100.79359,230.57071 99.092388,230.57071 96.699168,230.57071 94.226435,230.58646 91.753702,230.60221 89.202645,230.6337 86.838474,230.75829 84.474302,230.88287 82.241602,231.10614 80.304371,231.34239 78.367139,231.57863 76.697962,231.83058 74.855145,232.06684 73.012328,232.3031 70.996813,232.52355 69.185565,232.74405 67.374316,232.96455 65.76815,233.185 64.492387,233.32676 63.216624,233.46852 62.271854,233.5315 61.562105,233.50373 60.852356,233.47595 60.318884,233.34258 59.925097,233.54723 59.53131,233.75189 59.247931,234.28716 58.995884,234.75975 58.743836,235.23234 58.523481,235.64157 58.080111,235.89404 57.63674,236.14652 56.980205,236.24031 56.55477,235.79904 56.129335,235.35776 55.940433,234.38176 55.782966,233.18497 55.625498,231.98818 55.499479,230.57047 55.56248,228.71226 55.625482,226.85404 55.877509,224.55429 56.113729,222.31808 56.349949,220.08186 56.570464,217.90822 56.838178,215.40431 57.105892,212.9004 57.420913,210.06521 57.735884,207.63997 58.050855,205.21472 58.365866,203.19864 58.507581,201.8128 58.649295,200.42696 58.617793,199.6709 58.381613,198.86792 58.145432,198.06494 57.704313,197.21421 57.105897,196.17486 56.507481,195.13551 55.751437,193.90694 55.074267,192.97781 54.397098,192.04867 53.798599,191.41867 53.656935,190.75706 53.515271,190.09545 53.830253,189.40249 54.554691,189.32393 Z"
       id="path970"
       inkscape:connector-curvature="0"
       inkscape:path-effect="#path-effect972"
       inkscape:original-d="M 54.145087,188.70985 C 55.279279,189.24505 56.413209,189.78051 57.546872,190.31624 58.177033,190.8199 58.807059,191.32392 59.436754,191.82815 59.877968,192.42632 60.318962,193.02481 60.75967,193.62354 61.169438,194.41078 61.578884,195.19817 61.988091,195.98589 62.20887,196.61566 62.429329,197.24554 62.649549,197.87577 62.429276,198.72616 62.208843,199.5764 61.988091,200.42711 61.578733,201.56119 61.169409,202.6947 60.75967,203.82889 60.381851,205.34096 60.003981,206.85244 59.62574,208.36461 59.562997,209.05744 59.500013,209.75025 59.436754,210.44348 59.437018,210.88437 59.437018,211.32516 59.436754,211.76639 59.373984,213.65714 59.311026,215.54589 59.247764,217.43603 59.185024,218.63287 59.122037,219.82962 59.058778,221.02681 58.933021,221.9717 58.807059,222.91643 58.680799,223.86163 58.429003,224.58605 58.177096,225.31027 57.924848,226.03499 58.082672,226.79101 58.240094,227.54663 58.39732,228.30285 58.933191,228.90121 59.468517,229.49951 60.003716,230.09824 60.476466,230.31846 60.948921,230.53894 61.421129,230.7597 63.279318,230.38155 65.138159,230.00348 66.996278,229.62577 70.208809,229.05863 73.422136,228.49157 76.63467,227.92487 79.060052,227.48368 81.485627,227.04267 83.910711,226.60196 86.871419,226.31825 89.832601,226.03473 92.793151,225.75151 94.179192,225.53078 95.565241,225.31027 96.950888,225.09005 98.053345,224.99532 99.156015,224.9008 100.25818,224.80657 101.36059,224.96376 102.46331,225.12129 103.56547,225.27904 105.67568,226.09756 107.78647,226.91667 109.89657,227.73589 110.52676,228.11357 111.15676,228.49157 111.78645,228.86981 111.97568,229.43644 112.16469,230.00348 112.35342,230.57071 112.03861,230.854 111.72372,231.13741 111.40848,231.42115 110.36839,231.35784 109.32987,231.2949 108.29017,231.23217 107.09323,231.04287 105.7706,230.79093 104.51041,230.57071 103.50257,230.57044 102.4948,230.57044 101.4866,230.57071 99.092388,230.63346 96.699168,230.57044 94.305054,230.57071 91.753699,230.60194 89.202642,230.63344 86.651037,230.6652 84.47771,230.91695 82.241579,231.10591 80.036454,231.32666 78.367106,231.57841 76.697929,231.83036 75.02827,232.08261 73.012302,232.30287 70.996788,232.52332 68.980652,232.74407 67.374285,232.96432 65.768119,233.18478 64.161455,233.40553 63.216607,233.46827 62.271838,233.53126 61.326633,233.59452 60.854288,233.46822 60.318962,233.34227 59.81473,233.21654 59.531406,233.75194 59.248029,234.28721 58.964282,234.82294 58.743932,235.23239 58.523576,235.64162 58.302824,236.05136 57.641122,236.17719 56.980172,236.24008 56.318449,236.33485 56.129642,235.3577 55.940738,234.3817 55.751486,233.40553 55.625786,231.98815 55.499767,230.57044 55.373508,229.1533 55.625714,226.85407 55.877743,224.55432 56.129462,222.25523 56.350186,220.08188 56.570697,217.90824 56.790921,215.73514 57.106124,212.90043 57.421145,210.06524 57.735861,207.23068 58.051073,205.21475 58.366086,203.19867 58.680799,201.18306 58.649571,200.42695 58.618069,199.67089 58.586306,198.9152 58.145746,198.06478 57.704627,197.21405 57.26339,196.36386 56.507793,195.13532 55.751751,193.90675 54.995532,192.6786 54.39737,192.04841 53.798872,191.41841 53.200147,190.78872 53.515387,190.0955 53.830371,189.40254 54.145087,188.70985 Z" />
    <path
       style="fill:#000000;stroke:#000000;stroke-width:0.26458332px;stroke-linecap:butt;stroke-linejoin:miter;stroke-opacity:1;fill-opacity:1"
       d="M 5.1815772,252.83966 C 5.9218484,252.58785 7.2132657,252.77684 8.6778148,252.80832 10.142364,252.83981 11.780541,252.71379 14.221366,252.3516 16.662191,251.9894 19.907048,251.39084 25.620799,250.35197 31.334549,249.3131 39.530309,247.83156 48.365323,246.44568 57.200338,245.0598 66.681592,243.76834 75.233177,242.87066 83.784761,241.97299 91.407518,241.469 97.297644,241.07634 103.18777,240.68368 107.40851,240.39807 110.11731,240.16183 112.8261,239.92559 114.0546,239.73658 115.17267,239.53186 116.29073,239.32714 117.29891,239.1066 118.76319,239.40577 120.22747,239.70494 122.14943,240.52413 123.53525,241.32728 124.92108,242.13043 125.77158,242.91794 126.30387,243.63286 126.83615,244.34777 127.06294,245.02814 127.063,245.64234 127.06306,246.25654 126.84263,246.82337 126.32278,247.21727 125.80292,247.61118 124.98443,247.83154 123.61387,247.92607 122.24332,248.0206 120.32268,247.98911 118.46707,247.80069 116.61147,247.61226 114.81047,247.2647 113.51894,246.8552 112.22741,246.4457 111.44005,245.97328 110.6526,245.5953 109.86514,245.21731 109.07778,244.93386 107.94375,244.74484 106.80973,244.55582 105.3296,244.46135 102.76223,244.52435 100.19485,244.58735 96.541693,244.8078 93.202777,244.88655 89.863861,244.9653 86.840285,244.90231 82.917802,244.99768 78.995319,245.09304 74.241098,245.34326 70.036014,245.67399 65.83093,246.00472 62.208869,246.41417 58.68096,246.9339 55.15305,247.45364 51.720042,248.08354 47.57784,248.85529 43.435638,249.62703 38.58537,250.54039 34.34878,251.4696 30.112189,252.39881 26.490142,253.34369 23.182722,254.22567 19.875302,255.10765 16.88325,255.92652 15.040572,256.60369 13.197893,257.28085 12.505009,257.81626 11.798238,258.02409 11.091467,258.23191 10.300065,258.10001 9.3391423,257.69044 8.3782194,257.28087 7.2131237,256.58811 6.2996438,256.00538 5.386164,255.42264 4.7247544,254.95021 4.4885426,254.36729 4.2523308,253.78438 4.441306,253.09147 5.1815772,252.83966 Z"
       id="path976"
       inkscape:connector-curvature="0"
       inkscape:path-effect="#path-effect978"
       inkscape:original-d="M 4.6302081,252.39883 C 5.9218912,252.58756 7.2133099,252.77654 8.5044638,252.9658 10.142345,252.83956 11.780522,252.71355 13.418154,252.58782 16.662153,251.9892 19.90701,251.39063 23.15104,250.79243 31.340024,249.34339 39.530272,247.83136 47.719491,246.35121 57.200308,245.05958 66.681561,243.76811 76.162198,242.47696 83.784745,241.97274 91.407502,241.46876 99.029756,240.96505 103.18761,240.68132 107.40849,240.39782 111.59746,240.11461 112.82607,239.92537 114.05457,239.73637 115.28273,239.54764 116.29069,239.32694 117.29887,239.10641 118.30654,238.88618 120.2276,239.70462 122.14956,240.52382 124.07068,241.34303 124.92133,242.13016 125.77183,242.91767 126.62202,243.70538 126.87426,244.33507 127.06326,245.02803 127.28348,245.68975 127.0632,246.25659 126.84277,246.82342 126.62202,247.39065 125.80287,247.61099 124.98438,247.83136 124.16517,248.05211 122.24332,248.02033 120.32268,247.98884 118.40104,247.95761 116.60567,247.64232 114.81053,247.26439 113.01488,246.91818 112.2276,246.44539 111.44024,245.97297 110.65253,245.50077 109.86526,245.21699 109.07789,244.93354 108.29017,244.65032 106.80975,244.55554 105.32962,244.46107 103.84895,244.36684 100.19484,244.5871 96.541678,244.80754 92.887645,245.0283 89.863867,244.96503 86.840291,244.90204 83.816215,244.83931 78.996872,245.12255 74.241085,245.34301 69.453122,245.59526 65.830904,246.00449 62.208843,246.41394 58.586306,246.82368 55.153012,247.45343 51.720004,248.08334 48.286456,248.71356 43.435599,249.62682 38.585331,250.54018 33.734373,251.45389 30.11214,252.39862 26.490095,253.34351 22.867559,254.28871 19.875254,255.10747 16.8832,255.92634 13.890624,256.74556 13.19786,257.28081 12.504976,257.81622 11.811755,258.35196 11.087259,258.25716 10.300115,258.09971 9.5438984,257.97398 8.3784057,257.28056 7.2133099,256.5878 6.0476188,255.89511 5.3863801,255.42234 4.7249668,254.94991 4.0632439,254.4777 4.2525109,253.78443 4.4414845,253.09152 4.6302081,252.39883 Z" />
    <path
       style="fill:#000000;stroke:#000000;stroke-width:0.26458332px;stroke-linecap:butt;stroke-linejoin:miter;stroke-opacity:1;fill-opacity:1"
       d="M 63.2481,237.01193 C 63.81512,236.93336 64.886053,237.34284 65.893874,237.90974 66.901695,238.47665 67.84676,239.2012 68.665667,239.95711 69.484574,240.71302 70.177558,241.5005 70.446359,242.18944 70.715161,242.87838 70.555634,243.48458 70.240567,244.27228 69.9255,245.05999 69.453275,246.03592 69.122494,246.79196 68.791713,247.548 68.602787,248.08329 68.460982,248.69771 68.319178,249.31214 68.224739,250.00469 68.193225,251.10746 68.161711,252.21023 68.193195,253.72149 68.208946,256.25738 68.224698,258.79327 68.224698,262.41493 68.287683,264.6671 68.350669,266.91926 68.476651,267.83263 68.714137,268.89219 68.951623,269.95176 69.295581,271.13997 69.468846,272.16368 69.642111,273.18738 69.642111,274.0377 69.610613,274.90403 69.579115,275.77035 69.516138,276.65202 69.29564,277.61286 69.075141,278.5737 68.697286,279.6128 68.256255,280.65239 67.815224,281.69199 67.311408,282.73111 66.775919,283.50292 66.24043,284.27473 65.673643,284.77854 65.295452,284.84151 64.917261,284.90449 64.728366,284.5267 64.334727,283.8339 63.941089,283.1411 63.342459,282.13288 62.389604,281.08424 61.436749,280.03561 60.09824,278.92018 59.066659,277.99885 58.035078,277.07751 57.26339,276.30582 56.680689,275.75462 56.097988,275.20341 55.688512,274.85694 55.546801,274.43153 55.405091,274.00613 55.531075,273.50219 55.971902,273.26611 56.41273,273.03002 57.169149,273.06154 58.113852,273.26624 59.058554,273.47093 60.192861,273.84904 61.153499,274.164 62.114137,274.47896 62.901698,274.73098 63.46865,274.88846 64.035601,275.04593 64.382148,275.10894 64.665584,275.01436 64.949019,274.91978 65.169638,274.66765 65.279758,273.22022 65.389878,271.7728 65.389878,269.12401 65.311135,266.14762 65.232392,263.17123 65.074886,259.86361 64.980395,256.66651 64.885905,253.46941 64.854408,250.38269 64.822911,247.98892 64.791413,245.59514 64.759913,243.89411 64.633914,242.74453 64.507914,241.59496 64.287392,240.9964 63.925236,240.33508 63.56308,239.67376 63.05899,238.94913 62.838535,238.30332 62.618079,237.65751 62.681081,237.0905 63.2481,237.01193 Z"
       id="path980"
       inkscape:connector-curvature="0"
       inkscape:path-effect="#path-effect982"
       inkscape:original-d="M 62.744045,236.52383 C 63.815243,236.93304 64.886175,237.34252 65.956841,237.75226 66.901922,238.47635 67.846987,239.2009 68.791663,239.92562 69.484856,240.71277 70.177842,241.50025 70.870531,242.28797 70.744801,242.88618 70.555817,243.48463 70.398062,244.08336 69.925609,245.06004 69.453386,246.03597 68.980652,247.01267 68.791867,247.54805 68.602939,248.08334 68.413687,248.61907 68.3194,249.31217 68.224963,250.00472 68.130205,250.69794 68.161981,252.21022 68.193467,253.72148 68.224698,255.23365 68.224963,258.79327 68.224963,262.41493 68.224698,266.00597 68.350965,266.91922 68.476947,267.83259 68.602674,268.7463 68.98101,269.94325 69.295896,271.13988 69.642111,272.33707 69.642375,273.18738 69.642375,274.0377 69.642111,274.88841 69.579359,275.77037 69.516383,276.65204 69.453122,277.53425 69.075289,278.57375 68.697434,279.61285 68.319194,280.65255 67.815335,281.69204 67.311521,282.73116 66.807288,283.77085 66.240416,284.27471 65.673626,284.77852 65.106396,285.28276 64.917579,284.90433 64.728685,284.52654 64.539431,284.14883 63.941401,283.14091 63.342771,282.13269 62.744045,281.12502 61.421496,280.05391 60.098477,278.9199 58.775295,277.81773 58.051091,277.0615 57.263654,276.30556 56.507438,275.54987 56.098228,275.20313 55.688754,274.85665 55.279015,274.51044 55.405279,274.00618 55.531263,273.50224 55.65699,272.99853 56.412741,273.02975 57.169161,273.06126 57.924848,273.09303 59.058662,273.47061 60.19297,273.84871 61.326633,274.22696 62.114239,274.47864 62.9018,274.73066 63.688986,274.98291 64.035656,275.04563 64.382205,275.10863 64.72842,275.1719 64.949038,274.9198 65.169655,274.66766 65.389878,274.41594 65.390143,271.7728 65.390143,269.12401 65.389878,266.47844 65.232668,263.17122 65.075162,259.8636 64.917407,256.55657 64.854682,253.46973 64.854677,250.38269 64.822913,247.29615 64.791682,245.59514 64.760183,243.8941 64.72842,242.19347 64.508231,241.59484 64.287712,240.99628 64.066962,240.39809 63.56338,239.67355 63.059288,238.94892 62.555056,238.22472 62.618313,237.65754 62.681313,237.09053 62.744045,236.52383 Z" />
    <path
       style="fill:#000000;stroke:#000000;stroke-width:0.26458332px;stroke-linecap:butt;stroke-linejoin:miter;stroke-opacity:1;fill-opacity:1"
       d="M 41.026215,254.46174 C 40.475102,254.85536 39.750647,256.36727 38.963125,257.83208 38.175603,259.29688 37.325336,260.71399 36.679571,261.81651 36.033806,262.91903 35.59293,263.70631 35.482619,264.49398 35.372308,265.28166 35.592707,266.0688 35.900242,266.96337 36.207778,267.85793 36.632135,268.93515 37.167656,269.91169 37.703176,270.88824 38.364546,271.80156 38.978794,272.52605 39.593041,273.25055 40.159976,273.78599 40.648249,273.5181 41.136522,273.25021 41.546002,272.17927 42.018373,270.62042 42.490743,269.06158 43.026369,267.0136 43.325562,265.39156 43.624755,263.76952 43.68776,262.57242 43.687752,261.47012 43.687745,260.36782 43.624735,259.35965 43.388529,258.38338 43.152323,257.40712 42.742749,256.46195 42.34905,255.62731 41.955352,254.79268 41.577327,254.06813 41.026215,254.46174 Z"
       id="path984"
       inkscape:connector-curvature="0"
       inkscape:path-effect="#path-effect986"
       inkscape:original-d="M 41.199404,253.34377 C 40.475213,254.85541 39.75076,256.36732 39.02604,257.87949 38.175679,259.29693 37.325412,260.71404 36.4747,262.13172 36.033896,262.91908 35.593021,263.70636 35.151783,264.49407 35.372623,265.28157 35.593021,266.06871 35.813241,266.85642 36.191569,267.86432 36.632455,268.93502 37.041665,269.97472 37.703475,270.88802 38.364846,271.80134 39.02604,272.71505 39.593298,273.25028 40.160232,273.78572 40.726932,274.32145 41.136666,273.25027 41.546146,272.17932 41.955355,271.10865 42.490928,269.06163 43.026553,267.01365 43.561755,264.96654 43.625006,263.76953 43.688011,262.57243 43.750741,261.37576 43.688024,260.3678 43.625014,259.35963 43.561755,258.35196 43.152645,257.40698 42.74307,256.46181 42.333331,255.51714 41.95567,254.79251 41.577644,254.06796 41.199404,253.34377 Z" />
    <path
       style="fill:#000000;stroke:#000000;stroke-width:0.26458332px;stroke-linecap:butt;stroke-linejoin:miter;stroke-opacity:1;fill-opacity:1"
       d="M 86.950325,252.24124 C 87.91107,252.46188 89.832451,253.37532 91.974213,254.69818 94.115975,256.02104 96.478463,257.75353 98.210826,259.12367 99.94319,260.49381 101.04564,261.50176 101.90436,262.43624 102.76308,263.37072 103.40794,264.27353 103.89617,265.04523 104.38439,265.81692 104.73085,266.47834 104.90411,267.09252 105.07738,267.70669 105.07738,268.33656 104.96718,268.82484 104.85698,269.31312 104.63659,269.69093 104.24269,270.06912 103.84879,270.44731 103.28229,270.82497 102.49452,270.90378 101.70674,270.98259 100.69935,270.76222 99.722751,270.33693 98.74615,269.91165 97.801394,269.28181 96.935145,268.58881 96.068897,267.89581 95.2815,267.13991 94.305034,265.8642 93.328568,264.58849 92.163146,262.79311 91.17097,261.12373 90.178794,259.45435 89.359816,257.91089 88.525155,256.57228 87.690494,255.23368 86.839993,254.09968 86.414786,253.29638 85.989579,252.49308 85.989579,252.02059 86.950325,252.24124 Z"
       id="path988"
       inkscape:connector-curvature="0"
       inkscape:path-effect="#path-effect990"
       inkscape:original-d="M 85.989579,251.54839 C 87.911224,252.46156 89.832601,253.37501 91.753714,254.28871 94.116192,256.02074 96.478683,257.75323 98.840769,259.48589 99.943441,260.49354 101.04589,261.50149 102.14806,262.50969 102.77828,263.35987 103.40824,264.27332 104.03794,265.15553 104.3847,265.81676 104.73116,266.47818 105.07738,267.1399 105.07764,267.70669 105.07764,268.33656 105.07738,268.93529 104.85706,269.31317 104.63667,269.69098 104.41592,270.06922 103.84875,270.44724 103.28225,270.82491 102.71503,271.20315 101.70681,270.98228 100.69942,270.76191 99.691214,270.54169 98.746355,269.91134 97.8016,269.2815 96.856394,268.65181 96.069158,267.89554 95.281758,267.13964 94.494044,266.38395 93.328872,264.58829 92.163454,262.79291 90.997763,260.99779 90.17911,259.45418 89.360132,257.91072 88.540919,256.36758 87.690789,255.23346 86.840291,254.09946 85.989579,252.9658 85.989844,252.49308 85.989844,252.02059 85.989579,251.54839 Z" />
  </g>
</svg>
