<?xml version="1.0" encoding="UTF-8" standalone="no"?>
<!-- Created with Inkscape (http://www.inkscape.org/) -->

<svg
   xmlns:dc="http://purl.org/dc/elements/1.1/"
   xmlns:cc="http://creativecommons.org/ns#"
   xmlns:rdf="http://www.w3.org/1999/02/22-rdf-syntax-ns#"
   xmlns:svg="http://www.w3.org/2000/svg"
   xmlns="http://www.w3.org/2000/svg"
   xmlns:sodipodi="http://sodipodi.sourceforge.net/DTD/sodipodi-0.dtd"
   xmlns:inkscape="http://www.inkscape.org/namespaces/inkscape"
   width="512"
   height="512"
   viewBox="0 0 135.46666 135.46666"
   version="1.1"
   id="svg8"
   inkscape:version="0.92.4 (5da689c313, 2019-01-14)"
   sodipodi:docname="U+7864.svg">
  <defs
     id="defs2">
    <inkscape:path-effect
       effect="bspline"
       id="path-effect1096"
       is_visible="true"
       weight="33.333333"
       steps="2"
       helper_size="0"
       apply_no_weight="true"
       apply_with_weight="true"
       only_selected="false" />
    <inkscape:path-effect
       effect="bspline"
       id="path-effect1092"
       is_visible="true"
       weight="33.333333"
       steps="2"
       helper_size="0"
       apply_no_weight="true"
       apply_with_weight="true"
       only_selected="false" />
    <inkscape:path-effect
       effect="bspline"
       id="path-effect1088"
       is_visible="true"
       weight="33.333333"
       steps="2"
       helper_size="0"
       apply_no_weight="true"
       apply_with_weight="true"
       only_selected="false" />
    <inkscape:path-effect
       effect="bspline"
       id="path-effect1084"
       is_visible="true"
       weight="33.333333"
       steps="2"
       helper_size="0"
       apply_no_weight="true"
       apply_with_weight="true"
       only_selected="false" />
    <inkscape:path-effect
       effect="bspline"
       id="path-effect1080"
       is_visible="true"
       weight="33.333333"
       steps="2"
       helper_size="0"
       apply_no_weight="true"
       apply_with_weight="true"
       only_selected="false" />
    <inkscape:path-effect
       effect="bspline"
       id="path-effect1076"
       is_visible="true"
       weight="33.333333"
       steps="2"
       helper_size="0"
       apply_no_weight="true"
       apply_with_weight="true"
       only_selected="false" />
    <inkscape:path-effect
       effect="bspline"
       id="path-effect1072"
       is_visible="true"
       weight="33.333333"
       steps="2"
       helper_size="0"
       apply_no_weight="true"
       apply_with_weight="true"
       only_selected="false" />
    <inkscape:path-effect
       effect="bspline"
       id="path-effect1068"
       is_visible="true"
       weight="33.333333"
       steps="2"
       helper_size="0"
       apply_no_weight="true"
       apply_with_weight="true"
       only_selected="false" />
    <inkscape:path-effect
       effect="bspline"
       id="path-effect1064"
       is_visible="true"
       weight="33.333333"
       steps="2"
       helper_size="0"
       apply_no_weight="true"
       apply_with_weight="true"
       only_selected="false" />
    <inkscape:path-effect
       effect="bspline"
       id="path-effect1049"
       is_visible="true"
       weight="33.333333"
       steps="2"
       helper_size="0"
       apply_no_weight="true"
       apply_with_weight="true"
       only_selected="false" />
    <inkscape:path-effect
       effect="bspline"
       id="path-effect1045"
       is_visible="true"
       weight="33.333333"
       steps="2"
       helper_size="0"
       apply_no_weight="true"
       apply_with_weight="true"
       only_selected="false" />
    <inkscape:path-effect
       effect="bspline"
       id="path-effect1041"
       is_visible="true"
       weight="33.333333"
       steps="2"
       helper_size="0"
       apply_no_weight="true"
       apply_with_weight="true"
       only_selected="false" />
    <inkscape:path-effect
       effect="bspline"
       id="path-effect1037"
       is_visible="true"
       weight="33.333333"
       steps="2"
       helper_size="0"
       apply_no_weight="true"
       apply_with_weight="true"
       only_selected="false" />
    <inkscape:path-effect
       effect="bspline"
       id="path-effect1033"
       is_visible="true"
       weight="33.333333"
       steps="2"
       helper_size="0"
       apply_no_weight="true"
       apply_with_weight="true"
       only_selected="false" />
    <inkscape:path-effect
       effect="bspline"
       id="path-effect1029"
       is_visible="true"
       weight="33.333333"
       steps="2"
       helper_size="0"
       apply_no_weight="true"
       apply_with_weight="true"
       only_selected="false" />
    <inkscape:path-effect
       effect="bspline"
       id="path-effect1025"
       is_visible="true"
       weight="33.333333"
       steps="2"
       helper_size="0"
       apply_no_weight="true"
       apply_with_weight="true"
       only_selected="false" />
    <inkscape:path-effect
       effect="bspline"
       id="path-effect1021"
       is_visible="true"
       weight="33.333333"
       steps="2"
       helper_size="0"
       apply_no_weight="true"
       apply_with_weight="true"
       only_selected="false" />
    <inkscape:path-effect
       effect="bspline"
       id="path-effect1017"
       is_visible="true"
       weight="33.333333"
       steps="2"
       helper_size="0"
       apply_no_weight="true"
       apply_with_weight="true"
       only_selected="false" />
    <inkscape:path-effect
       effect="bspline"
       id="path-effect1009"
       is_visible="true"
       weight="33.333333"
       steps="2"
       helper_size="0"
       apply_no_weight="true"
       apply_with_weight="true"
       only_selected="false" />
    <inkscape:path-effect
       effect="bspline"
       id="path-effect1005"
       is_visible="true"
       weight="33.333333"
       steps="2"
       helper_size="0"
       apply_no_weight="true"
       apply_with_weight="true"
       only_selected="false" />
    <inkscape:path-effect
       effect="bspline"
       id="path-effect990"
       is_visible="true"
       weight="33.333333"
       steps="2"
       helper_size="0"
       apply_no_weight="true"
       apply_with_weight="true"
       only_selected="false" />
    <inkscape:path-effect
       effect="bspline"
       id="path-effect986"
       is_visible="true"
       weight="33.333333"
       steps="2"
       helper_size="0"
       apply_no_weight="true"
       apply_with_weight="true"
       only_selected="false" />
    <inkscape:path-effect
       effect="bspline"
       id="path-effect982"
       is_visible="true"
       weight="33.333333"
       steps="2"
       helper_size="0"
       apply_no_weight="true"
       apply_with_weight="true"
       only_selected="false" />
    <inkscape:path-effect
       effect="bspline"
       id="path-effect978"
       is_visible="true"
       weight="33.333333"
       steps="2"
       helper_size="0"
       apply_no_weight="true"
       apply_with_weight="true"
       only_selected="false" />
    <inkscape:path-effect
       effect="bspline"
       id="path-effect972"
       is_visible="true"
       weight="33.333333"
       steps="2"
       helper_size="0"
       apply_no_weight="true"
       apply_with_weight="true"
       only_selected="false" />
    <inkscape:path-effect
       effect="bspline"
       id="path-effect968"
       is_visible="true"
       weight="33.333333"
       steps="2"
       helper_size="0"
       apply_no_weight="true"
       apply_with_weight="true"
       only_selected="false" />
    <inkscape:path-effect
       effect="bspline"
       id="path-effect964"
       is_visible="true"
       weight="33.333333"
       steps="2"
       helper_size="0"
       apply_no_weight="true"
       apply_with_weight="true"
       only_selected="false" />
    <inkscape:path-effect
       effect="bspline"
       id="path-effect960"
       is_visible="true"
       weight="33.333333"
       steps="2"
       helper_size="0"
       apply_no_weight="true"
       apply_with_weight="true"
       only_selected="false" />
    <inkscape:path-effect
       effect="bspline"
       id="path-effect956"
       is_visible="true"
       weight="33.333333"
       steps="2"
       helper_size="0"
       apply_no_weight="true"
       apply_with_weight="true"
       only_selected="false" />
    <inkscape:path-effect
       effect="bspline"
       id="path-effect952"
       is_visible="true"
       weight="33.333333"
       steps="2"
       helper_size="0"
       apply_no_weight="true"
       apply_with_weight="true"
       only_selected="false" />
    <inkscape:path-effect
       effect="bspline"
       id="path-effect948"
       is_visible="true"
       weight="33.333333"
       steps="2"
       helper_size="0"
       apply_no_weight="true"
       apply_with_weight="true"
       only_selected="false" />
    <inkscape:path-effect
       effect="bspline"
       id="path-effect944"
       is_visible="true"
       weight="33.333333"
       steps="2"
       helper_size="0"
       apply_no_weight="true"
       apply_with_weight="true"
       only_selected="false" />
    <inkscape:path-effect
       effect="bspline"
       id="path-effect929"
       is_visible="true"
       weight="33.333333"
       steps="2"
       helper_size="0"
       apply_no_weight="true"
       apply_with_weight="true"
       only_selected="false" />
    <inkscape:path-effect
       effect="bspline"
       id="path-effect925"
       is_visible="true"
       weight="33.333333"
       steps="2"
       helper_size="0"
       apply_no_weight="true"
       apply_with_weight="true"
       only_selected="false" />
    <inkscape:path-effect
       effect="bspline"
       id="path-effect921"
       is_visible="true"
       weight="33.333333"
       steps="2"
       helper_size="0"
       apply_no_weight="true"
       apply_with_weight="true"
       only_selected="false" />
    <inkscape:path-effect
       effect="bspline"
       id="path-effect917"
       is_visible="true"
       weight="33.333333"
       steps="2"
       helper_size="0"
       apply_no_weight="true"
       apply_with_weight="true"
       only_selected="false" />
    <inkscape:path-effect
       effect="bspline"
       id="path-effect913"
       is_visible="true"
       weight="33.333333"
       steps="2"
       helper_size="0"
       apply_no_weight="true"
       apply_with_weight="true"
       only_selected="false" />
    <inkscape:path-effect
       effect="bspline"
       id="path-effect909"
       is_visible="true"
       weight="33.333333"
       steps="2"
       helper_size="0"
       apply_no_weight="true"
       apply_with_weight="true"
       only_selected="false" />
    <inkscape:path-effect
       effect="bspline"
       id="path-effect905"
       is_visible="true"
       weight="33.333333"
       steps="2"
       helper_size="0"
       apply_no_weight="true"
       apply_with_weight="true"
       only_selected="false" />
    <inkscape:path-effect
       effect="bspline"
       id="path-effect901"
       is_visible="true"
       weight="33.333333"
       steps="2"
       helper_size="0"
       apply_no_weight="true"
       apply_with_weight="true"
       only_selected="false" />
    <inkscape:path-effect
       effect="bspline"
       id="path-effect897"
       is_visible="true"
       weight="33.333333"
       steps="2"
       helper_size="0"
       apply_no_weight="true"
       apply_with_weight="true"
       only_selected="false" />
    <inkscape:path-effect
       effect="bspline"
       id="path-effect893"
       is_visible="true"
       weight="33.333333"
       steps="2"
       helper_size="0"
       apply_no_weight="true"
       apply_with_weight="true"
       only_selected="false" />
    <inkscape:path-effect
       effect="bspline"
       id="path-effect889"
       is_visible="true"
       weight="33.333333"
       steps="2"
       helper_size="0"
       apply_no_weight="true"
       apply_with_weight="true"
       only_selected="false" />
    <inkscape:path-effect
       effect="bspline"
       id="path-effect885"
       is_visible="true"
       weight="33.333333"
       steps="2"
       helper_size="0"
       apply_no_weight="true"
       apply_with_weight="true"
       only_selected="false" />
    <inkscape:path-effect
       effect="bspline"
       id="path-effect881"
       is_visible="true"
       weight="33.333333"
       steps="2"
       helper_size="0"
       apply_no_weight="true"
       apply_with_weight="true"
       only_selected="false" />
    <inkscape:path-effect
       effect="bspline"
       id="path-effect877"
       is_visible="true"
       weight="33.333333"
       steps="2"
       helper_size="0"
       apply_no_weight="true"
       apply_with_weight="true"
       only_selected="false" />
    <inkscape:path-effect
       effect="bspline"
       id="path-effect873"
       is_visible="true"
       weight="33.333333"
       steps="2"
       helper_size="0"
       apply_no_weight="true"
       apply_with_weight="true"
       only_selected="false" />
    <inkscape:path-effect
       effect="bspline"
       id="path-effect858"
       is_visible="true"
       weight="33.333333"
       steps="2"
       helper_size="0"
       apply_no_weight="true"
       apply_with_weight="true"
       only_selected="false" />
    <inkscape:path-effect
       effect="bspline"
       id="path-effect854"
       is_visible="true"
       weight="33.333333"
       steps="2"
       helper_size="0"
       apply_no_weight="true"
       apply_with_weight="true"
       only_selected="false" />
    <inkscape:path-effect
       effect="bspline"
       id="path-effect850"
       is_visible="true"
       weight="33.333333"
       steps="2"
       helper_size="0"
       apply_no_weight="true"
       apply_with_weight="true"
       only_selected="false" />
    <inkscape:path-effect
       effect="bspline"
       id="path-effect846"
       is_visible="true"
       weight="33.333333"
       steps="2"
       helper_size="0"
       apply_no_weight="true"
       apply_with_weight="true"
       only_selected="false" />
    <inkscape:path-effect
       effect="bspline"
       id="path-effect842"
       is_visible="true"
       weight="33.333333"
       steps="2"
       helper_size="0"
       apply_no_weight="true"
       apply_with_weight="true"
       only_selected="false" />
    <inkscape:path-effect
       effect="bspline"
       id="path-effect838"
       is_visible="true"
       weight="33.333333"
       steps="2"
       helper_size="0"
       apply_no_weight="true"
       apply_with_weight="true"
       only_selected="false" />
    <inkscape:path-effect
       effect="bspline"
       id="path-effect834"
       is_visible="true"
       weight="33.333333"
       steps="2"
       helper_size="0"
       apply_no_weight="true"
       apply_with_weight="true"
       only_selected="false" />
    <inkscape:path-effect
       effect="bspline"
       id="path-effect830"
       is_visible="true"
       weight="33.333333"
       steps="2"
       helper_size="0"
       apply_no_weight="true"
       apply_with_weight="true"
       only_selected="false" />
  </defs>
  <sodipodi:namedview
     id="base"
     pagecolor="#ffffff"
     bordercolor="#666666"
     borderopacity="1.0"
     inkscape:pageopacity="0.0"
     inkscape:pageshadow="2"
     inkscape:zoom="1.979899"
     inkscape:cx="274.69567"
     inkscape:cy="240.77388"
     inkscape:document-units="px"
     inkscape:current-layer="layer1"
     showgrid="false"
     units="px"
     inkscape:window-width="1920"
     inkscape:window-height="1001"
     inkscape:window-x="-9"
     inkscape:window-y="-9"
     inkscape:window-maximized="1">
    <inkscape:grid
       type="xygrid"
       id="grid826" />
  </sodipodi:namedview>
  <metadata
     id="metadata5">
    <rdf:RDF>
      <cc:Work
         rdf:about="">
        <dc:format>image/svg+xml</dc:format>
        <dc:type
           rdf:resource="http://purl.org/dc/dcmitype/StillImage" />
        <dc:title></dc:title>
      </cc:Work>
    </rdf:RDF>
  </metadata>
  <g
     inkscape:label="圖層 1"
     inkscape:groupmode="layer"
     id="layer1"
     transform="translate(0,-161.53336)">
    <path
       style="fill:#000000;stroke:#000000;stroke-width:0.26458332px;stroke-linecap:butt;stroke-linejoin:miter;stroke-opacity:1;fill-opacity:1"
       d="M 32.918747,178.97815 C 33.765152,178.91149 35.45786,179.75785 37.11001,180.763 38.76216,181.76815 40.357745,182.92052 41.426785,183.78911 42.495825,184.6577 43.03038,185.2368 43.475816,185.81586 43.921251,186.39492 44.277608,186.974 44.411546,187.66194 44.545484,188.34988 44.455861,189.15648 43.965849,189.71344 43.475837,190.27039 42.585261,190.5821 41.73876,190.98305 40.892259,191.384 40.090736,191.87382 39.244169,192.69808 38.397602,193.52233 37.507047,194.68005 36.690738,195.76088 35.874428,196.84171 35.101617,197.88728 34.34424,198.93424 33.586863,199.98119 32.829818,201.04996 32.050221,201.71827 31.270624,202.38658 30.469041,202.65377 30.268565,202.20799 30.068089,201.76221 30.468835,200.6045 31.136892,198.88983 31.804949,197.17516 32.740647,194.90274 33.364219,193.0097 33.987791,191.11666 34.299648,189.60192 34.321895,188.26574 34.344141,186.92956 34.076818,185.77116 33.653685,184.59086 33.230552,183.41056 32.651373,182.20765 32.361858,181.11627 32.072343,180.02489 32.072343,179.04481 32.918747,178.97815 Z"
       id="path1062"
       inkscape:connector-curvature="0"
       inkscape:path-effect="#path-effect1064"
       inkscape:original-d="M 32.072343,178.06509 C 33.765314,178.91117 35.45802,179.75753 37.150461,180.60415 38.798786,181.71744 40.35796,182.92022 41.961314,184.07865 42.4961,184.65745 43.030656,185.23655 43.56493,185.8159 43.921561,186.39473 44.277915,186.97381 44.63401,187.55315 44.589722,188.3548 44.456094,189.15651 44.366739,189.95858 43.475783,190.27024 42.585207,190.58194 41.694045,190.89402 40.892215,191.38393 40.090691,191.87375 39.288617,192.36401 38.397641,193.52236 37.507085,194.68008 36.615924,195.83851 35.903287,196.86304 35.101661,197.88731 34.344132,198.91211 33.586913,199.98123 32.829869,201.05 32.072343,202.11934 31.270571,202.38642 30.468989,202.65362 29.666915,202.92115 30.068243,201.76226 30.468989,200.60455 30.869629,199.44665 31.805079,197.17521 32.740781,194.9028 33.675959,192.63127 33.987995,191.1167 34.299851,189.60196 34.611401,188.08769 34.344452,186.92949 34.077128,185.77109 33.809594,184.61319 33.230871,183.41041 32.65169,182.2075 32.072343,181.00505 32.072607,180.02489 32.072607,179.04481 32.072343,178.06509 Z" />
    <path
       style="fill:#000000;stroke:#000000;stroke-width:0.26458332px;stroke-linecap:butt;stroke-linejoin:miter;stroke-opacity:1;fill-opacity:1"
       d="M 27.618097,203.2105 C 29.177231,202.56472 31.894469,201.94109 34.945604,201.27296 37.996739,200.60483 41.382537,199.89203 43.72109,199.3575 46.059642,198.82297 47.351564,198.46657 48.220046,198.37753 49.088529,198.28849 49.534085,198.46671 49.756743,198.82283 49.9794,199.17895 49.9794,199.71365 49.689872,200.07014 49.400345,200.42663 48.821547,200.60472 47.573765,200.93894 46.325983,201.27317 44.411596,201.7629 42.384629,202.29749 40.357662,202.83207 38.219853,203.41106 36.059268,204.07928 33.898682,204.74749 31.716302,205.50465 30.246265,206.01693 28.776227,206.52922 28.019071,206.79645 27.306058,206.6182 26.593044,206.43995 25.925154,205.81658 25.791611,205.17051 25.658067,204.52444 26.058963,203.85628 27.618097,203.2105 Z"
       id="path1066"
       inkscape:connector-curvature="0"
       inkscape:path-effect="#path-effect1068"
       inkscape:original-d="M 26.459681,203.18842 C 29.177188,202.56453 31.894426,201.9409 34.611401,201.31753 37.996697,200.60463 41.382495,199.89183 44.767643,199.17938 46.059593,198.82279 47.351514,198.46639 48.643051,198.1103 49.088657,198.28817 49.534215,198.46639 49.9794,198.64484 49.979665,199.17895 49.979665,199.71365 49.9794,200.24846 49.400293,200.42646 48.821496,200.60455 48.242146,200.78299 46.325936,201.27299 44.411549,201.76272 42.495852,202.25298 40.357613,202.83189 38.219804,203.41088 36.081383,203.99023 33.898629,204.74734 31.716248,205.50449 29.533282,206.26202 28.776172,206.52906 28.019019,206.7963 27.261491,207.06383 26.593301,206.43967 25.925407,205.81631 25.256969,205.19294 25.658144,204.52449 26.059042,203.85633 26.459681,203.18842 Z" />
    <path
       style="fill:#000000;stroke:#000000;stroke-width:0.26458332px;stroke-linecap:butt;stroke-linejoin:miter;stroke-opacity:1;fill-opacity:1"
       d="M 17.573086,202.36419 C 18.263403,202.43114 19.020665,203.27749 19.644286,204.07928 20.267906,204.88108 20.75789,205.63833 21.359283,206.46246 21.960677,207.2866 22.673339,208.17742 23.185596,208.9792 23.697853,209.78097 24.009655,210.49366 24.343774,211.22873 24.677893,211.96379 25.03419,212.72092 25.212397,213.83458 25.390604,214.94824 25.390604,216.418 25.479699,218.17772 25.568795,219.93743 25.746943,221.98613 25.880588,224.23579 26.014234,226.48545 26.103313,228.93513 26.236952,231.27386 26.370591,233.61259 26.548751,235.8396 26.749205,237.51012 26.949659,239.18063 27.17236,240.29413 27.388757,241.18709 27.605155,242.08005 27.840522,242.83323 27.684738,243.27873 27.528955,243.72424 26.99454,243.90237 26.415085,243.23374 25.835629,242.5651 25.212371,241.05147 24.611048,238.57934 24.009726,236.1072 23.430591,232.67694 22.873795,229.49207 22.316999,226.30721 21.782426,223.36706 21.515176,221.34028 21.247926,219.3135 21.247926,218.19979 21.092029,217.26451 20.936132,216.32922 20.624242,215.57177 19.978453,214.68103 19.332664,213.79029 18.352498,212.76557 17.483875,211.8524 16.615252,210.93924 15.857981,210.13742 15.367967,209.40236 14.877953,208.6673 14.655226,207.99912 14.739894,207.07709 14.824563,206.15507 15.234468,204.92536 15.746723,203.96775 16.258978,203.01015 16.882768,202.29724 17.573086,202.36419 Z"
       id="path1070"
       inkscape:connector-curvature="0"
       inkscape:path-effect="#path-effect1072"
       inkscape:original-d="M 17.506153,201.5848 C 18.263681,202.43089 19.020945,203.27724 19.777944,204.12386 20.268212,204.88088 20.758197,205.63813 21.247926,206.39566 21.960972,207.28636 22.673628,208.17719 23.386083,209.06835 23.698173,209.78083 24.009976,210.49352 24.321526,211.20651 24.678212,211.96364 25.034509,212.72077 25.390604,213.4783 25.390868,214.94824 25.390868,216.418 25.390604,217.88824 25.56908,219.93741 25.747228,221.98611 25.925143,224.03544 26.014508,226.48544 26.103587,228.93512 26.192412,231.38535 26.370875,233.61257 26.549036,235.83958 26.72695,238.06709 26.949965,239.18057 27.172665,240.29407 27.395126,241.40796 27.618154,242.07599 27.840838,242.83313 28.0633,243.54612 27.5289,243.72407 26.994486,243.90221 26.459681,244.08066 25.835947,242.56497 25.212689,241.05134 24.588795,239.53707 24.010027,236.10715 23.430892,232.67689 22.851544,229.2472 22.317302,226.30715 21.78273,223.367 21.247926,220.42731 21.248191,219.3135 21.248191,218.19979 21.247926,217.08644 20.936451,216.32909 20.624562,215.57164 20.312483,214.81464 19.332932,213.79003 18.352771,212.76531 17.372518,211.74105 16.615524,210.93898 15.858256,210.13716 15.100728,209.33562 14.87827,208.66719 14.655543,207.99901 14.432554,207.3311 14.878162,206.17294 15.234627,204.92541 15.635267,203.72296 16.258995,203.01016 16.882789,202.29726 17.506153,201.5848 Z" />
    <path
       style="fill:#000000;stroke:#000000;stroke-width:0.26458332px;stroke-linecap:butt;stroke-linejoin:miter;stroke-opacity:1;fill-opacity:1"
       d="M 32.47338,221.58538 C 33.052644,221.05084 34.567172,220.60539 36.304221,219.91501 38.04127,219.22463 40.001654,218.28899 41.761052,217.46497 43.520449,216.64095 45.079777,215.92812 46.215587,215.52728 47.351397,215.12644 48.06426,215.03733 48.643132,215.14867 49.222005,215.26 49.667636,215.57194 49.912595,216.01722 50.157554,216.46249 50.202106,217.04165 49.84575,217.57631 49.489393,218.11097 48.732448,218.60076 47.484846,219.22458 46.237244,219.84839 44.500694,220.60535 42.986047,221.34039 41.471399,222.07542 40.179832,222.78801 38.860046,223.32412 37.54026,223.86022 36.215331,224.21354 35.16833,224.19129 34.121329,224.16903 33.364242,223.76822 32.807336,223.25585 32.250429,222.74348 31.894115,222.11993 32.47338,221.58538 Z"
       id="path1074"
       inkscape:connector-curvature="0"
       inkscape:path-effect="#path-effect1076"
       inkscape:original-d="M 31.537803,221.49638 C 33.052595,221.05067 34.567123,220.60522 36.081383,220.16003 38.041218,219.22452 40.001601,218.28888 41.961314,217.3537 43.520397,216.64084 45.079722,215.928 46.63853,215.21555 47.351368,215.12621 48.064232,215.03711 48.776686,214.94828 49.222216,215.2597 49.667848,215.57164 50.113033,215.88372 50.157838,216.46247 50.202388,217.04163 50.246669,217.62097 49.489352,218.11091 48.732406,218.6007 47.974877,219.09096 46.237187,219.84826 44.500639,220.60522 42.763123,221.36275 41.471348,222.07533 40.179782,222.78792 38.887716,223.5009 37.551305,223.90164 36.215284,224.21336 34.878672,224.56998 34.121496,224.16872 33.364409,223.76791 32.606881,223.36727 32.250741,222.7433 31.894426,222.11975 31.537803,221.49638 Z" />
    <path
       style="fill:#000000;stroke:#000000;stroke-width:0.26458332px;stroke-linecap:butt;stroke-linejoin:miter;stroke-opacity:1;fill-opacity:1"
       d="M 16.504002,245.32783 C 17.283699,244.97155 19.065496,244.927 21.270292,244.4593 23.475088,243.99159 26.103641,243.10056 29.416249,242.09997 32.728857,241.09939 36.749873,239.98244 39.950946,239.07109 43.152018,238.15974 45.569766,237.44337 47.152138,237.02708 48.734509,236.6108 49.667882,236.46343 50.447258,236.44118 51.226633,236.41893 51.939604,236.50805 52.540767,236.7975 53.141931,237.08695 53.632081,237.5771 53.788042,238.08921 53.944002,238.60132 53.765826,239.13585 53.342556,239.5592 52.919286,239.98256 52.251509,240.29419 51.226643,240.62839 50.201776,240.9626 48.821542,241.31879 46.972667,241.80885 45.123791,242.29892 42.807983,242.92241 40.511383,243.62828 38.214784,244.33415 35.858977,245.14962 33.252902,246.10741 30.646826,247.06519 27.751805,248.17866 25.967987,248.84052 24.184168,249.50238 23.430942,249.73776 22.410447,249.63498 21.389952,249.53221 19.956285,249.06974 18.864837,248.57971 17.773388,248.08968 16.971678,247.5552 16.459344,246.95372 15.947011,246.35224 15.724304,245.68412 16.504002,245.32783 Z"
       id="path1078"
       inkscape:connector-curvature="0"
       inkscape:path-effect="#path-effect1080"
       inkscape:original-d="M 15.501632,245.0161 C 17.283693,244.97129 19.06549,244.92674 20.847022,244.88246 23.475037,243.99144 26.103587,243.1004 28.731473,242.20977 32.740294,241.14056 36.749824,239.98226 40.7586,238.8689 43.164102,238.20052 45.569717,237.4432 47.974877,236.73074 48.732308,236.59686 49.667848,236.46321 50.513938,236.32984 51.22667,236.41863 51.93964,236.50776 52.652094,236.59711 53.142197,237.08668 53.632346,237.57683 54.122077,238.06709 53.944163,238.60137 53.765982,239.1359 53.587539,239.67071 52.91923,239.98244 52.251454,240.29407 51.583016,240.60615 50.20173,240.96242 48.821496,241.31861 47.44034,241.67523 45.123743,242.29874 42.807933,242.92222 40.491331,243.54612 38.219497,244.34777 35.858924,245.14947 33.542323,245.95154 30.646771,247.06505 27.75175,248.17852 24.856065,249.29241 24.188082,249.5149 23.430892,249.7376 22.717909,249.96058 21.381232,249.55924 19.956388,249.06942 18.575231,248.62424 17.773593,248.08937 16.971879,247.5549 16.169806,247.02062 15.947329,246.35213 15.724621,245.68401 15.501632,245.0161 Z" />
    <path
       style="fill:#000000;stroke:#000000;stroke-width:0.26458332px;stroke-linecap:butt;stroke-linejoin:miter;stroke-opacity:1;fill-opacity:1"
       d="M 53.966302,197.84286 C 54.612387,196.9965 56.171457,196.15015 57.374088,195.57113 58.576718,194.9921 59.42324,194.68023 60.247136,194.54665 61.071032,194.41307 61.87314,194.45763 62.674771,194.63578 63.476401,194.81393 64.278461,195.12584 65.035605,195.57123 65.792749,196.01661 66.505595,196.5958 67.040092,197.15256 67.574588,197.70931 67.930962,198.24387 68.109162,198.95654 68.287362,199.66921 68.287362,200.56001 68.008723,201.69147 67.730084,202.82293 67.129322,204.30172 66.550151,206.06149 65.97098,207.82125 65.392026,209.91439 64.835157,212.56506 64.278287,215.21573 63.743829,218.42248 63.209263,221.83034 62.674696,225.2382 62.140206,228.846 61.650191,232.32064 61.160177,235.79528 60.714765,239.13587 60.313846,242.05367 59.912927,244.97148 59.5566,247.46577 59.244773,249.51493 58.932946,251.56409 58.66571,253.16751 58.353898,254.43713 58.042086,255.70674 57.685792,256.64201 57.240304,257.46622 56.794815,258.29043 56.260455,259.00291 55.748009,259.20346 55.235564,259.40402 54.745774,259.09234 54.367071,258.13438 53.988368,257.17642 53.721137,255.57303 53.453891,253.41277 53.186646,251.25252 52.91934,248.53491 52.741167,246.53044 52.562995,244.52597 52.473898,243.23406 52.429361,242.43227 52.384825,241.63048 52.384825,241.31861 52.62962,241.38537 52.874414,241.45214 53.364827,241.89797 53.966221,242.29888 54.567615,242.6998 55.280353,243.05617 55.88175,242.98924 56.483147,242.9223 56.973216,242.43223 57.552003,239.18206 58.130791,235.93189 58.799325,229.91508 59.51203,224.12438 60.224734,218.33367 60.982035,212.76528 61.516569,209.02356 62.051104,205.28183 62.362935,203.3663 62.318371,201.9633 62.273807,200.56029 61.87284,199.66925 61.316217,199.17934 60.759595,198.68942 60.046781,198.60032 59.267148,198.64485 58.487515,198.68937 57.64143,198.8675 56.728088,199.17935 55.814746,199.49121 54.835113,199.9365 54.211256,199.7359 53.5874,199.5353 53.320216,198.68922 53.966302,197.84286 Z"
       id="path1082"
       inkscape:connector-curvature="0"
       inkscape:path-effect="#path-effect1084"
       inkscape:original-d="M 53.052998,197.84303 C 54.612336,196.99641 56.171407,196.15006 57.730215,195.30397 58.576662,194.99195 59.423186,194.68008 60.269276,194.36853 61.071048,194.41279 61.873156,194.45735 62.674701,194.50216 63.476526,194.81361 64.278583,195.12553 65.080125,195.4376 65.792984,196.01632 66.50583,196.59551 67.218284,197.17486 67.574892,197.70911 67.931267,198.24367 68.287362,198.77847 68.287627,199.66921 68.287627,200.56001 68.287362,201.45117 67.752928,202.83221 67.129458,204.30178 66.550108,205.72748 65.97116,207.8213 65.392207,209.91444 64.812857,212.00831 64.278501,215.21577 63.744043,218.42252 63.209241,221.63002 62.674915,225.23823 62.140427,228.84603 61.605623,232.45443 61.160403,235.79531 60.71499,239.1359 60.269276,242.47704 59.913149,244.97151 59.556822,247.4658 59.200198,249.96058 58.933162,251.56413 58.665922,253.16755 58.398389,254.77144 58.042228,255.70679 57.685934,256.64206 57.329311,257.57777 56.794855,258.29046 56.260497,259.00294 55.725695,259.71592 55.235761,259.40371 54.745969,259.09203 54.255712,258.78048 53.988668,257.17637 53.721437,255.57298 53.453903,253.96963 53.186933,251.25249 52.919627,248.53488 52.652094,245.81791 52.563276,244.52595 52.47418,243.23404 52.384825,241.9425 52.38509,241.63048 52.38509,241.31861 52.384825,241.00706 52.874667,241.45186 53.365077,241.89769 53.854808,242.3434 54.567772,242.69949 55.28051,243.05586 55.992964,243.41248 56.483149,242.9223 56.973216,242.43223 57.462946,241.9425 58.131024,235.93192 58.799558,229.91511 59.467467,223.90181 60.224958,218.3337 60.982259,212.76531 61.739258,207.19746 62.051321,205.28187 62.363151,203.36634 62.674701,201.45117 62.274124,200.56015 61.873156,199.66911 61.471989,198.77847 60.759631,198.68913 60.046817,198.60003 59.333833,198.5112 58.487474,198.68918 57.641389,198.8673 56.794773,199.04574 55.814693,199.49109 54.83506,199.93638 53.854808,200.38209 53.587716,199.5352 53.320532,198.68912 53.052998,197.84303 Z" />
    <path
       style="fill:#000000;stroke:#000000;stroke-width:0.26458332px;stroke-linecap:butt;stroke-linejoin:miter;stroke-opacity:1;fill-opacity:1"
       d="M 85.54852,177.99815 C 86.328068,178.15419 87.931687,179.57963 89.156645,180.84913 90.381603,182.11862 91.227963,183.23226 91.918421,184.12317 92.608879,185.01408 93.143399,185.68223 93.569231,186.44669 93.995064,187.21114 94.301539,188.043 94.190207,189.31259 94.078875,190.58219 93.54443,192.2746 92.943052,193.70015 92.341674,195.12569 91.673626,196.28364 90.834174,198.02721 89.994722,199.77078 88.956344,202.16357 88.176773,203.94545 87.397202,205.72733 86.862735,206.92988 86.216809,207.8209 85.570884,208.71192 84.813821,209.29085 83.945017,209.78097 83.076214,210.27109 82.096606,210.67184 81.339215,210.85008 80.581824,211.02833 80.047461,210.9838 79.913807,210.44887 79.780152,209.91393 80.047301,208.88986 80.96028,206.93032 81.873259,204.97078 83.432806,202.07448 84.68001,199.73597 85.927214,197.39746 86.862759,195.61547 87.464053,194.25693 88.065347,192.8984 88.332664,191.96279 88.377179,190.82716 88.421693,189.69153 88.243455,188.35474 87.887129,187.04082 87.530803,185.7269 86.99617,184.43487 86.461659,183.27677 85.927149,182.11868 85.392558,181.09405 85.103039,180.02494 84.81352,178.95584 84.768971,177.84211 85.54852,177.99815 Z"
       id="path1086"
       inkscape:connector-curvature="0"
       inkscape:path-effect="#path-effect1088"
       inkscape:original-d="M 84.724437,176.72874 C 86.328317,178.15391 87.931935,179.57935 89.535287,181.00505 90.381898,182.1184 91.22826,183.23203 92.074347,184.34592 92.609171,185.01385 93.14369,185.682 93.677965,186.35044 94.034605,187.19657 94.301858,188.04288 94.613408,188.8895 94.079039,190.58224 93.544594,192.27465 93.009792,193.96762 92.341756,195.12574 91.673707,196.28369 91.005269,197.44213 90.069837,199.80338 88.956468,202.16362 87.931671,204.52477 87.397324,205.72738 86.862857,206.92993 86.328053,208.13291 85.570852,208.71188 84.813789,209.29081 84.056263,209.87016 83.076157,210.27095 82.09655,210.6717 81.116298,211.07287 80.581848,211.02805 80.047485,210.98352 79.51268,210.93924 79.780335,209.91398 80.047485,208.88991 80.314489,207.86564 81.87335,204.97083 83.432897,202.07453 84.991706,199.17938 85.927312,197.39751 86.862857,195.61552 87.798035,193.83399 88.065521,192.89845 88.33284,191.96284 88.599844,191.02766 88.421989,189.69149 88.24375,188.3547 88.065304,187.01861 87.531121,185.72677 86.996491,184.43474 86.461688,183.14321 85.927468,182.11851 85.392875,181.09388 84.85807,180.06961 84.813795,178.95583 84.769247,177.8421 84.724437,176.72874 Z" />
    <path
       style="fill:#000000;stroke:#000000;stroke-width:0.26458332px;stroke-linecap:butt;stroke-linejoin:miter;stroke-opacity:1;fill-opacity:1"
       d="M 85.504281,202.47557 C 85.972004,202.20836 86.150186,202.16381 87.061881,202.20829 87.973576,202.25276 89.624619,202.38663 91.962997,202.65388 94.301375,202.92112 97.330875,203.32209 99.869865,203.61162 102.40885,203.90115 104.45807,204.07934 106.46248,204.27978 108.46688,204.48022 110.42709,204.70297 111.98611,204.81432 113.54513,204.92567 114.70343,204.92567 115.68332,204.92567 116.66322,204.92567 117.46522,204.92567 118.24449,205.3487 119.02376,205.77173 119.78127,206.61836 120.40489,207.46469 121.02851,208.31102 121.51849,209.15735 121.78578,210.20414 122.05307,211.25092 122.09761,212.49805 121.78581,213.87907 121.474,215.26009 120.80596,216.77431 119.91495,218.75681 119.02394,220.73932 117.91055,223.18877 116.84141,225.50525 115.77226,227.82173 114.74786,230.00414 113.34457,232.94438 111.94128,235.88461 110.15974,239.5813 108.28877,243.45688 106.4178,247.33247 104.45799,251.38571 102.76524,254.65986 101.07249,257.93401 99.647162,260.42833 98.243934,262.58888 96.840706,264.74943 95.459983,266.57555 94.435397,267.93424 93.41081,269.29293 92.742746,270.18368 91.852566,270.60704 90.962386,271.0304 89.847354,270.9858 89.11217,270.49562 88.376985,270.00544 88.020707,269.07021 87.37488,267.8231 86.729053,266.576 85.793465,265.01669 84.969403,263.6581 84.14534,262.29951 83.432589,261.14129 82.541746,260.00546 81.650902,258.86964 80.581753,257.75594 80.158709,257.08764 79.735665,256.41934 79.958393,256.19661 80.759285,256.53032 81.560176,256.86403 82.942707,257.75599 84.390433,258.42415 85.83816,259.09232 87.352759,259.53779 88.711335,259.84959 90.069911,260.16138 91.27276,260.33958 92.430831,259.73819 93.588902,259.1368 94.702731,257.75565 96.306099,255.21697 97.909467,252.67829 100.00352,248.98028 102.23065,244.6819 104.45779,240.38353 106.81887,235.48317 108.66741,230.93972 110.51596,226.39628 111.85239,222.20879 112.94373,219.15753 114.03507,216.10628 114.88149,214.1907 115.19323,212.89903 115.50496,211.60737 115.2822,210.93907 114.97044,210.29329 114.65868,209.64752 114.25767,209.02374 113.70101,208.6229 113.14435,208.22206 112.43156,208.04387 110.96132,207.9102 109.49108,207.77654 107.26442,207.68747 104.32425,207.59837 101.38407,207.50928 97.731809,207.4202 94.546762,207.44246 91.361715,207.46473 88.644666,207.59835 86.773632,207.37563 84.902598,207.15291 83.87817,206.57388 83.477278,205.9055 83.076385,205.23711 83.299091,204.47991 83.789034,203.85644 84.278978,203.23297 85.036557,202.74278 85.504281,202.47557 Z"
       id="path1090"
       inkscape:connector-curvature="0"
       inkscape:path-effect="#path-effect1092"
       inkscape:original-d="M 85.793515,202.25298 C 85.971958,202.20817 86.150139,202.16362 86.328053,202.11934 87.973599,202.25248 89.624642,202.38635 91.272538,202.52025 94.301414,202.92083 97.330914,203.32179 100.3597,203.72296 102.40888,203.90086 104.4581,204.07905 106.5069,204.2575 108.46691,204.47993 110.42712,204.70268 112.38683,204.92567 113.54513,204.92541 114.70343,204.92541 115.86133,204.92567 116.66322,204.92541 117.46522,204.92541 118.26676,204.92567 119.02404,205.77148 119.78155,206.61811 120.53855,207.46473 121.02882,208.31084 121.5188,209.15717 122.00853,210.00379 122.05335,211.25091 122.09789,212.49804 122.14217,213.74557 121.47412,215.26014 120.80608,216.77436 120.13765,218.28915 119.02405,220.73937 117.91066,223.18882 116.79678,225.63906 115.77238,227.82178 114.74798,230.0042 113.72318,232.18716 111.94139,235.88466 110.15985,239.58135 108.37779,243.27885 106.41791,247.33252 104.4581,251.38576 102.49786,255.43961 101.07257,257.93406 99.647248,260.42838 98.221546,262.92316 96.840744,264.74946 95.460027,266.57558 94.07887,268.40218 93.410853,269.29296 92.742785,270.18371 92.074347,271.07488 90.960618,271.07461 89.847365,270.98552 88.73348,270.94124 88.377303,270.00532 88.021026,269.07009 87.664402,268.13491 86.729365,266.57581 85.793779,265.0165 84.85807,263.4577 84.145653,262.29932 83.432897,261.1411 82.719914,259.98319 81.651169,258.86938 80.582022,257.75568 79.51268,256.64232 79.735668,256.41934 79.958394,256.19661 80.180853,255.97415 81.560372,256.86373 82.942905,257.75568 84.323532,258.64684 85.838251,259.09201 87.35285,259.53748 88.867113,259.98319 90.069954,260.16109 91.272803,260.33929 92.475252,260.51773 93.588936,259.13683 94.702763,257.75568 95.816121,256.37505 97.909558,252.67834 100.00361,248.98033 102.09695,245.28337 104.4579,240.38358 106.81898,235.48322 109.1796,230.58354 110.51612,226.39633 111.85256,222.20884 113.18864,218.02188 114.03519,216.10633 114.88161,214.19075 115.7277,212.27558 115.50528,211.60726 115.28251,210.93897 115.05953,210.27106 114.65898,209.64732 114.25798,209.02354 113.85681,208.40018 113.14443,208.22175 112.43164,208.04355 111.71866,207.86564 109.49109,207.77626 107.26443,207.68719 105.03692,207.59837 101.38408,207.509 97.731816,207.41992 94.07887,207.3311 91.361703,207.46448 88.644654,207.5981 85.927148,207.732 84.902777,207.15259 83.878347,206.57357 82.85355,205.99475 83.076556,205.23716 83.299264,204.47996 83.521723,203.72296 84.278937,203.23291 85.036515,202.74271 85.793515,202.25298 Z" />
    <path
       style="fill:#000000;stroke:#000000;stroke-width:0.26458332px;stroke-linecap:butt;stroke-linejoin:miter;stroke-opacity:1;fill-opacity:1"
       d="M 75.147309,217.22004 C 75.904659,216.9974 78.042816,217.97739 79.793569,219.01274 81.544322,220.0481 82.853579,221.0955 83.944895,222.12 85.036212,223.1445 85.882586,224.12451 86.461656,225.03763 87.040726,225.95075 87.352532,226.79708 87.374856,227.6657 87.397181,228.53432 87.129959,229.42506 86.261139,229.78156 85.392318,230.13806 83.922856,229.95995 82.68499,229.58667 81.447125,229.2134 80.40367,228.62362 79.579491,227.66576 78.755312,226.70791 78.131738,225.37168 77.508135,224.07993 76.884533,222.78819 76.260847,221.54082 75.637245,220.20452 75.013642,218.86823 74.389959,217.44267 75.147309,217.22004 Z"
       id="path1094"
       inkscape:connector-curvature="0"
       inkscape:path-effect="#path-effect1096"
       inkscape:original-d="M 73.766385,216.01736 C 75.904806,216.99708 78.042962,217.97707 80.180853,218.95732 81.561936,220.02608 82.853814,221.09521 84.189896,222.16456 85.036494,223.14426 85.882867,224.12427 86.728957,225.10452 87.041044,225.95063 87.35285,226.79696 87.664402,227.64358 87.39735,228.53437 87.130126,229.42511 86.862593,230.31628 85.392354,230.13777 83.922892,229.95965 82.452645,229.78174 81.428218,229.24685 80.403844,228.62331 79.379047,228.04448 78.755628,226.70776 78.132052,225.37153 77.50816,224.03544 76.884849,222.78803 76.261165,221.54066 75.637272,220.29367 75.013962,218.86809 74.390281,217.44253 73.766385,216.01736 Z" />
  </g>
</svg>
