<?xml version="1.0" encoding="UTF-8" standalone="no"?>
<!-- Created with Inkscape (http://www.inkscape.org/) -->

<svg
   xmlns:dc="http://purl.org/dc/elements/1.1/"
   xmlns:cc="http://creativecommons.org/ns#"
   xmlns:rdf="http://www.w3.org/1999/02/22-rdf-syntax-ns#"
   xmlns:svg="http://www.w3.org/2000/svg"
   xmlns="http://www.w3.org/2000/svg"
   xmlns:sodipodi="http://sodipodi.sourceforge.net/DTD/sodipodi-0.dtd"
   xmlns:inkscape="http://www.inkscape.org/namespaces/inkscape"
   width="512"
   height="512"
   viewBox="0 0 512 512"
   version="1.1"
   id="svg8"
   inkscape:version="0.92.4 (5da689c313, 2019-01-14)"
   sodipodi:docname="U+617C.svg">
  <defs
     id="defs2">
    <inkscape:path-effect
       effect="bspline"
       id="path-effect3816"
       is_visible="true"
       weight="33.333333"
       steps="2"
       helper_size="0"
       apply_no_weight="true"
       apply_with_weight="true"
       only_selected="false" />
    <inkscape:path-effect
       effect="bspline"
       id="path-effect3812"
       is_visible="true"
       weight="33.333333"
       steps="2"
       helper_size="0"
       apply_no_weight="true"
       apply_with_weight="true"
       only_selected="false" />
    <inkscape:path-effect
       effect="bspline"
       id="path-effect3808"
       is_visible="true"
       weight="33.333333"
       steps="2"
       helper_size="0"
       apply_no_weight="true"
       apply_with_weight="true"
       only_selected="false" />
    <inkscape:path-effect
       effect="bspline"
       id="path-effect3804"
       is_visible="true"
       weight="33.333333"
       steps="2"
       helper_size="0"
       apply_no_weight="true"
       apply_with_weight="true"
       only_selected="false" />
    <inkscape:path-effect
       effect="bspline"
       id="path-effect3800"
       is_visible="true"
       weight="33.333333"
       steps="2"
       helper_size="0"
       apply_no_weight="true"
       apply_with_weight="true"
       only_selected="false" />
    <inkscape:path-effect
       effect="bspline"
       id="path-effect3796"
       is_visible="true"
       weight="33.333333"
       steps="2"
       helper_size="0"
       apply_no_weight="true"
       apply_with_weight="true"
       only_selected="false" />
    <inkscape:path-effect
       effect="bspline"
       id="path-effect3792"
       is_visible="true"
       weight="33.333333"
       steps="2"
       helper_size="0"
       apply_no_weight="true"
       apply_with_weight="true"
       only_selected="false" />
    <inkscape:path-effect
       effect="bspline"
       id="path-effect3788"
       is_visible="true"
       weight="33.333333"
       steps="2"
       helper_size="0"
       apply_no_weight="true"
       apply_with_weight="true"
       only_selected="false" />
    <inkscape:path-effect
       effect="bspline"
       id="path-effect3784"
       is_visible="true"
       weight="33.333333"
       steps="2"
       helper_size="0"
       apply_no_weight="true"
       apply_with_weight="true"
       only_selected="false" />
    <inkscape:path-effect
       effect="bspline"
       id="path-effect3780"
       is_visible="true"
       weight="33.333333"
       steps="2"
       helper_size="0"
       apply_no_weight="true"
       apply_with_weight="true"
       only_selected="false" />
    <inkscape:path-effect
       effect="bspline"
       id="path-effect3776"
       is_visible="true"
       weight="33.333333"
       steps="2"
       helper_size="0"
       apply_no_weight="true"
       apply_with_weight="true"
       only_selected="false" />
    <inkscape:path-effect
       effect="bspline"
       id="path-effect3772"
       is_visible="true"
       weight="33.333333"
       steps="2"
       helper_size="0"
       apply_no_weight="true"
       apply_with_weight="true"
       only_selected="false" />
    <inkscape:path-effect
       effect="bspline"
       id="path-effect3768"
       is_visible="true"
       weight="33.333333"
       steps="2"
       helper_size="0"
       apply_no_weight="true"
       apply_with_weight="true"
       only_selected="false" />
    <inkscape:path-effect
       effect="bspline"
       id="path-effect3764"
       is_visible="true"
       weight="33.333333"
       steps="2"
       helper_size="0"
       apply_no_weight="true"
       apply_with_weight="true"
       only_selected="false" />
    <inkscape:path-effect
       effect="bspline"
       id="path-effect3750"
       is_visible="true"
       weight="33.333333"
       steps="2"
       helper_size="0"
       apply_no_weight="true"
       apply_with_weight="true"
       only_selected="false" />
    <inkscape:path-effect
       effect="bspline"
       id="path-effect3744"
       is_visible="true"
       weight="33.333333"
       steps="2"
       helper_size="0"
       apply_no_weight="true"
       apply_with_weight="true"
       only_selected="false" />
  </defs>
  <sodipodi:namedview
     id="base"
     pagecolor="#ffffff"
     bordercolor="#666666"
     borderopacity="1.0"
     inkscape:pageopacity="0.0"
     inkscape:pageshadow="2"
     inkscape:zoom="2.8"
     inkscape:cx="112.35297"
     inkscape:cy="347.2965"
     inkscape:document-units="px"
     inkscape:current-layer="layer1"
     showgrid="false"
     units="px"
     inkscape:object-paths="false"
     inkscape:window-width="1920"
     inkscape:window-height="1017"
     inkscape:window-x="-8"
     inkscape:window-y="-8"
     inkscape:window-maximized="1">
    <inkscape:grid
       type="xygrid"
       id="grid4623" />
  </sodipodi:namedview>
  <metadata
     id="metadata5">
    <rdf:RDF>
      <cc:Work
         rdf:about="">
        <dc:format>image/svg+xml</dc:format>
        <dc:type
           rdf:resource="http://purl.org/dc/dcmitype/StillImage" />
        <dc:title></dc:title>
      </cc:Work>
    </rdf:RDF>
  </metadata>
  <g
     inkscape:label="圖層 1"
     inkscape:groupmode="layer"
     id="layer1"
     transform="translate(0,-161.5333)">
    <path
       style="fill:#000000;fill-opacity:1;stroke:#000000;stroke-width:0.26458332px;stroke-linecap:butt;stroke-linejoin:miter;stroke-opacity:1"
       d="M 28.341835,195.04765 C 28.575848,194.45754 29.154938,194.41299 29.611275,194.65783 30.067611,194.90267 30.401861,195.43747 30.691403,195.91633 30.980945,196.39518 31.22587,196.81823 31.782886,197.3864 32.339902,197.95457 33.20827,198.66708 34.789752,198.76726 36.371234,198.86744 38.665298,198.35517 42.417876,197.56457 46.170454,196.77396 51.382871,195.70475 54.656926,194.99202 57.930981,194.27929 59.267329,193.92293 60.514591,193.54429 61.761854,193.16565 62.92002,192.76474 65.035502,192.08556 67.150983,191.40638 70.225384,190.44842 72.742072,189.64664 75.258759,188.84486 77.218938,188.19889 78.377064,187.8537 79.53519,187.50852 79.891601,187.46397 80.459833,187.53926 81.028065,187.61456 81.851479,187.82041 82.430408,188.18779 83.009337,188.55517 83.36578,189.08983 83.410408,189.62428 83.455037,190.15872 83.187797,190.6932 82.820231,191.1388 82.452664,191.5844 81.985224,191.94054 81.394785,192.19681 80.804345,192.45307 80.092076,192.60888 79.067242,192.74256 78.042408,192.87624 76.706638,192.98755 74.189179,193.34221 71.671721,193.69687 67.931306,194.3016 64.868749,194.86956 61.806192,195.43752 59.400959,195.97201 57.106755,196.47318 54.812551,196.97434 52.630131,197.442 50.569799,198.03224 48.509467,198.62249 46.572033,199.33511 44.946033,199.9031 43.320034,200.47109 42.006179,200.8942 41.070669,201.20603 40.135158,201.51786 39.57848,201.71827 38.954629,202.1527 38.330779,202.58712 37.640728,203.25492 36.827537,203.41091 36.014347,203.56691 35.079463,203.21076 34.388887,202.96571 33.698311,202.72066 33.252887,202.58703 32.818567,202.34206 32.384246,202.09708 31.961008,201.74067 31.393036,201.25066 30.825064,200.76064 30.112413,200.13707 29.577824,199.55793 29.043235,198.97878 28.686893,198.44427 28.453038,197.60896 28.219184,196.77365 28.107822,195.63776 28.341835,195.04765 Z"
       id="path3742"
       inkscape:connector-curvature="0"
       inkscape:path-effect="#path-effect3744"
       inkscape:original-d="M 27.996483,194.5021 C 28.57583,194.4573 29.154916,194.4127 29.733734,194.36847 30.067922,194.90248 30.402172,195.43728 30.735995,195.97209 30.981259,196.395 31.226181,196.81805 31.470987,197.24161 32.340137,197.95428 33.208504,198.66679 34.076864,199.37977 36.37119,198.86724 38.665254,198.35497 40.959055,197.84297 46.170412,196.77376 51.382831,195.70455 56.59432,194.63573 57.930933,194.27911 59.26728,193.92275 60.603366,193.56666 61.7618,193.16549 62.919967,192.76459 64.077868,192.36395 67.150932,191.40622 70.225332,190.44825 73.298668,189.4908 75.258707,188.8447 77.218886,188.19873 79.178596,187.55309 79.535162,187.50829 79.891579,187.46379 80.247674,187.41946 81.026835,187.61948 81.851557,187.8201 82.653099,188.02082 83.009641,188.55497 83.366085,189.08963 83.72218,189.62443 83.455144,190.15877 83.187904,190.69325 82.920371,191.22805 82.452635,191.58436 81.98519,191.9405 81.517206,192.29713 80.804302,192.45287 80.092033,192.60868 79.37905,192.76485 78.042388,192.876 76.706618,192.98731 75.370006,193.09894 71.672253,193.70016 67.93127,194.30138 64.211503,194.90301 61.806147,195.43732 59.400916,195.97182 56.995226,196.50662 54.812509,196.97414 52.630088,197.4418 50.447122,197.90979 48.509412,198.62234 46.571979,199.33496 44.634012,200.04794 43.319983,200.47093 42.006125,200.89403 40.691786,201.31748 40.135103,201.51771 39.578428,201.71812 39.02135,201.91883 38.330774,202.58712 37.640723,203.25491 36.950012,203.92335 36.014467,203.56659 35.079584,203.21044 34.143681,202.85427 33.698404,202.72035 33.252981,202.58672 32.807335,202.45337 32.384486,202.0968 31.961246,201.74039 31.537804,201.38429 30.82531,200.76036 30.112658,200.13679 29.399648,199.5134 29.04354,198.97858 28.687197,198.44407 28.33057,197.90979 28.219472,196.77362 28.10811,195.63773 27.996483,194.5021 Z"
       sodipodi:nodetypes="ccccccccccccccccccccccccccccccc"
       transform="matrix(3.7795278,0,0,3.7795279,-1.1428553,-449.27206)" />
    <path
       style="fill:#000000;fill-opacity:1;stroke:#000000;stroke-width:0.26458332px;stroke-linecap:butt;stroke-linejoin:miter;stroke-opacity:1"
       d="M 15.835933,193.55532 C 16.28148,192.96522 16.793748,192.83159 17.417096,192.84274 18.040444,192.85389 18.775883,193.00989 19.366011,193.17692 19.956139,193.34394 20.401711,193.52217 20.824735,193.93405 21.247759,194.34592 21.648786,194.99202 22.105399,195.7382 22.562012,196.48437 23.074222,197.33063 23.597644,198.37746 24.121066,199.4243 24.655559,200.67145 25.045346,201.89645 25.435133,203.12146 25.680105,204.32405 25.925122,205.49345 26.170139,206.66286 26.415096,207.79857 26.671254,209.07935 26.927413,210.36014 27.194635,211.78533 27.361689,212.77648 27.528743,213.76763 27.595551,214.32437 27.59556,215.11522 27.595569,215.90608 27.528779,216.93018 27.406286,217.79889 27.283793,218.6676 27.105663,219.38012 26.426149,220.72804 25.746634,222.07596 24.566524,224.05766 23.386083,226.03991 23.386083,226.03991 23.386083,226.03991 23.386083,226.03991 23.386083,226.03991 22.985179,227.44307 22.985179,227.44307 22.985179,227.44307 22.985179,227.44307 22.729037,227.95535 22.472896,228.46764 21.960805,229.49182 21.281356,230.95096 20.601907,232.4101 19.755817,234.30267 18.942793,236.29623 18.12977,238.2898 17.350364,240.38306 16.793544,241.78627 16.236724,243.18949 15.902688,243.9021 15.535101,244.69297 15.167514,245.48384 14.766792,246.35207 14.32125,247.33226 13.875708,248.31245 13.385894,249.4034 12.962698,250.20529 12.539502,251.00718 12.183245,251.5193 11.815693,251.86465 11.44814,252.21 11.069733,252.38808 10.523393,252.54213 9.9770521,252.69618 9.2211017,252.83362 8.4524738,252.78908 7.683846,252.74454 6.8823679,252.52191 6.3476873,252.19885 5.8130067,251.8758 5.5457977,251.45272 5.5235939,250.96264 5.5013901,250.47257 5.7241496,249.91567 5.946803,249.32563 6.1694564,248.73559 6.3923106,248.1116 6.4145506,247.66635 6.4367905,247.22109 6.2585181,246.95369 6.1583079,246.65295 6.0580976,246.35222 6.0358204,246.01806 6.1138507,245.76198 6.1918811,245.5059 6.3701913,245.32759 6.5704886,245.22751 6.770786,245.12742 6.9938414,245.10512 7.3275635,245.183 7.6612856,245.26088 8.1073144,245.4393 8.4190321,245.61742 8.7307498,245.79554 8.9089819,245.97378 9.0872768,246.07402 9.2655717,246.17426 9.4437555,246.19652 9.6941322,246.04624 9.9445088,245.89595 10.290139,245.55032 10.746462,244.93816 11.202786,244.326 11.782332,243.43439 12.472644,242.41006 13.162956,241.38573 13.965043,240.22716 14.618375,239.2859 15.271706,238.34464 15.791384,237.59901 16.292397,236.79738 16.793409,235.99574 17.283603,235.12676 17.728968,234.26942 18.174332,233.41208 18.575382,232.56542 19.094516,231.42794 19.61365,230.29047 20.268079,228.82364 20.858243,227.52083 21.448406,226.21802 21.983066,225.0596 22.495248,223.79026 23.00743,222.52092 23.497558,221.13965 23.775909,219.90367 24.054259,218.66769 24.121092,217.57609 24.087683,216.13977 24.054274,214.70344 23.920604,212.92118 23.720159,211.36222 23.519714,209.80326 23.252408,208.46673 23.041369,207.45578 22.830331,206.44483 22.67332,205.7495 22.406101,205.07034 22.138883,204.39118 21.760145,203.72282 21.255518,203.1713 20.75089,202.61978 20.089813,202.16387 19.443864,201.65156 18.797915,201.13926 18.152071,200.56023 17.439428,200.17047 16.726784,199.78072 15.947266,199.58027 15.468277,198.95639 14.989287,198.3325 14.811151,197.28595 14.911413,196.2392 15.011675,195.19245 15.390385,194.14543 15.835933,193.55532 Z"
       id="path3748"
       inkscape:connector-curvature="0"
       inkscape:path-effect="#path-effect3750"
       inkscape:original-d="M 15.768902,193.09894 C 16.281433,192.96504 16.7937,192.8314 17.305702,192.69803 18.040509,192.85358 18.775949,193.00958 19.510675,193.16576 19.956268,193.34362 20.401838,193.52185 20.847023,193.70029 21.248069,194.34573 21.649096,194.99183 22.049736,195.638 22.562324,196.48418 23.074534,197.33044 23.586535,198.17706 24.121388,199.42416 24.655878,200.67131 25.190153,201.91883 25.435439,203.1214 25.680411,204.32399 25.925144,205.52697 26.170447,206.66279 26.415403,207.7985 26.660136,208.93466 26.927717,210.36008 27.194938,211.78527 27.461943,213.21097 27.529033,213.7676 27.595843,214.32433 27.662396,214.8814 27.595816,215.9061 27.529025,216.9302 27.461943,217.955 27.283979,218.66765 27.105848,219.38017 26.927405,220.09316 25.746711,222.07601 23.386083,226.03991 23.386083,226.03991 V 226.03991 L 22.985179,227.44307 C 22.985179,227.44307 22.985444,227.44281 22.985179,227.44307 22.473002,228.46769 21.960911,229.49187 21.448379,230.51667 20.602028,232.41015 19.755937,234.30272 18.909319,236.19615 18.129916,238.28985 17.350511,240.38311 16.570711,242.47698 16.236837,243.18954 15.902801,243.90215 15.56845,244.61514 15.167631,245.48389 14.766906,246.35212 14.365737,247.22102 13.875827,248.3125 13.386013,249.40345 12.895754,250.49507 12.539555,251.00722 12.1833,251.51934 11.826676,252.03187 11.448086,252.20989 11.069677,252.38796 10.690781,252.56641 9.9777271,252.69989 9.2210632,252.83341 8.4858073,252.96731 7.6839333,252.74423 6.8824548,252.5216 6.0803816,252.29914 5.8133175,251.8756 5.5461071,251.45252 5.2785732,251.02961 5.5015256,250.47262 5.7242868,249.91572 5.9467469,249.35917 6.1696083,248.73564 6.3924608,248.11165 6.6149209,247.48829 6.4370965,247.22089 6.2588258,246.95348 6.0803816,246.68648 6.0583786,246.3522 6.0361016,246.01804 6.0135646,245.68422 6.1918779,245.5059 6.3701886,245.32759 6.5481036,245.14968 6.7707622,245.12718 6.9938176,245.10488 7.2162776,245.08288 7.661415,245.26056 8.1074406,245.43898 8.5526251,245.61742 8.7310148,245.79528 8.9092493,245.97351 9.0871643,246.15196 9.2656086,246.17396 9.4437883,246.19626 9.6217034,246.21876 9.9556274,245.90707 10.290141,245.55032 10.623964,245.21649 11.202853,244.32604 11.782396,243.43443 12.361215,242.5438 13.163012,241.38577 13.965097,240.2272 14.766641,239.0693 15.256772,238.33423 15.791439,237.59905 16.303441,236.86432 16.793498,235.99579 17.283694,235.12681 17.773423,234.25844 18.174447,233.41213 18.575497,232.56547 18.976136,231.71938 19.622059,230.29422 20.268204,228.8237 20.91384,227.37625 21.448526,226.21808 21.983183,225.05965 22.517457,223.90175 23.007581,222.52097 23.49771,221.1397 23.98744,219.75907 24.05451,218.66771 24.121339,217.57611 24.187892,216.48502 24.054556,214.70342 23.920887,212.92116 23.786988,211.13963 23.520019,209.8032 23.252713,208.46667 22.985179,207.13059 22.851829,206.43998 22.673629,205.74943 22.517457,205.05925 22.139197,204.391 21.760458,203.72264 21.381562,203.05473 20.758279,202.60907 20.090024,202.16356 19.443858,201.71838 18.798166,201.13898 18.15232,200.55995 17.506154,199.98113 16.726864,199.78041 15.947346,199.57996 15.167546,199.37977 14.989588,198.33245 14.811451,197.2859 14.633006,196.23935 15.011826,195.1925 15.390535,194.14548 15.768902,193.09894 Z"
       sodipodi:nodetypes="cccccccccccccccccccccccccccccccccccccccccccccccccccccccc"
       transform="matrix(3.7795278,0,0,3.7795279,-1.1428553,-449.27206)" />
    <path
       style="fill:#000000;fill-opacity:1;stroke:#000000;stroke-width:0.26458332px;stroke-linecap:butt;stroke-linejoin:miter;stroke-opacity:1"
       d="M 33.450892,208.27005 C 34.049355,208.04957 34.649461,207.82848 35.325147,207.70282 36.000833,207.57716 36.75846,207.54559 37.419775,207.59284 38.08109,207.64009 38.648261,207.76613 39.309557,207.98657 39.970853,208.20701 40.727067,208.5221 41.215172,208.93143 41.703277,209.34077 41.923804,209.84483 42.128565,210.3331 42.333327,210.82138 42.522268,211.29373 42.664039,212.04978 42.805809,212.80584 42.900275,213.84497 42.837287,215.12078 42.774299,216.39659 42.553863,217.90815 42.459347,219.60925 42.364832,221.31034 42.396322,223.19985 42.380576,224.9796 42.364829,226.75935 42.301843,228.42851 42.081422,229.54672 41.861002,230.66493 41.483087,231.2318 41.010461,231.45243 40.537834,231.67306 39.971174,231.54713 39.482782,231.26355 38.994389,230.97996 38.585057,230.53914 38.474834,229.54683 38.364611,228.55452 38.553603,227.01108 38.567609,225.51528 38.581614,224.01949 38.427551,222.63292 38.238573,221.3731 38.049595,220.11328 37.829073,219.01067 37.592859,217.90835 37.356646,216.80603 37.104613,215.70339 36.726682,214.75859 36.34875,213.81378 35.844693,213.02619 35.073137,212.4593 34.301582,211.89241 33.262213,211.54595 32.947175,210.88421 32.632136,210.22247 33.041417,209.24649 33.450892,208.27005 Z"
       id="path3766"
       inkscape:connector-curvature="0"
       inkscape:path-effect="#path-effect3768"
       inkscape:original-d="M 33.450892,208.27005 C 33.450892,208.27005 34.649407,207.82833 35.24628,207.6086 36.002132,207.60833 36.758448,207.5453 37.514135,207.5141 38.081159,207.63978 38.64833,207.76582 39.21503,207.89208 39.970985,208.20669 40.727198,208.52178 41.482885,208.83702 41.703598,209.34063 41.924123,209.84469 42.144344,210.34892 42.333645,210.82125 42.522587,211.2936 42.711309,211.76633 42.806099,212.80581 42.900562,213.84494 42.994791,214.88464 42.77452,216.39662 42.554083,217.90818 42.333333,219.42035 42.365103,221.31034 42.396593,223.19985 42.427823,225.09 42.365083,226.75936 42.302096,228.42852 42.238837,230.09818 41.861062,230.66497 41.483147,231.23184 41.104906,231.79907 40.537902,231.67275 39.971244,231.54682 39.404014,231.4211 38.994664,230.97971 38.58533,230.53889 38.175591,230.09818 38.364839,228.55455 38.553834,227.01111 38.742556,225.46797 38.585361,224.01907 38.427842,222.63289 38.270087,221.21574 38.0499,220.11322 37.829378,219.01061 37.608628,217.90845 37.356954,216.80596 37.104925,215.70332 36.852674,214.60116 36.349061,213.81358 35.845003,213.02599 35.340771,212.23881 34.301689,211.89209 33.262318,211.54564 32.222466,211.19937 32.632266,210.22252 33.450892,208.27005 33.450892,208.27005 Z"
       sodipodi:nodetypes="ccccccccccccccccccccc"
       transform="matrix(3.7795278,0,0,3.7795279,-1.1428553,-449.27206)" />
    <path
       style="fill:#000000;fill-opacity:1;stroke:#000000;stroke-width:0.26458332px;stroke-linecap:butt;stroke-linejoin:miter;stroke-opacity:1"
       d="M 26.899444,229.83039 C 27.466578,229.21617 29.230468,228.80669 31.057185,228.41301 32.883903,228.01932 34.774114,227.64128 36.789813,227.24758 38.805513,226.85389 40.947726,226.44435 43.435866,225.98766 45.924007,225.53098 48.759229,225.02694 51.499419,224.46 54.23961,223.89306 56.885725,223.26304 58.602321,222.85357 60.318917,222.44411 61.10646,222.2551 61.877958,222.23938 62.649455,222.22366 63.405705,222.38121 64.098492,222.71186 64.791279,223.04252 65.421412,223.54662 65.657671,224.12915 65.89393,224.71167 65.736431,225.37316 65.405701,225.86152 65.074972,226.34987 64.571242,226.6647 63.783448,226.8538 62.995653,227.0429 61.925378,227.10586 60.885804,227.13736 59.84623,227.16887 58.775562,227.16887 57.420946,227.24762 56.066331,227.32637 54.39736,227.48382 52.853841,227.67281 51.310322,227.86181 49.893155,228.08226 48.081791,228.41303 46.270427,228.7438 44.066029,229.18468 41.813766,229.70443 39.561503,230.22417 37.262464,230.82256 35.309479,231.35805 33.356495,231.89354 31.750316,232.36595 30.521737,232.47624 29.293159,232.58653 28.44288,232.33459 27.702512,231.799 26.962144,231.26341 26.332309,230.44462 26.899444,229.83039 Z"
       id="path3770"
       inkscape:connector-curvature="0"
       inkscape:path-effect="#path-effect3772"
       inkscape:original-d="M 25.702381,229.62571 C 27.466533,229.21597 29.230423,228.8065 30.994048,228.39729 32.883861,228.01911 34.774073,227.64107 36.66369,227.26336 38.805474,226.85369 40.947686,226.44414 43.089284,226.03493 45.923969,225.53077 48.759191,225.02673 51.593749,224.52303 54.239564,223.89287 56.885681,223.26285 59.531249,222.63315 60.318871,222.44392 61.106414,222.25491 61.8936,222.06619 62.64952,222.22335 63.40577,222.3809 64.161458,222.53866 64.791515,223.04222 65.421644,223.54633 66.051339,224.05056 65.894121,224.71172 65.736623,225.37321 65.578867,226.03493 65.074929,226.3498 64.571197,226.66463 64.066964,226.97988 62.99564,227.04268 61.925363,227.1056 60.854166,227.16887 59.84623,227.1686 58.775562,227.1686 57.735864,227.16887 56.066308,227.32613 54.397338,227.48358 52.727677,227.64133 51.310288,227.86159 49.893121,228.08204 48.475447,228.30279 46.270386,228.74359 44.065988,229.18447 41.860864,229.62571 39.561455,230.22399 37.262416,230.82237 34.962798,231.4211 33.356444,231.89337 31.750264,232.36577 30.1436,232.83851 29.293253,232.58621 28.442973,232.33428 27.59226,232.08256 26.962438,231.26318 26.332606,230.44439 25.702381,229.62571 Z"
       transform="matrix(3.7795278,0,0,3.7795279,-1.1428553,-449.27206)" />
    <path
       style="fill:#000000;fill-opacity:1;stroke:#000000;stroke-width:0.26458332px;stroke-linecap:butt;stroke-linejoin:miter;stroke-opacity:1"
       d="M 46.790383,209.29363 C 47.18419,208.80558 47.971639,209.05756 48.822048,209.16777 49.672456,209.27799 50.586088,209.24648 51.65686,208.97876 52.727631,208.71104 53.956422,208.20692 55.01149,207.76599 56.066558,207.32506 56.948733,206.94699 57.61011,206.66354 58.271487,206.3801 58.712621,206.19104 59.200609,206.11236 59.688598,206.03368 60.224452,206.0652 60.555006,206.33272 60.885559,206.60024 61.011608,207.10444 60.877825,207.55332 60.744042,208.00221 60.318965,208.42728 59.767532,208.94721 59.216099,209.46713 58.523588,210.09669 57.688713,210.6953 56.853839,211.29391 55.87779,211.86065 54.778583,212.46571 53.679376,213.07077 52.507506,213.68754 51.436399,213.92386 50.365292,214.16018 49.4206,214.00273 48.59162,213.64857 47.76264,213.29441 47.08957,212.77431 46.743073,211.89218 46.396576,211.01005 46.396576,209.78169 46.790383,209.29363 Z"
       id="path3774"
       inkscape:connector-curvature="0"
       inkscape:path-effect="#path-effect3776"
       inkscape:original-d="M 46.396576,208.55354 C 47.184291,208.80526 47.971741,209.05724 48.758927,209.30949 49.672446,209.27769 50.586078,209.24619 51.499256,209.21499 52.727574,208.7109 53.956365,208.20678 55.184523,207.70308 56.066504,207.32494 56.948678,206.94686 57.830357,206.56915 58.271433,206.37997 58.712565,206.19091 59.153273,206.00219 59.688615,206.03339 60.224471,206.06489 60.759673,206.09669 60.885871,206.60016 61.011921,207.10436 61.137648,207.6086 60.759797,208.01796 60.318964,208.42728 59.909225,208.83702 59.216086,209.46712 58.523578,210.09668 57.830357,210.7269 56.853793,211.29383 55.877745,211.86057 54.901041,212.42779 53.672491,213.05769 52.507456,213.68745 51.310267,214.31767 50.365342,214.15988 49.42065,214.00243 48.475447,213.84521 47.751092,213.30935 47.089798,212.77401 46.396576,212.23881 46.396841,211.01005 46.396841,209.78169 46.396576,208.55354 Z"
       transform="matrix(3.7795278,0,0,3.7795279,-1.1428553,-449.27206)" />
    <path
       style="fill:#000000;fill-opacity:1;stroke:#000000;stroke-width:0.26458332px;stroke-linecap:butt;stroke-linejoin:miter;stroke-opacity:1"
       d="M 26.08045,240.93337 C 25.765434,241.15368 25.639442,241.81514 25.670932,242.52408 25.702422,243.23302 25.891322,243.98862 26.300966,244.49274 26.71061,244.99686 27.340413,245.24878 28.03332,245.45349 28.726227,245.65821 29.482344,245.81573 30.065011,245.6109 30.647677,245.40607 31.057258,244.83895 31.56108,244.19344 32.064901,243.54793 32.66368,242.82309 33.073071,242.24045 33.482463,241.65781 33.703034,241.21667 33.545705,240.85472 33.388376,240.49278 32.852529,240.2091 32.175358,240.22478 31.498187,240.24047 30.679384,240.5554 30.11235,240.82313 29.545316,241.09086 29.230459,241.31126 28.820687,241.35858 28.410914,241.40589 27.907428,241.28002 27.403336,241.10674 26.899244,240.93347 26.395465,240.71306 26.08045,240.93337 Z"
       id="path3778"
       inkscape:connector-curvature="0"
       inkscape:path-effect="#path-effect3780"
       inkscape:original-d="M 25.891369,240.49252 C 25.765641,241.15372 25.639649,241.81518 25.513393,242.4769 25.702732,243.23294 25.891633,243.98854 26.080357,244.74476 26.710738,244.99654 27.340541,245.24846 27.970239,245.50071 28.726291,245.6579 29.482407,245.81543 30.238094,245.97318 30.647724,245.4061 31.057307,244.83899 31.466517,244.27229 32.064928,243.54795 32.663706,242.82311 33.261905,242.09892 33.482568,241.65786 33.703141,241.21672 33.923364,240.77601 33.388546,240.49246 32.852696,240.20878 32.316965,239.92556 31.498132,240.24033 30.679331,240.55526 29.860118,240.8705 29.54528,241.09081 29.230423,241.31121 28.915177,241.53196 28.410992,241.40558 27.907506,241.27971 27.403274,241.15398 26.899383,240.93315 26.395602,240.71275 25.891369,240.49252 Z"
       transform="matrix(3.7795278,0,0,3.7795279,-1.1428553,-449.27206)" />
    <path
       style="fill:#000000;fill-opacity:1;stroke:#000000;stroke-width:0.26458332px;stroke-linecap:butt;stroke-linejoin:miter;stroke-opacity:1"
       d="M 40.616725,238.08295 C 40.978984,238.3192 41.70344,238.79167 42.380647,239.16964 43.057854,239.54761 43.687868,239.83112 44.254873,239.78377 44.821877,239.73642 45.325941,239.35837 45.829729,238.85456 46.333516,238.35074 46.837784,237.72041 47.105401,237.1693 47.373018,236.6182 47.404529,236.14551 47.05839,235.90942 46.71225,235.67333 45.987363,235.67333 45.245241,235.81004 44.50312,235.94676 43.688062,236.24018 42.853187,236.60247 42.018311,236.96476 41.136724,237.40556 40.695593,237.62612 40.254462,237.84669 40.254465,237.84669 40.616725,238.08295 Z"
       id="path3782"
       inkscape:connector-curvature="0"
       inkscape:path-effect="#path-effect3784"
       inkscape:original-d="M 40.254465,237.84669 C 40.979182,238.3189 41.703638,238.79137 42.427826,239.2641 43.057995,239.5473 43.688013,239.8308 44.317708,240.11455 44.821845,239.73638 45.325908,239.35833 45.829614,238.98062 46.33355,238.35077 46.837814,237.72043 47.341517,237.09074 47.373267,236.61822 47.404777,236.14553 47.436007,235.67333 46.71225,235.67307 45.987363,235.67307 45.262646,235.67333 44.506681,235.95665 43.68801,236.24003 42.900295,236.52377 42.018259,236.96466 41.13667,237.40545 40.254462,237.84669 Z"
       transform="matrix(3.7795278,0,0,3.7795279,-1.1428553,-449.27206)" />
    <path
       style="fill:#000000;fill-opacity:1;stroke:#000000;stroke-width:0.26458332px;stroke-linecap:butt;stroke-linejoin:miter;stroke-opacity:1"
       d="M 57.421004,232.88562 C 56.444553,232.90119 56.19257,233.62564 55.97282,234.39407 55.753069,235.1625 55.562571,235.988 55.263304,236.82285 54.964036,237.65771 54.554716,238.50784 54.066443,239.23242 53.57817,239.95701 53.011415,240.55525 52.444353,240.99634 51.877292,241.43743 51.310585,241.72079 51.074193,242.03586 50.837801,242.35092 50.932242,242.69721 51.436627,242.74443 51.941012,242.79166 52.853985,242.53981 53.908964,242.0989 54.963943,241.658 56.161277,241.02782 57.405281,240.42945 58.649284,239.83108 59.941042,239.26396 60.964621,238.68128 61.988199,238.09859 62.744338,237.49998 63.043428,236.9489 63.342517,236.39781 63.184967,235.89365 62.909431,235.46007 62.633895,235.02649 62.208591,234.63391 61.153446,234.09845 60.098301,233.563 58.397455,232.87006 57.421004,232.88562 Z"
       id="path3786"
       inkscape:connector-curvature="0"
       inkscape:path-effect="#path-effect3788"
       inkscape:original-d="M 56.696427,232.17705 C 56.444707,232.90124 56.192724,233.62569 55.940475,234.35041 55.78318,235.16945 55.562764,235.98804 55.37351,236.80726 54.964147,237.65776 54.554828,238.50789 54.145089,239.3586 53.578177,239.95702 53.011424,240.55526 52.444197,241.15398 51.87724,241.43733 51.310531,241.72068 50.743302,242.00443 50.838112,242.35084 50.932556,242.69712 51.026784,243.04386 51.940965,242.79149 52.853936,242.53963 53.767114,242.28791 54.96389,241.6579 56.161228,241.02773 57.357885,240.39803 58.649229,239.83095 59.940988,239.26384 61.232142,238.69714 61.988173,238.09856 62.744312,237.49995 63.499999,236.90175 63.342834,236.39771 63.185283,235.89355 63.02753,235.38985 62.618455,235.04322 62.208846,234.63363 61.799107,234.25592 60.098431,233.56268 58.397586,232.86974 56.696427,232.17705 Z"
       transform="matrix(3.7795278,0,0,3.7795279,-1.1428553,-449.27206)" />
    <path
       style="fill:#000000;fill-opacity:1;stroke:#000000;stroke-width:0.26458332px;stroke-linecap:butt;stroke-linejoin:miter;stroke-opacity:1"
       d="M 22.363716,253.8003 C 21.922817,254.13086 21.355856,255.0128 20.836033,255.94216 20.31621,256.87152 19.843903,257.84762 19.686346,258.87153 19.528789,259.89543 19.686227,260.96601 19.906752,261.65911 20.127277,262.3522 20.410698,262.66711 20.836096,262.77734 21.261493,262.88756 21.828425,262.79307 22.186795,262.4457 22.545166,262.09832 22.710148,261.43839 22.867589,260.71415 23.02503,259.9899 23.182599,259.17054 23.40306,258.36748 23.623521,257.56443 23.90711,256.77668 23.922825,256.0367 23.93854,255.29673 23.686453,254.60349 23.40306,254.14688 23.119666,253.69028 22.804616,253.46974 22.363716,253.8003 Z"
       id="path3790"
       inkscape:connector-curvature="0"
       inkscape:path-effect="#path-effect3792"
       inkscape:original-d="M 22.489583,253.24922 C 21.922883,254.1309 21.355919,255.01284 20.78869,255.89506 20.31632,256.87157 19.844014,257.84767 19.37128,258.82437 19.529086,259.89539 19.686524,260.96597 19.84375,262.03717 20.127555,262.35195 20.410979,262.66686 20.694196,262.98211 21.261451,262.88731 21.828389,262.79286 22.395089,262.69863 22.55276,262.10022 22.710334,261.43844 22.867559,260.80875 23.025236,259.98994 23.182804,259.17058 23.34003,258.3519 23.623671,257.56448 23.907258,256.77673 24.190476,255.98955 23.938858,255.29661 23.686772,254.60337 23.434524,253.91068 23.119876,253.68998 22.804828,253.46944 22.489583,253.24922 Z"
       transform="matrix(3.7795278,0,0,3.7795279,-1.1428553,-449.27206)" />
    <path
       style="fill:#000000;fill-opacity:1;stroke:#000000;stroke-width:0.26458332px;stroke-linecap:butt;stroke-linejoin:miter;stroke-opacity:1"
       d="M 33.057144,253.0602 C 33.419348,253.62713 34.143803,254.76106 34.994286,255.95804 35.84477,257.15502 36.821093,258.41479 37.939395,259.40708 39.057697,260.39936 40.317544,261.12377 41.971135,261.8797 43.624726,262.63562 45.672267,263.42314 47.688117,263.91133 49.703967,264.39953 51.688479,264.58853 53.688508,264.58852 55.688537,264.58851 57.704652,264.39949 59.799103,264.30501 61.893555,264.21053 64.067229,264.21053 65.862533,264.17903 67.657837,264.14753 69.075424,264.08452 70.225037,263.89552 71.37465,263.70651 72.256765,263.39147 72.949629,263.09226 73.642492,262.79305 74.146646,262.50946 74.162359,261.94281 74.178072,261.37616 73.705305,260.52518 73.075437,259.81656 72.445568,259.10795 71.658032,258.54092 70.524046,257.62743 69.39006,256.71394 67.909747,255.4541 66.618327,254.39892 65.326907,253.34373 64.224491,252.4933 63.120528,251.88381 62.016565,251.27433 60.854327,250.88692 60.27156,250.77651 59.688794,250.6661 59.657298,250.82357 59.957109,251.21806 60.256919,251.61254 60.885658,252.24129 61.531344,253.09169 62.17703,253.9421 62.838488,255.01303 62.996067,255.91063 63.153645,256.80823 62.80719,257.53264 62.271639,258.16276 61.736088,258.79289 61.011953,259.32812 59.468053,259.65898 57.924153,259.98984 55.562773,260.11578 53.247524,260.14728 50.932275,260.17878 48.664685,260.11579 46.916454,259.97406 45.168222,259.83232 43.939939,259.61185 42.67985,259.15508 41.419761,258.69831 40.128563,258.00548 38.963051,257.15497 37.797538,256.30446 36.758182,255.2966 36.006905,254.43757 35.255628,253.57854 34.773761,252.83968 34.269993,252.54044 33.766225,252.2412 33.230712,252.3672 32.962823,252.43024 32.694935,252.49327 32.69494,252.49327 33.057144,253.0602 Z"
       id="path3794"
       inkscape:connector-curvature="0"
       inkscape:path-effect="#path-effect3796"
       inkscape:original-d="M 32.69494,252.49327 C 33.419658,253.62693 34.144114,254.76086 34.868302,255.89506 35.845063,257.15479 36.821388,258.41456 37.797619,259.67482 39.057878,260.39905 40.317725,261.12346 41.577381,261.84818 43.624849,262.6353 45.672388,263.42282 47.719493,264.21053 49.703995,264.39924 51.688507,264.58824 53.672618,264.7775 55.688515,264.58827 57.704629,264.39925 59.720238,264.21053 61.893555,264.21027 64.067229,264.21027 66.240326,264.21053 67.657828,264.14733 69.075413,264.08427 70.492558,264.02154 71.374597,263.70636 72.256713,263.39132 73.138392,263.0766 73.642444,262.79296 74.146594,262.50937 74.650297,262.22616 74.178387,261.37598 73.705621,260.525 73.232885,259.67482 72.445784,259.10765 71.658249,258.54062 70.870534,257.97392 69.390301,256.71366 67.909987,255.45382 66.429315,254.19416 65.327132,253.34344 64.224719,252.493 63.122023,251.64282 62.01982,251.26457 60.85443,250.88661 59.720238,250.50889 59.688998,250.66614 59.657508,250.82361 59.625738,250.98136 60.257184,251.61228 60.885924,252.24102 61.515619,252.87125 62.177342,253.94191 62.8388,255.01284 63.499994,256.08404 63.153758,256.80828 62.807302,257.53269 62.46056,258.25741 61.736052,258.79284 61.011916,259.32807 60.287196,259.86381 57.924139,259.98958 55.562759,260.11552 53.200144,260.24178 50.932283,260.17848 48.664693,260.11552 46.396571,260.05279 45.168275,259.83202 43.939992,259.61156 42.711304,259.39133 41.419928,258.698 40.128732,258.00516 38.837047,257.31247 37.797801,256.30419 36.758443,255.29633 35.718745,254.28866 35.278036,253.56393 34.774068,252.83948 34.301335,252.11529 33.76618,252.24101 33.230666,252.36701 32.694935,252.49327 Z"
       sodipodi:nodetypes="ccccccccccccccccccccccccccccc"
       transform="matrix(3.7795278,0,0,3.7795279,-1.1428553,-449.27206)" />
    <path
       style="fill:#000000;fill-opacity:1;stroke:#000000;stroke-width:0.26458332px;stroke-linecap:butt;stroke-linejoin:miter;stroke-opacity:1"
       d="M 43.845333,249.12299 C 43.561738,249.40644 44.223196,250.19389 44.994928,250.98137 45.766659,251.76885 46.648575,252.55628 47.703845,253.06026 48.759115,253.56424 49.98756,253.78472 50.838006,253.70588 51.688452,253.62703 52.161004,253.24899 52.475823,252.68222 52.790642,252.11545 52.948228,251.35904 52.601994,250.90252 52.25576,250.446 51.404968,250.28845 50.31812,250.06793 49.231272,249.84741 47.908681,249.564 46.632924,249.31199 45.357168,249.05999 44.128928,248.83953 43.845333,249.12299 Z"
       id="path3798"
       inkscape:connector-curvature="0"
       inkscape:path-effect="#path-effect3800"
       inkscape:original-d="M 42.900298,248.61901 C 43.562021,249.4062 44.223479,250.19365 44.884673,250.98136 45.76691,251.76857 46.648824,252.556 47.530506,253.34372 48.75917,253.56393 49.987615,253.78442 51.215774,254.00517 51.688428,253.627 52.160979,253.24896 52.633183,252.87125 52.790841,252.11549 52.948429,251.35908 53.105655,250.60339 52.255816,250.4457 51.405025,250.28814 50.554315,250.13092 49.231338,249.8471 47.908747,249.56369 46.585565,249.28047 45.357221,249.05969 44.128983,248.83923 42.900298,248.61901 Z"
       transform="matrix(3.7795278,0,0,3.7795279,-1.1428553,-449.27206)" />
    <path
       style="fill:#000000;fill-opacity:1;stroke:#000000;stroke-width:0.26458332px;stroke-linecap:butt;stroke-linejoin:miter;stroke-opacity:1"
       d="M 60.807075,245.39034 C 61.358285,245.87874 62.712701,246.35121 64.114295,246.77641 65.515889,247.20161 66.964965,247.57963 68.539758,247.98908 70.114552,248.39852 71.815657,248.83955 72.855106,248.85516 73.894555,248.87077 74.272574,248.46125 74.304025,247.84738 74.335476,247.23351 74.020284,246.41401 73.563669,245.79992 73.107054,245.18584 72.508489,244.77629 71.7368,244.42981 70.965111,244.08332 70.02026,243.79986 68.901993,243.57935 67.783727,243.35884 66.492539,243.20138 65.106533,243.26436 63.720526,243.32734 62.240382,243.61077 61.374088,244.00442 60.507794,244.39807 60.255864,244.90193 60.807075,245.39034 Z"
       id="path3802"
       inkscape:connector-curvature="0"
       inkscape:path-effect="#path-effect3804"
       inkscape:original-d="M 60.003718,245.40622 C 61.358398,245.87842 62.712814,246.35089 64.066964,246.82363 65.515973,247.20129 66.965046,247.57932 68.41369,247.95756 70.114633,248.39821 71.815739,248.83923 73.516367,249.28047 73.894568,248.87078 74.272586,248.46126 74.650297,248.05205 74.335793,247.23339 74.020602,246.41389 73.705357,245.5952 73.107263,245.18553 72.508696,244.77599 71.909968,244.36678 70.965205,244.08301 70.020354,243.79955 69.075148,243.51633 67.783762,243.35855 66.492574,243.20109 65.200892,243.04386 63.720487,243.32713 62.240344,243.61057 60.759673,243.89431 60.5079,244.39812 60.255969,244.90198 60.003718,245.40622 Z"
       transform="matrix(3.7795278,0,0,3.7795279,-1.1428553,-449.27206)" />
    <path
       style="fill:#000000;fill-opacity:1;stroke:#000000;stroke-width:0.26458332px;stroke-linecap:butt;stroke-linejoin:miter;stroke-opacity:1"
       d="M 49.766997,174.34669 C 50.397089,174.34669 51.657011,174.34669 52.712052,174.48843 53.767092,174.63017 54.617717,174.91371 55.279044,175.3231 55.940371,175.73249 56.412931,176.26806 56.979887,177.18147 57.546842,178.09489 58.208281,179.38627 58.806763,180.78797 59.405245,182.18966 59.94067,183.70145 60.806924,185.92222 61.673178,188.14298 62.869985,191.07201 63.940937,193.5919 65.01189,196.11179 65.956786,198.22206 67.122253,200.74199 68.28772,203.26192 69.673555,206.19107 70.996504,208.60073 72.319452,211.01039 73.579325,212.9002 74.461271,214.61682 75.343217,216.33343 75.847171,217.87679 76.618929,219.57782 77.390686,221.27884 78.430008,223.13703 79.428644,224.99213 80.42728,226.84723 81.359322,228.64917 82.304303,230.12965 83.249283,231.61012 84.194175,232.74399 85.186382,233.84644 86.178589,234.94889 87.218,236.0198 88.808645,237.84668 90.39929,239.67356 92.541148,242.25639 94.39957,244.1463 96.257992,246.03622 97.832881,247.23313 99.486494,248.58752 101.14011,249.94191 102.87254,251.45385 104.71518,252.83977 106.55783,254.22569 108.51073,255.48563 110.35332,256.76127 112.19592,258.03691 113.92836,259.32837 115.28285,260.06858 116.63733,260.80878 117.61379,260.99777 118.43273,260.96622 119.25166,260.93467 119.91326,260.68263 120.60604,260.36772 121.29882,260.05281 122.02363,259.67465 122.60618,259.07629 123.18872,258.47793 123.62988,257.65863 123.94476,256.55647 124.25964,255.45432 124.4487,254.06787 124.70129,253.34632 124.95388,252.62476 125.33091,252.55621 125.64559,253.07538 125.96027,253.59455 126.244,254.69795 126.49601,256.03673 126.74802,257.3755 126.96847,258.95014 127.09449,260.57269 127.2205,262.19523 127.25199,263.8638 126.95276,265.69081 126.65353,267.51782 126.02367,269.50188 125.50402,270.63588 124.98437,271.76989 124.57496,272.05333 123.99193,272.14791 123.40891,272.24249 122.65351,272.14806 121.337,271.56903 120.02048,270.98999 118.11765,269.91172 115.78672,268.43127 113.45579,266.95081 110.68409,265.06102 107.66023,262.77738 104.63638,260.49373 101.36065,257.81646 98.966778,255.64307 96.572901,253.46968 95.061008,251.8003 93.281372,249.70568 91.501736,247.61107 89.45435,245.0912 87.42274,242.60288 85.39113,240.11455 83.375234,237.65768 81.35936,234.7126 79.343486,231.76753 77.327592,228.33421 75.264493,224.271 73.201395,220.20779 71.090977,215.51447 69.390101,211.86075 67.689226,208.20702 66.397774,205.59262 64.885905,202.49014 63.374035,199.38765 61.641573,195.79673 60.287173,193.00919 58.932773,190.22165 57.956304,188.23721 56.995649,186.56788 56.034995,184.89855 55.090003,183.54406 54.397047,182.41012 53.704092,181.27618 53.263102,180.3627 52.696265,179.74859 52.129429,179.13448 51.43639,178.81946 50.585836,178.36269 49.735281,177.90591 48.72752,177.30755 48.160483,176.83497 47.593447,176.36239 47.467464,176.01594 47.703748,175.62227 47.940032,175.22861 48.538749,174.78744 48.837832,174.56707 49.136915,174.34669 49.136905,174.34669 49.766997,174.34669 Z"
       id="path3806"
       inkscape:connector-curvature="0"
       inkscape:path-effect="#path-effect3808"
       inkscape:original-d="M 49.136905,174.34669 C 50.397089,174.34643 51.657011,174.34643 52.916666,174.34669 53.767198,174.62985 54.617823,174.91339 55.468006,175.19714 55.940652,175.73224 56.413211,176.26781 56.885416,176.80354 57.54716,178.09473 58.208597,179.38611 58.869791,180.67779 59.405564,182.18955 59.940988,183.70134 60.47619,185.21351 61.673498,188.14285 62.870304,191.07188 64.066964,194.00146 65.012212,196.11165 65.957108,198.22192 66.901784,200.33256 68.288042,203.26177 69.673874,206.19092 71.059523,209.1205 72.319758,211.01019 73.579629,212.9 74.839284,214.79014 75.343535,216.33333 75.847487,217.87669 76.35119,219.42035 77.390997,221.27867 78.430323,223.13685 79.469492,224.9955 80.414743,226.85371 81.359639,228.64901 82.304315,230.47616 83.249571,231.60988 84.194461,232.74375 85.139135,233.87794 86.17886,234.94863 87.21827,236.01954 88.25744,237.09074 90.399578,239.67332 92.541435,242.25615 94.683034,244.83925 96.258217,246.03592 97.833102,247.23284 99.407738,248.43002 101.14035,249.94163 102.87278,251.45357 104.60491,252.96574 106.55803,254.22538 108.51093,255.48532 110.46354,256.7455 112.19614,258.03661 113.92859,259.32807 115.66071,260.61976 116.63739,260.80848 117.61385,260.99747 118.59003,261.18672 119.25161,260.93453 119.91321,260.68249 120.5744,260.43077 121.29877,260.05271 122.02358,259.67455 122.74777,259.29684 123.18881,258.47798 123.62998,257.65868 124.07068,256.84 124.25986,255.45435 124.44892,254.0679 124.63765,252.68226 124.95282,252.61896 125.33087,252.556 125.67708,252.49327 125.96058,253.59447 126.24431,254.69787 126.52753,255.80056 126.74832,257.37546 126.96876,258.9501 127.18899,260.52526 127.25229,262.19463 127.25229,263.86379 127.28349,265.53345 126.6537,267.51787 126.02383,269.50193 125.39361,271.48657 124.98434,271.76984 124.57492,272.05327 124.16519,272.33702 123.40894,272.24222 122.65355,272.14777 121.89733,272.05354 120.00715,271.01352 118.11783,269.91141 116.22769,268.84074 113.456,266.95051 110.6843,265.06071 107.91221,263.1711 104.63661,260.49345 101.36089,257.81617 98.084831,255.1391 96.573177,253.46943 95.061284,251.80005 93.549116,250.13092 91.502027,247.61083 89.454639,245.09097 87.407002,242.57139 85.39142,240.11431 83.375522,237.65744 81.359384,235.20086 79.343799,231.76735 77.327904,228.33403 75.311766,224.90101 73.201714,220.20765 71.091297,215.51433 68.980665,210.82139 67.689543,208.20686 66.398091,205.59246 65.106408,202.97839 63.374353,199.3875 61.641891,195.79658 59.909235,192.20607 58.933092,190.22149 57.956623,188.23705 56.979919,186.25294 56.035296,184.89834 55.090305,183.54385 54.145099,182.1897 53.704409,181.27603 53.263418,180.36255 52.822183,179.44937 52.129575,179.13416 51.436533,178.81915 50.743312,178.50443 49.735466,177.9056 48.727705,177.30724 47.719503,176.70904 47.593767,176.36227 47.467783,176.01582 47.341527,175.66961 47.939999,175.22856 48.538716,174.7874 49.136915,174.34669 Z"
       transform="matrix(3.7795278,0,0,3.7795279,-0.42856954,-449.6292)" />
    <path
       style="fill:#000000;fill-opacity:1;stroke:#000000;stroke-width:0.26458332px;stroke-linecap:butt;stroke-linejoin:miter;stroke-opacity:1"
       d="M 84.666661,207.98646 C 84.918663,207.60861 85.548625,208.17558 86.084051,209.02593 86.619476,209.87628 87.060461,211.01024 87.501462,212.27024 87.942463,213.53023 88.38338,214.91597 88.777125,216.08146 89.17087,217.24696 89.517308,218.19179 89.611834,219.29424 89.706361,220.39669 89.548894,221.65642 89.186628,223.27879 88.824362,224.90115 88.257529,226.88507 87.722018,228.85385 87.186508,230.82263 86.682619,232.7752 85.958124,234.74398 85.233629,236.71277 84.288842,238.69682 83.611596,240.1458 82.93435,241.59478 82.524944,242.50808 81.957866,243.64224 81.390788,244.77641 80.666588,246.13035 79.926319,247.32741 79.18605,248.52446 78.430276,249.56366 77.665751,250.50088 76.901225,251.4381 76.09946,252.30401 75.185877,253.07586 74.272293,253.84771 73.23319,254.54044 72.5873,254.77675 71.941409,255.01306 71.689501,254.79264 71.957396,254.35152 72.225291,253.91039 73.012683,253.24898 73.852189,252.26541 74.691695,251.28185 75.563947,250.00462 76.382781,248.58738 77.201616,247.17015 77.957744,245.62639 78.666362,243.95718 79.37498,242.28797 80.036576,240.49221 80.650708,238.19311 81.264841,235.89401 81.831906,233.09019 82.398839,230.28702 82.965772,227.48385 83.532798,224.68022 84.005764,222.25217 84.47873,219.82413 84.85571,217.78215 84.950177,215.97117 85.044643,214.16019 84.855627,212.58506 84.698148,211.13624 84.54067,209.68742 84.414659,208.36431 84.666661,207.98646 Z"
       id="path3810"
       inkscape:connector-curvature="0"
       inkscape:path-effect="#path-effect3812"
       inkscape:original-d="M 84.28869,207.04163 C 84.918914,207.60833 85.548874,208.1753 86.178571,208.74253 86.619796,209.87616 87.06078,211.01012 87.501488,212.14431 87.942779,213.53013 88.383696,214.91587 88.824405,216.30205 89.171186,217.24684 89.517624,218.19167 89.863839,219.13687 89.706589,220.39672 89.549122,221.65645 89.391367,222.91663 88.824537,224.9012 88.257704,226.88512 87.690475,228.86976 87.186692,230.82268 86.682804,232.77525 86.178571,234.72839 85.233744,236.71282 84.288954,238.69687 83.343749,240.68151 82.934473,241.59484 82.525065,242.50813 82.115326,243.42184 81.390883,244.77646 80.666682,246.1304 79.941964,247.48508 79.1861,248.5245 78.430323,249.56369 77.674107,250.60339 76.9182,251.45382 76.099471,252.30402 75.311756,253.15473 74.27225,253.84764 73.233149,254.54038 72.193451,255.2336 71.941657,255.01278 71.689748,254.79236 71.437499,254.57214 72.225272,253.91037 73.012664,253.24896 73.79985,252.58776 74.713226,251.29655 75.564004,250.00466 76.445683,248.71351 77.201722,247.1702 77.957854,245.62644 78.713541,244.0833 79.375129,242.28802 80.036722,240.49226 80.697916,238.69714 81.265045,235.89405 81.832108,233.09023 82.398808,230.28717 82.965977,227.48389 83.533003,224.68026 84.099701,221.8772 84.509395,219.82979 84.855919,217.78219 85.233631,215.73508 85.044935,214.16015 84.855919,212.58502 84.666666,211.01038 84.540957,209.68739 84.414946,208.36428 84.28869,207.04163 Z"
       transform="matrix(3.7795278,0,0,3.7795279,-1.1428553,-449.27206)" />
    <path
       style="fill:#000000;fill-opacity:1;stroke:#000000;stroke-width:0.26458332px;stroke-linecap:butt;stroke-linejoin:miter;stroke-opacity:1"
       d="M 80.981519,173.26002 C 81.643099,173.30727 82.966018,173.40177 84.477734,173.66948 85.98945,173.93719 87.690659,174.37824 88.950502,174.78769 90.210345,175.19715 91.029383,175.57517 91.863957,176.20503 92.698532,176.8349 93.549105,177.71698 94.05306,178.8193 94.557015,179.92161 94.714505,181.24452 94.399627,182.01632 94.08475,182.78811 93.297436,183.00856 92.493945,182.83527 91.690454,182.66198 90.87183,182.09524 89.989851,181.48101 89.107873,180.86677 88.162998,180.20536 86.777019,179.10288 85.39104,178.0004 83.564254,176.45708 82.414553,175.40187 81.264851,174.34666 80.79241,173.77973 80.981519,173.26002 Z"
       id="path3814"
       inkscape:connector-curvature="0"
       inkscape:path-effect="#path-effect3816"
       inkscape:original-d="M 80.31994,173.21276 C 81.643121,173.30696 82.966038,173.40149 84.28869,173.49625 85.989532,173.93687 87.690739,174.37793 89.391367,174.81916 90.210493,175.19683 91.02953,175.57485 91.848214,175.95309 92.698802,176.83464 93.549371,177.71672 94.399551,178.59892 94.557309,179.92158 94.714797,181.24449 94.872023,182.56767 94.0847,182.78793 93.297387,183.00838 92.509672,183.22913 91.690662,182.66168 90.872039,182.09494 90.052825,181.52824 89.108086,180.86647 88.163211,180.20506 87.218006,179.54387 85.391283,178.00011 83.564499,176.45679 81.73735,174.91366 81.265137,174.34642 80.31994,173.21276 80.31994,173.21276 Z"
       transform="matrix(3.7795278,0,0,3.7795279,-1.1428553,-449.27206)" />
  </g>
</svg>
