
<svg version="1.1" baseProfile="full" xmlns="http://www.w3.org/2000/svg" width="512" height="512" viewBox="0,0,512,512">

  <rect width="512" height="512" stroke="red" fill="white"></rect>

  <text x="2" y="12" font-size="12" text-anchor="start" fill="red">0</text>
  <path d="M256  64 H0 H512" stroke="lightgray" fill="white"></path>
  <text x="2" y="64" font-size="12" text-anchor="start" fill="red">64</text>
  <path d="M256 128 H0 H512" stroke="lightgray" fill="white"></path>
  <text x="2" y="128" font-size="12" text-anchor="start" fill="red">128</text>
  <path d="M256 192 H0 H512" stroke="lightgray" fill="white"></path>
  <text x="2" y="192" font-size="12" text-anchor="start" fill="red">192</text>
  <path d="M256 256 H0 H512" stroke="lightgray" fill="white"></path>
  <text x="2" y="256" font-size="12" text-anchor="start" fill="red">256</text>
  <path d="M256 320 H0 H512" stroke="lightgray" fill="white"></path>
  <text x="2" y="320" font-size="12" text-anchor="start" fill="red">320</text>
  <path d="M256 384 H0 H512" stroke="lightgray" fill="white"></path>
  <text x="2" y="384" font-size="12" text-anchor="start" fill="red">384</text>
  <path d="M256 448 H0 H512" stroke="lightgray" fill="white"></path>
  <text x="2" y="448" font-size="12" text-anchor="start" fill="red">448</text>
  <text x="2" y="512" font-size="12" text-anchor="start" fill="red">512</text>

  <path d="M64  0 V512" stroke="lightgray" fill="white"></path>
  <text x="64" y="12" font-size="12" text-anchor="start" fill="red">64</text>
  <path d="M128  0 V512" stroke="lightgray" fill="white"></path>
  <text x="128" y="12" font-size="12" text-anchor="start" fill="red">128</text>
  <path d="M195  0 V512" stroke="lightgray" fill="white"></path>
  <text x="192" y="12" font-size="12" text-anchor="start" fill="red">192</text>
  <path d="M256  0 V512" stroke="lightgray" fill="white"></path>
  <text x="256" y="12" font-size="12" text-anchor="start" fill="red">256</text>
  <path d="M320  0 V512" stroke="lightgray" fill="white"></path>
  <text x="320" y="12" font-size="12" text-anchor="start" fill="red">320</text>
  <path d="M384  0 V512" stroke="lightgray" fill="white"></path>
  <text x="384" y="12" font-size="12" text-anchor="start" fill="red">384</text>
  <path d="M448  0 V512" stroke="lightgray" fill="white"></path>
  <text x="448" y="12" font-size="12" text-anchor="start" fill="red">448</text>
  <text x="512" y="12" font-size="12" text-anchor="start" fill="red">512</text>


  <polygon fill="white" stroke="black" stroke-width="5" points="260,190 160,200 140,140"/>
  <polygon fill="white" stroke="black" stroke-width="5" points="252,190 352,200 372,140"/>
  <ellipse fill="white" stroke="black" stroke-width="5" cx="256" cy="256" rx="120" ry="100"/>
  <ellipse fill="red" stroke="black" stroke-width="5" cx="256" cy="290" rx="10" ry="8"/>
  <ellipse fill="black" stroke="black" stroke-width="5" cx="316" cy="260" rx="6" ry="9"/>
  <ellipse fill="black" stroke="black" stroke-width="5" cx="196" cy="260" rx="6" ry="9"/>
  <path d="M340 240 L400 210" stroke="black" fill="black"></path>
  <path d="M340 270 L405 260" stroke="black" fill="black"></path>
  <path d="M340 300 L400 310" stroke="black" fill="black"></path>
  <path d="M172 240 L112 210" stroke="black" fill="black"></path>
  <path d="M172 270 L107 260" stroke="black" fill="black"></path>
  <path d="M172 300 L112 310" stroke="black" fill="black"></path>
  <polygon fill="red" stroke="black" stroke-width="5" points="325,182 375,212 375,152"/>
  <polygon fill="red" stroke="black" stroke-width="5" points="325,182 275,152 275,212"/>
  <circle fill="red" stroke="black" stroke-width="5" cx="303" cy="182" r="7.5"/>
  <circle fill="red" stroke="black" stroke-width="5" cx="347" cy="182" r="7.5"/>
  <circle fill="red" stroke="black" stroke-width="5" cx="325" cy="182" r="19"/>
</svg>
